SplineFontDB: 3.2
FontName: NFM-IndusScript
FullName: NFM-Indus Script
FamilyName: NFM-Indus Script
Weight: Book
Copyright: SK Indus Script (c) Shabir Kumbhar (shabirkumbhar@gmail.com). 2017. All Rights Reserved
Version: 1.00 February 1, 2017, initial release
ItalicAngle: 0
UnderlinePosition: -367
UnderlineWidth: 100
Ascent: 1638
Descent: 410
InvalidEm: 0
sfntRevision: 0x00010000
LayerCount: 2
Layer: 0 1 "Back" 1
Layer: 1 1 "Fore" 0
XUID: [1021 982 907855491 8354687]
StyleMap: 0x0040
FSType: 0
OS2Version: 3
OS2_WeightWidthSlopeOnly: 0
OS2_UseTypoMetrics: 0
CreationTime: 1482781524
ModificationTime: 1761560780
PfmFamily: 17
TTFWeight: 400
TTFWidth: 5
LineGap: 222
VLineGap: 0
Panose: 2 0 5 0 0 0 0 0 0 0
OS2TypoAscent: 1434
OS2TypoAOffset: 0
OS2TypoDescent: -410
OS2TypoDOffset: 0
OS2TypoLinegap: 205
OS2WinAscent: 1716
OS2WinAOffset: 0
OS2WinDescent: 418
OS2WinDOffset: 0
HheadAscent: 1716
HheadAOffset: 0
HheadDescent: -418
HheadDOffset: 0
OS2SubXSize: 1434
OS2SubYSize: 1331
OS2SubXOff: 0
OS2SubYOff: 283
OS2SupXSize: 1434
OS2SupYSize: 1331
OS2SupXOff: 0
OS2SupYOff: 977
OS2StrikeYSize: 102
OS2StrikeYPos: 530
OS2CapHeight: 1434
OS2XHeight: 1024
OS2Vendor: 'SK  '
OS2CodePages: 00000001.00000000
OS2UnicodeRanges: 00000003.10000000.00000000.00000000
DEI: 91125
ShortTable: maxp 16
  1
  0
  2002
  403
  60
  0
  0
  1
  0
  0
  0
  0
  0
  0
  0
  0
EndShort
LangName: 1033 "SK Indus Script +AKkA Shabir Kumbhar (shabirkumbhar@gmail.com). 2017. All Rights Reserved" "" "Regular" "NFM-Indus Script" "" "1.00 February 1, 2017, initial release" "" "" "Shabir Kumbhar" "Shabir Kumbhar" "This font is created for perserving & deciphering of the Indus Script. A project of National fund for Mohen jo daro, culture department Government of Sindh."
GaspTable: 1 65535 2 0
Encoding: UnicodeBmp
UnicodeInterp: none
NameList: AGL For New Fonts
DisplaySize: -48
AntiAlias: 1
FitToEm: 0
WinInfo: 0 35 13
BeginChars: 65538 1883

StartChar: .notdef
Encoding: 65536 -1 0
Width: 1024
GlyphClass: 1
Flags: W
LayerCount: 2
Fore
SplineSet
100 0 m 1,0,-1
 100 1434 l 1,1,-1
 924 1434 l 1,2,-1
 924 0 l 1,3,-1
 100 0 l 1,0,-1
150 50 m 1,4,-1
 874 50 l 1,5,-1
 874 1384 l 1,6,-1
 150 1384 l 1,7,-1
 150 50 l 1,4,-1
325 1148 m 1,8,9
 356 1176 356 1176 383 1191 c 0,10,11
 436 1221 436 1221 495 1221 c 0,12,13
 587 1221 587 1221 643 1173.5 c 128,-1,14
 699 1126 699 1126 699 1046 c 0,15,16
 699 997 699 997 676 947.5 c 128,-1,17
 653 898 653 898 589 818 c 0,18,19
 526 738 526 738 490 686 c 128,-1,20
 454 634 454 634 454 587 c 0,21,22
 454 549 454 549 478 454 c 1,23,-1
 446 454 l 1,24,25
 411 551 411 551 411 602 c 0,26,27
 411 678 411 678 492.5 820 c 128,-1,28
 574 962 574 962 574 1037 c 0,29,30
 574 1094 574 1094 541 1127 c 128,-1,31
 508 1160 508 1160 450 1160 c 0,32,33
 412 1160 412 1160 381 1143 c 0,34,35
 355 1128 355 1128 325 1103 c 1,36,-1
 325 1148 l 1,8,9
389 334 m 2,37,-1
 446 392 l 2,38,39
 457 402 457 402 466 402 c 0,40,41
 476 402 476 402 488 391 c 2,42,-1
 544 331 l 2,43,44
 553 320 553 320 553 311 c 0,45,46
 553 300 553 300 543 289 c 2,47,-1
 487 227 l 2,48,49
 473 213 473 213 466 213 c 0,50,51
 455 213 455 213 446 223 c 2,52,-1
 385 294 l 2,53,54
 378 303 378 303 378 312 c 0,55,56
 378 322 378 322 389 334 c 2,37,-1
EndSplineSet
EndChar

StartChar: circumflex
Encoding: 710 710 2
Width: 809
GlyphClass: 1
Flags: W
LayerCount: 2
Fore
SplineSet
274 1121 m 2,0,1
 268 1111 268 1111 262 1105.5 c 128,-1,2
 256 1100 256 1100 247.5 1097 c 128,-1,3
 239 1094 239 1094 226.5 1092.5 c 128,-1,4
 214 1091 214 1091 195 1091 c 0,5,6
 168 1091 168 1091 153.5 1094.5 c 128,-1,7
 139 1098 139 1098 134 1104.5 c 128,-1,8
 129 1111 129 1111 133 1121.5 c 128,-1,9
 137 1132 137 1132 149 1147 c 2,10,-1
 314 1376 l 2,11,12
 319 1384 319 1384 326 1388.5 c 128,-1,13
 333 1393 333 1393 343.5 1396 c 128,-1,14
 354 1399 354 1399 369.5 1400.5 c 128,-1,15
 385 1402 385 1402 407 1402 c 0,16,17
 428 1402 428 1402 442 1400.5 c 128,-1,18
 456 1399 456 1399 466 1395.5 c 128,-1,19
 476 1392 476 1392 482.5 1387.5 c 128,-1,20
 489 1383 489 1383 494 1376 c 2,21,-1
 659 1147 l 2,22,23
 670 1132 670 1132 674 1121.5 c 128,-1,24
 678 1111 678 1111 673.5 1104.5 c 128,-1,25
 669 1098 669 1098 654 1094.5 c 128,-1,26
 639 1091 639 1091 613 1091 c 0,27,28
 592 1091 592 1091 579.5 1092.5 c 128,-1,29
 567 1094 567 1094 559 1097 c 128,-1,30
 551 1100 551 1100 546 1106 c 128,-1,31
 541 1112 541 1112 534 1121 c 2,32,-1
 404 1301 l 1,33,-1
 274 1121 l 2,0,1
0 951 m 1024,34,-1
EndSplineSet
EndChar

StartChar: caron
Encoding: 711 711 3
Width: 809
GlyphClass: 1
Flags: W
LayerCount: 2
Fore
SplineSet
534 1372 m 2,0,1
 541 1381 541 1381 546.5 1386.5 c 128,-1,2
 552 1392 552 1392 561 1395.5 c 128,-1,3
 570 1399 570 1399 582.5 1400.5 c 128,-1,4
 595 1402 595 1402 614 1402 c 0,5,6
 640 1402 640 1402 655 1398.5 c 128,-1,7
 670 1395 670 1395 674.5 1388.5 c 128,-1,8
 679 1382 679 1382 675 1371.5 c 128,-1,9
 671 1361 671 1361 660 1346 c 2,10,-1
 495 1117 l 2,11,12
 489 1109 489 1109 482 1104 c 128,-1,13
 475 1099 475 1099 464.5 1096.5 c 128,-1,14
 454 1094 454 1094 439 1092.5 c 128,-1,15
 424 1091 424 1091 402 1091 c 0,16,17
 381 1091 381 1091 367 1092.5 c 128,-1,18
 353 1094 353 1094 342.5 1097 c 128,-1,19
 332 1100 332 1100 325.5 1105 c 128,-1,20
 319 1110 319 1110 314 1117 c 2,21,-1
 149 1346 l 2,22,23
 138 1360 138 1360 134 1371 c 128,-1,24
 130 1382 130 1382 135 1388.5 c 128,-1,25
 140 1395 140 1395 154.5 1398.5 c 128,-1,26
 169 1402 169 1402 195 1402 c 0,27,28
 216 1402 216 1402 228.5 1400.5 c 128,-1,29
 241 1399 241 1399 249 1395.5 c 128,-1,30
 257 1392 257 1392 262.5 1386.5 c 128,-1,31
 268 1381 268 1381 274 1372 c 2,32,-1
 404 1191 l 1,33,-1
 534 1372 l 2,0,1
0 951 m 1024,34,-1
EndSplineSet
EndChar

StartChar: uni02C9
Encoding: 713 713 4
Width: 807
GlyphClass: 1
Flags: W
LayerCount: 2
Fore
SplineSet
644 1293 m 2,0,1
 652 1293 652 1293 658 1289.5 c 128,-1,2
 664 1286 664 1286 667.5 1278.5 c 128,-1,3
 671 1271 671 1271 673.5 1258.5 c 128,-1,4
 676 1246 676 1246 676 1228 c 0,5,6
 676 1211 676 1211 673.5 1199.5 c 128,-1,7
 671 1188 671 1188 667.5 1180 c 128,-1,8
 664 1172 664 1172 658 1168 c 128,-1,9
 652 1164 652 1164 644 1164 c 2,10,-1
 165 1164 l 2,11,12
 157 1164 157 1164 150.5 1168 c 128,-1,13
 144 1172 144 1172 140 1180 c 128,-1,14
 136 1188 136 1188 134 1199.5 c 128,-1,15
 132 1211 132 1211 132 1228 c 0,16,17
 132 1246 132 1246 134 1258.5 c 128,-1,18
 136 1271 136 1271 140 1278.5 c 128,-1,19
 144 1286 144 1286 150.5 1289.5 c 128,-1,20
 157 1293 157 1293 165 1293 c 2,21,-1
 644 1293 l 2,0,1
0 951 m 1024,22,-1
EndSplineSet
EndChar

StartChar: breve
Encoding: 728 728 5
Width: 1024
GlyphClass: 1
Flags: W
LayerCount: 2
Fore
SplineSet
219 1349 m 1,0,-1
 270 1349 l 1,1,2
 287 1276 287 1276 345 1242 c 128,-1,3
 403 1208 403 1208 512 1208 c 256,4,5
 621 1208 621 1208 678 1241.5 c 128,-1,6
 735 1275 735 1275 752 1349 c 1,7,-1
 803 1349 l 1,8,9
 783 1216 783 1216 709 1147.5 c 128,-1,10
 635 1079 635 1079 512 1079 c 0,11,12
 390 1079 390 1079 315 1148 c 128,-1,13
 240 1217 240 1217 219 1349 c 1,0,-1
EndSplineSet
EndChar

StartChar: dotaccent
Encoding: 729 729 6
Width: 1024
GlyphClass: 1
Flags: W
LayerCount: 2
Fore
SplineSet
422 1289 m 2,0,-1
 491 1361 l 2,1,2
 497 1367 497 1367 504 1370 c 128,-1,3
 511 1373 511 1373 518 1373 c 0,4,5
 524 1373 524 1373 530.5 1370 c 128,-1,6
 537 1367 537 1367 543 1361 c 2,7,-1
 614 1285 l 2,8,9
 619 1281 619 1281 621 1275 c 128,-1,10
 623 1269 623 1269 623 1261 c 0,11,12
 622 1252 622 1252 620 1246 c 128,-1,13
 618 1240 618 1240 612 1234 c 2,14,-1
 541 1158 l 2,15,16
 529 1147 529 1147 525 1144.5 c 128,-1,17
 521 1142 521 1142 518 1142 c 0,18,19
 508 1142 508 1142 501.5 1144.5 c 128,-1,20
 495 1147 495 1147 491 1153 c 2,21,-1
 416 1240 l 2,22,23
 412 1244 412 1244 410 1249.5 c 128,-1,24
 408 1255 408 1255 408 1263 c 0,25,26
 408 1269 408 1269 411 1275.5 c 128,-1,27
 414 1282 414 1282 422 1289 c 2,0,-1
EndSplineSet
EndChar

StartChar: ring
Encoding: 730 730 7
Width: 1024
GlyphClass: 1
Flags: W
LayerCount: 2
Fore
SplineSet
411 1257 m 0,0,1
 411 1215 411 1215 440 1186 c 128,-1,2
 469 1157 469 1157 511 1157 c 256,3,4
 553 1157 553 1157 582 1186 c 128,-1,5
 611 1215 611 1215 611 1257 c 0,6,7
 611 1297 611 1297 581.5 1326.5 c 128,-1,8
 552 1356 552 1356 511 1356 c 256,9,10
 470 1356 470 1356 440.5 1326.5 c 128,-1,11
 411 1297 411 1297 411 1257 c 0,0,1
335 1257 m 256,12,13
 335 1332 335 1332 386 1383 c 128,-1,14
 437 1434 437 1434 511 1434 c 0,15,16
 587 1434 587 1434 638.5 1382.5 c 128,-1,17
 690 1331 690 1331 690 1257 c 0,18,19
 690 1182 690 1182 638.5 1130.5 c 128,-1,20
 587 1079 587 1079 511 1079 c 0,21,22
 437 1079 437 1079 386 1130.5 c 128,-1,23
 335 1182 335 1182 335 1257 c 256,12,13
EndSplineSet
EndChar

StartChar: ogonek
Encoding: 731 731 8
Width: 1024
GlyphClass: 1
Flags: W
LayerCount: 2
Fore
SplineSet
640 0 m 1,0,1
 569 -62 569 -62 529.5 -119.5 c 128,-1,2
 490 -177 490 -177 490 -232 c 0,3,4
 490 -279 490 -279 517 -307 c 128,-1,5
 544 -335 544 -335 590 -335 c 0,6,7
 630 -335 630 -335 659.5 -319.5 c 128,-1,8
 689 -304 689 -304 709 -271 c 1,9,-1
 737 -287 l 1,10,11
 701 -350 701 -350 646.5 -384 c 128,-1,12
 592 -418 592 -418 527 -418 c 0,13,14
 457 -418 457 -418 413 -382.5 c 128,-1,15
 369 -347 369 -347 369 -292 c 0,16,17
 369 -216 369 -216 429.5 -135.5 c 128,-1,18
 490 -55 490 -55 591 0 c 1,19,-1
 640 0 l 1,0,1
EndSplineSet
EndChar

StartChar: tilde
Encoding: 732 732 9
Width: 1024
GlyphClass: 1
Flags: W
LayerCount: 2
Fore
SplineSet
808 1382 m 1,0,1
 788 1279 788 1279 739.5 1228 c 128,-1,2
 691 1177 691 1177 613 1177 c 2,3,-1
 609 1177 l 2,4,5
 559 1177 559 1177 496 1200 c 0,6,7
 430 1224 430 1224 382 1224 c 0,8,9
 343 1224 343 1224 321.5 1203.5 c 128,-1,10
 300 1183 300 1183 288 1132 c 1,11,-1
 234 1132 l 1,12,13
 253 1238 253 1238 302 1290.5 c 128,-1,14
 351 1343 351 1343 431 1343 c 0,15,16
 477 1342 477 1342 544 1319 c 0,17,18
 608 1296 608 1296 656 1296 c 2,19,-1
 660 1296 l 2,20,21
 696 1296 696 1296 718 1316 c 128,-1,22
 740 1336 740 1336 754 1382 c 1,23,-1
 808 1382 l 1,0,1
EndSplineSet
EndChar

StartChar: hungarumlaut
Encoding: 733 733 10
Width: 1024
GlyphClass: 1
Flags: W
LayerCount: 2
Fore
SplineSet
217 1079 m 1,0,-1
 361 1352 l 2,1,2
 385 1396 385 1396 406.5 1415 c 128,-1,3
 428 1434 428 1434 453 1434 c 0,4,5
 481 1434 481 1434 501 1414 c 128,-1,6
 521 1394 521 1394 521 1367 c 0,7,8
 521 1351 521 1351 510.5 1332 c 128,-1,9
 500 1313 500 1313 480 1291 c 2,10,-1
 275 1079 l 1,11,-1
 217 1079 l 1,0,-1
502 1079 m 1,12,-1
 646 1352 l 2,13,14
 670 1396 670 1396 691.5 1415 c 128,-1,15
 713 1434 713 1434 738 1434 c 0,16,17
 766 1434 766 1434 786 1414 c 128,-1,18
 806 1394 806 1394 806 1367 c 0,19,20
 806 1351 806 1351 795.5 1332 c 128,-1,21
 785 1313 785 1313 765 1291 c 2,22,-1
 560 1079 l 1,23,-1
 502 1079 l 1,12,-1
EndSplineSet
EndChar

StartChar: endash
Encoding: 8211 8211 11
Width: 1020
GlyphClass: 1
Flags: W
LayerCount: 2
Fore
SplineSet
1026 566 m 0,0,1
 1026 528 1026 528 1016.5 510.5 c 128,-1,2
 1007 493 1007 493 988 493 c 2,3,-1
 27 493 l 2,4,5
 8 493 8 493 -1 510.5 c 128,-1,6
 -10 528 -10 528 -10 566 c 0,7,8
 -10 603 -10 603 -1 620.5 c 128,-1,9
 8 638 8 638 27 638 c 2,10,-1
 988 638 l 2,11,12
 997 638 997 638 1004.5 633.5 c 128,-1,13
 1012 629 1012 629 1016.5 620.5 c 128,-1,14
 1021 612 1021 612 1023.5 598.5 c 128,-1,15
 1026 585 1026 585 1026 566 c 0,0,1
EndSplineSet
EndChar

StartChar: emdash
Encoding: 8212 8212 12
Width: 1854
GlyphClass: 1
Flags: W
LayerCount: 2
Fore
SplineSet
1705 566 m 0,0,1
 1705 525 1705 525 1693.5 509 c 128,-1,2
 1682 493 1682 493 1667 493 c 2,3,-1
 188 493 l 2,4,5
 173 493 173 493 161 509 c 128,-1,6
 149 525 149 525 149 566 c 0,7,8
 149 604 149 604 159.5 621.5 c 128,-1,9
 170 639 170 639 188 639 c 2,10,-1
 1667 639 l 2,11,12
 1684 639 1684 639 1694.5 622 c 128,-1,13
 1705 605 1705 605 1705 566 c 0,0,1
EndSplineSet
EndChar

StartChar: quoteleft
Encoding: 8216 8216 13
Width: 511
GlyphClass: 1
Flags: W
LayerCount: 2
Fore
SplineSet
332 1094 m 1,0,-1
 332 967 l 2,1,2
 332 940 332 940 326 924 c 128,-1,3
 320 908 320 908 308 899.5 c 128,-1,4
 296 891 296 891 278 888 c 128,-1,5
 260 885 260 885 235 885 c 256,6,7
 210 885 210 885 192 888 c 128,-1,8
 174 891 174 891 162.5 899.5 c 128,-1,9
 151 908 151 908 145.5 924 c 128,-1,10
 140 940 140 940 140 967 c 0,11,12
 140 997 140 997 143 1023 c 128,-1,13
 146 1049 146 1049 153 1072 c 128,-1,14
 160 1095 160 1095 171.5 1118 c 128,-1,15
 183 1141 183 1141 200 1165 c 2,16,-1
 337 1371 l 2,17,18
 342 1379 342 1379 348 1384 c 128,-1,19
 354 1389 354 1389 363.5 1392.5 c 128,-1,20
 373 1396 373 1396 385.5 1398 c 128,-1,21
 398 1400 398 1400 416 1400 c 256,22,23
 434 1400 434 1400 445.5 1398.5 c 128,-1,24
 457 1397 457 1397 462.5 1393.5 c 128,-1,25
 468 1390 468 1390 468 1384 c 128,-1,26
 468 1378 468 1378 464 1370 c 2,27,-1
 332 1094 l 1,0,-1
EndSplineSet
EndChar

StartChar: quoteright
Encoding: 8217 8217 14
Width: 511
GlyphClass: 1
Flags: W
LayerCount: 2
Fore
SplineSet
371 1318 m 0,0,1
 371 1287 371 1287 368 1261.5 c 128,-1,2
 365 1236 365 1236 358 1212.5 c 128,-1,3
 351 1189 351 1189 339.5 1166.5 c 128,-1,4
 328 1144 328 1144 311 1120 c 2,5,-1
 174 914 l 2,6,7
 169 907 169 907 162.5 901 c 128,-1,8
 156 895 156 895 146.5 891.5 c 128,-1,9
 137 888 137 888 124.5 886.5 c 128,-1,10
 112 885 112 885 93 885 c 0,11,12
 76 885 76 885 64.5 886.5 c 128,-1,13
 53 888 53 888 48 891.5 c 128,-1,14
 43 895 43 895 42.5 901 c 128,-1,15
 42 907 42 907 46 916 c 2,16,-1
 179 1191 l 1,17,-1
 179 1318 l 2,18,19
 179 1344 179 1344 184.5 1360 c 128,-1,20
 190 1376 190 1376 202 1385 c 128,-1,21
 214 1394 214 1394 232 1397 c 128,-1,22
 250 1400 250 1400 276 1400 c 0,23,24
 301 1400 301 1400 319 1397 c 128,-1,25
 337 1394 337 1394 348.5 1385 c 128,-1,26
 360 1376 360 1376 365.5 1360 c 128,-1,27
 371 1344 371 1344 371 1318 c 0,0,1
EndSplineSet
EndChar

StartChar: quotesinglbase
Encoding: 8218 8218 15
Width: 511
GlyphClass: 1
Flags: W
LayerCount: 2
Fore
SplineSet
371 143 m 0,0,1
 371 112 371 112 368 86 c 128,-1,2
 365 60 365 60 358 37 c 128,-1,3
 351 14 351 14 339.5 -8.5 c 128,-1,4
 328 -31 328 -31 311 -56 c 2,5,-1
 174 -262 l 2,6,7
 169 -269 169 -269 162.5 -274 c 128,-1,8
 156 -279 156 -279 146.5 -283 c 128,-1,9
 137 -287 137 -287 124.5 -288.5 c 128,-1,10
 112 -290 112 -290 93 -290 c 0,11,12
 76 -290 76 -290 64.5 -288.5 c 128,-1,13
 53 -287 53 -287 48 -283.5 c 128,-1,14
 43 -280 43 -280 42.5 -274 c 128,-1,15
 42 -268 42 -268 46 -260 c 2,16,-1
 179 15 l 1,17,-1
 179 143 l 2,18,19
 179 170 179 170 184.5 186 c 128,-1,20
 190 202 190 202 202 210 c 128,-1,21
 214 218 214 218 232 221 c 128,-1,22
 250 224 250 224 276 224 c 0,23,24
 301 224 301 224 319 221 c 128,-1,25
 337 218 337 218 348.5 210 c 128,-1,26
 360 202 360 202 365.5 186 c 128,-1,27
 371 170 371 170 371 143 c 0,0,1
EndSplineSet
EndChar

StartChar: quotedblleft
Encoding: 8220 8220 16
Width: 857
GlyphClass: 1
Flags: W
LayerCount: 2
Fore
SplineSet
678 1095 m 1,0,-1
 678 969 l 2,1,2
 678 943 678 943 672.5 927 c 128,-1,3
 667 911 667 911 655.5 902 c 128,-1,4
 644 893 644 893 626.5 890 c 128,-1,5
 609 887 609 887 585 887 c 256,6,7
 561 887 561 887 544 890 c 128,-1,8
 527 893 527 893 516 902 c 128,-1,9
 505 911 505 911 499.5 927 c 128,-1,10
 494 943 494 943 494 969 c 0,11,12
 494 999 494 999 497 1024.5 c 128,-1,13
 500 1050 500 1050 506.5 1073 c 128,-1,14
 513 1096 513 1096 524.5 1118.5 c 128,-1,15
 536 1141 536 1141 552 1166 c 2,16,-1
 687 1371 l 2,17,18
 692 1379 692 1379 698 1384 c 128,-1,19
 704 1389 704 1389 713 1392.5 c 128,-1,20
 722 1396 722 1396 734.5 1398 c 128,-1,21
 747 1400 747 1400 765 1400 c 0,22,23
 781 1400 781 1400 792 1398.5 c 128,-1,24
 803 1397 803 1397 808 1393.5 c 128,-1,25
 813 1390 813 1390 813.5 1384 c 128,-1,26
 814 1378 814 1378 809 1370 c 2,27,-1
 678 1095 l 1,0,-1
320 1095 m 1,28,-1
 320 969 l 2,29,30
 320 943 320 943 314.5 927 c 128,-1,31
 309 911 309 911 297.5 902 c 128,-1,32
 286 893 286 893 268.5 890 c 128,-1,33
 251 887 251 887 227 887 c 256,34,35
 203 887 203 887 186 890 c 128,-1,36
 169 893 169 893 158 902 c 128,-1,37
 147 911 147 911 141.5 927 c 128,-1,38
 136 943 136 943 136 969 c 0,39,40
 136 999 136 999 139 1024.5 c 128,-1,41
 142 1050 142 1050 148.5 1073 c 128,-1,42
 155 1096 155 1096 166.5 1118.5 c 128,-1,43
 178 1141 178 1141 194 1166 c 2,44,-1
 329 1371 l 2,45,46
 334 1379 334 1379 340 1384 c 128,-1,47
 346 1389 346 1389 355 1392.5 c 128,-1,48
 364 1396 364 1396 376.5 1398 c 128,-1,49
 389 1400 389 1400 407 1400 c 0,50,51
 423 1400 423 1400 433.5 1398.5 c 128,-1,52
 444 1397 444 1397 449.5 1393.5 c 128,-1,53
 455 1390 455 1390 455 1384 c 128,-1,54
 455 1378 455 1378 451 1370 c 2,55,-1
 320 1095 l 1,28,-1
EndSplineSet
EndChar

StartChar: quotedblright
Encoding: 8221 8221 17
Width: 857
GlyphClass: 1
Flags: W
LayerCount: 2
Fore
SplineSet
721 1319 m 0,0,1
 721 1288 721 1288 718 1262.5 c 128,-1,2
 715 1237 715 1237 708.5 1214 c 128,-1,3
 702 1191 702 1191 690.5 1168.5 c 128,-1,4
 679 1146 679 1146 663 1122 c 2,5,-1
 527 917 l 2,6,7
 523 909 523 909 516.5 903.5 c 128,-1,8
 510 898 510 898 501 894.5 c 128,-1,9
 492 891 492 891 480 889 c 128,-1,10
 468 887 468 887 450 887 c 0,11,12
 434 887 434 887 423.5 888.5 c 128,-1,13
 413 890 413 890 407.5 894 c 128,-1,14
 402 898 402 898 402 904 c 128,-1,15
 402 910 402 910 405 919 c 2,16,-1
 537 1192 l 1,17,-1
 537 1319 l 2,18,19
 537 1345 537 1345 542 1361 c 128,-1,20
 547 1377 547 1377 558.5 1385.5 c 128,-1,21
 570 1394 570 1394 587.5 1397 c 128,-1,22
 605 1400 605 1400 630 1400 c 0,23,24
 653 1400 653 1400 670.5 1397 c 128,-1,25
 688 1394 688 1394 699 1385.5 c 128,-1,26
 710 1377 710 1377 715.5 1361 c 128,-1,27
 721 1345 721 1345 721 1319 c 0,0,1
363 1319 m 0,28,29
 363 1288 363 1288 360 1262.5 c 128,-1,30
 357 1237 357 1237 350.5 1214 c 128,-1,31
 344 1191 344 1191 332.5 1168.5 c 128,-1,32
 321 1146 321 1146 305 1122 c 2,33,-1
 169 917 l 2,34,35
 165 909 165 909 158.5 903.5 c 128,-1,36
 152 898 152 898 143 894.5 c 128,-1,37
 134 891 134 891 122 889 c 128,-1,38
 110 887 110 887 92 887 c 0,39,40
 76 887 76 887 65 888.5 c 128,-1,41
 54 890 54 890 49 894 c 128,-1,42
 44 898 44 898 43.5 904 c 128,-1,43
 43 910 43 910 47 919 c 2,44,-1
 179 1192 l 1,45,-1
 179 1319 l 2,46,47
 179 1345 179 1345 184 1361 c 128,-1,48
 189 1377 189 1377 200.5 1385.5 c 128,-1,49
 212 1394 212 1394 229.5 1397 c 128,-1,50
 247 1400 247 1400 272 1400 c 0,51,52
 296 1400 296 1400 313 1397 c 128,-1,53
 330 1394 330 1394 341 1385.5 c 128,-1,54
 352 1377 352 1377 357.5 1361 c 128,-1,55
 363 1345 363 1345 363 1319 c 0,28,29
EndSplineSet
EndChar

StartChar: quotedblbase
Encoding: 8222 8222 18
Width: 857
GlyphClass: 1
Flags: W
LayerCount: 2
Fore
SplineSet
721 142 m 0,0,1
 721 111 721 111 718 85.5 c 128,-1,2
 715 60 715 60 708.5 37 c 128,-1,3
 702 14 702 14 690.5 -8.5 c 128,-1,4
 679 -31 679 -31 663 -56 c 2,5,-1
 527 -260 l 2,6,7
 523 -268 523 -268 516.5 -273 c 128,-1,8
 510 -278 510 -278 501 -281.5 c 128,-1,9
 492 -285 492 -285 480 -287 c 128,-1,10
 468 -289 468 -289 450 -289 c 0,11,12
 434 -289 434 -289 423.5 -287.5 c 128,-1,13
 413 -286 413 -286 407.5 -282.5 c 128,-1,14
 402 -279 402 -279 402 -273 c 128,-1,15
 402 -267 402 -267 405 -259 c 2,16,-1
 537 15 l 1,17,-1
 537 142 l 2,18,19
 537 168 537 168 542 184 c 128,-1,20
 547 200 547 200 558.5 208.5 c 128,-1,21
 570 217 570 217 587.5 220 c 128,-1,22
 605 223 605 223 630 223 c 0,23,24
 653 223 653 223 670.5 220 c 128,-1,25
 688 217 688 217 699 208.5 c 128,-1,26
 710 200 710 200 715.5 184 c 128,-1,27
 721 168 721 168 721 142 c 0,0,1
363 142 m 0,28,29
 363 111 363 111 360 85.5 c 128,-1,30
 357 60 357 60 350.5 37 c 128,-1,31
 344 14 344 14 332.5 -8.5 c 128,-1,32
 321 -31 321 -31 305 -56 c 2,33,-1
 169 -260 l 2,34,35
 165 -268 165 -268 158.5 -273 c 128,-1,36
 152 -278 152 -278 143 -281.5 c 128,-1,37
 134 -285 134 -285 122 -287 c 128,-1,38
 110 -289 110 -289 92 -289 c 0,39,40
 76 -289 76 -289 65 -287.5 c 128,-1,41
 54 -286 54 -286 49 -282.5 c 128,-1,42
 44 -279 44 -279 43.5 -273 c 128,-1,43
 43 -267 43 -267 47 -259 c 2,44,-1
 179 15 l 1,45,-1
 179 142 l 2,46,47
 179 168 179 168 184 184 c 128,-1,48
 189 200 189 200 200.5 208.5 c 128,-1,49
 212 217 212 217 229.5 220 c 128,-1,50
 247 223 247 223 272 223 c 0,51,52
 296 223 296 223 313 220 c 128,-1,53
 330 217 330 217 341 208.5 c 128,-1,54
 352 200 352 200 357.5 184 c 128,-1,55
 363 168 363 168 363 142 c 0,28,29
EndSplineSet
EndChar

StartChar: dagger
Encoding: 8224 8224 19
Width: 1014
GlyphClass: 1
Flags: W
LayerCount: 2
Fore
SplineSet
486 1022 m 1,0,1
 478 1119 478 1119 432 1200 c 0,2,3
 375 1301 375 1301 375 1329 c 0,4,5
 375 1378 375 1378 411 1407.5 c 128,-1,6
 447 1437 447 1437 507 1437 c 0,7,8
 564 1437 564 1437 601.5 1409.5 c 128,-1,9
 639 1382 639 1382 639 1338 c 0,10,11
 639 1306 639 1306 584 1201 c 0,12,13
 538 1116 538 1116 529 1022 c 1,14,15
 625 1030 625 1030 706 1076 c 0,16,17
 807 1133 807 1133 835 1133 c 0,18,19
 884 1133 884 1133 914 1097 c 128,-1,20
 944 1061 944 1061 944 1001 c 0,21,22
 944 944 944 944 916.5 906.5 c 128,-1,23
 889 869 889 869 844 869 c 0,24,25
 812 869 812 869 708 924 c 0,26,27
 623 970 623 970 529 981 c 1,28,29
 537 805 537 805 639 704 c 1,30,31
 533 244 533 244 527 -270 c 1,32,-1
 489 -270 l 1,33,34
 483 244 483 244 375 704 c 1,35,36
 477 805 477 805 486 981 c 1,37,38
 390 971 390 971 308 926 c 0,39,40
 207 869 207 869 179 869 c 0,41,42
 130 869 130 869 100.5 905 c 128,-1,43
 71 941 71 941 71 1001 c 0,44,45
 71 1058 71 1058 98.5 1095.5 c 128,-1,46
 126 1133 126 1133 170 1133 c 0,47,48
 202 1133 202 1133 307 1077 c 0,49,50
 392 1031 392 1031 486 1022 c 1,0,1
EndSplineSet
EndChar

StartChar: daggerdbl
Encoding: 8225 8225 20
Width: 1014
GlyphClass: 1
Flags: W
LayerCount: 2
Fore
SplineSet
528 186 m 1,0,1
 622 197 622 197 707 243 c 0,2,3
 811 298 811 298 843 298 c 0,4,5
 888 298 888 298 915.5 260.5 c 128,-1,6
 943 223 943 223 943 166 c 0,7,8
 943 106 943 106 913 70 c 128,-1,9
 883 34 883 34 834 34 c 0,10,11
 806 34 806 34 705 91 c 0,12,13
 624 137 624 137 528 145 c 1,14,15
 537 51 537 51 583 -34 c 0,16,17
 638 -139 638 -139 638 -171 c 0,18,19
 638 -215 638 -215 600.5 -242.5 c 128,-1,20
 563 -270 563 -270 506 -270 c 0,21,22
 446 -270 446 -270 410 -240.5 c 128,-1,23
 374 -211 374 -211 374 -162 c 0,24,25
 374 -134 374 -134 431 -33 c 0,26,27
 477 48 477 48 485 145 c 1,28,29
 391 136 391 136 306 90 c 0,30,31
 201 34 201 34 169 34 c 0,32,33
 125 34 125 34 97.5 71.5 c 128,-1,34
 70 109 70 109 70 166 c 0,35,36
 70 226 70 226 99.5 262 c 128,-1,37
 129 298 129 298 178 298 c 0,38,39
 206 298 206 298 307 241 c 0,40,41
 389 196 389 196 485 186 c 1,42,43
 476 412 476 412 374 584 c 1,44,45
 476 755 476 755 485 981 c 1,46,47
 389 971 389 971 307 926 c 0,48,49
 206 869 206 869 178 869 c 0,50,51
 129 869 129 869 99.5 905 c 128,-1,52
 70 941 70 941 70 1001 c 0,53,54
 70 1058 70 1058 97.5 1095.5 c 128,-1,55
 125 1133 125 1133 169 1133 c 0,56,57
 201 1133 201 1133 306 1077 c 0,58,59
 391 1031 391 1031 485 1022 c 1,60,61
 477 1119 477 1119 431 1200 c 0,62,63
 374 1301 374 1301 374 1329 c 0,64,65
 374 1378 374 1378 410 1407.5 c 128,-1,66
 446 1437 446 1437 506 1437 c 0,67,68
 563 1437 563 1437 600.5 1409.5 c 128,-1,69
 638 1382 638 1382 638 1338 c 0,70,71
 638 1306 638 1306 583 1201 c 0,72,73
 537 1116 537 1116 528 1022 c 1,74,75
 624 1030 624 1030 705 1076 c 0,76,77
 806 1133 806 1133 834 1133 c 0,78,79
 883 1133 883 1133 913 1097 c 128,-1,80
 943 1061 943 1061 943 1001 c 0,81,82
 943 944 943 944 915.5 906.5 c 128,-1,83
 888 869 888 869 843 869 c 0,84,85
 811 869 811 869 707 924 c 0,86,87
 622 970 622 970 528 981 c 1,88,89
 536 755 536 755 638 584 c 1,90,91
 536 412 536 412 528 186 c 1,0,1
EndSplineSet
EndChar

StartChar: bullet
Encoding: 8226 8226 21
Width: 1020
GlyphClass: 1
Flags: W
LayerCount: 2
Fore
SplineSet
827 643 m 0,0,1
 827 578 827 578 802.5 519.5 c 128,-1,2
 778 461 778 461 734.5 418 c 128,-1,3
 691 375 691 375 633 350.5 c 128,-1,4
 575 326 575 326 509 326 c 0,5,6
 444 326 444 326 385.5 350 c 128,-1,7
 327 374 327 374 284 417 c 128,-1,8
 241 460 241 460 217 518.5 c 128,-1,9
 193 577 193 577 193 642 c 0,10,11
 193 709 193 709 217.5 766.5 c 128,-1,12
 242 824 242 824 285 867.5 c 128,-1,13
 328 911 328 911 386.5 935.5 c 128,-1,14
 445 960 445 960 510 960 c 256,15,16
 575 960 575 960 633.5 935.5 c 128,-1,17
 692 911 692 911 735 868 c 128,-1,18
 778 825 778 825 802.5 767 c 128,-1,19
 827 709 827 709 827 643 c 0,0,1
EndSplineSet
EndChar

StartChar: ellipsis
Encoding: 8230 8230 22
Width: 1414
GlyphClass: 1
Flags: W
LayerCount: 2
Fore
SplineSet
361 108 m 0,0,1
 361 38 361 38 337.5 14.5 c 128,-1,2
 314 -9 314 -9 254 -9 c 0,3,4
 196 -9 196 -9 173 14 c 128,-1,5
 150 37 150 37 150 105 c 0,6,7
 150 175 150 175 173.5 198.5 c 128,-1,8
 197 222 197 222 257 222 c 0,9,10
 315 222 315 222 338 199 c 128,-1,11
 361 176 361 176 361 108 c 0,0,1
812 108 m 0,12,13
 812 38 812 38 789 14.5 c 128,-1,14
 766 -9 766 -9 706 -9 c 0,15,16
 648 -9 648 -9 625 14 c 128,-1,17
 602 37 602 37 602 105 c 0,18,19
 602 175 602 175 625.5 198.5 c 128,-1,20
 649 222 649 222 708 222 c 256,21,22
 767 222 767 222 789.5 199 c 128,-1,23
 812 176 812 176 812 108 c 0,12,13
1264 108 m 0,24,25
 1264 38 1264 38 1240.5 14.5 c 128,-1,26
 1217 -9 1217 -9 1157 -9 c 0,27,28
 1099 -9 1099 -9 1076 14 c 128,-1,29
 1053 37 1053 37 1053 105 c 0,30,31
 1053 175 1053 175 1076.5 198.5 c 128,-1,32
 1100 222 1100 222 1160 222 c 0,33,34
 1218 222 1218 222 1241 199 c 128,-1,35
 1264 176 1264 176 1264 108 c 0,24,25
EndSplineSet
EndChar

StartChar: guilsinglleft
Encoding: 8249 8249 23
Width: 694
GlyphClass: 1
Flags: W
LayerCount: 2
Fore
SplineSet
281 520 m 1,0,-1
 495 147 l 2,1,2
 500 137 500 137 500.5 128.5 c 128,-1,3
 501 120 501 120 494.5 113.5 c 128,-1,4
 488 107 488 107 473 104 c 128,-1,5
 458 101 458 101 433 101 c 0,6,7
 411 101 411 101 397 102 c 128,-1,8
 383 103 383 103 374 106 c 128,-1,9
 365 109 365 109 360 114 c 128,-1,10
 355 119 355 119 350 127 c 2,11,-1
 130 480 l 2,12,13
 116 503 116 503 116 523 c 128,-1,14
 116 543 116 543 131 565 c 2,15,-1
 347 912 l 2,16,17
 352 920 352 920 357.5 925 c 128,-1,18
 363 930 363 930 372 933 c 128,-1,19
 381 936 381 936 394.5 937 c 128,-1,20
 408 938 408 938 430 938 c 0,21,22
 456 938 456 938 471 935 c 128,-1,23
 486 932 486 932 493 926 c 128,-1,24
 500 920 500 920 499.5 912 c 128,-1,25
 499 904 499 904 493 893 c 2,26,-1
 281 520 l 1,0,-1
EndSplineSet
EndChar

StartChar: guilsinglright
Encoding: 8250 8250 24
Width: 694
GlyphClass: 1
Flags: W
LayerCount: 2
Fore
SplineSet
346 127 m 2,0,1
 341 119 341 119 335.5 114 c 128,-1,2
 330 109 330 109 321 106 c 128,-1,3
 312 103 312 103 298.5 102 c 128,-1,4
 285 101 285 101 263 101 c 0,5,6
 237 101 237 101 222 104 c 128,-1,7
 207 107 207 107 200 113 c 128,-1,8
 193 119 193 119 193 127 c 128,-1,9
 193 135 193 135 200 145 c 2,10,-1
 412 519 l 1,11,-1
 198 892 l 2,12,13
 193 902 193 902 192.5 910.5 c 128,-1,14
 192 919 192 919 198.5 925.5 c 128,-1,15
 205 932 205 932 220 935 c 128,-1,16
 235 938 235 938 260 938 c 0,17,18
 282 938 282 938 296 937 c 128,-1,19
 310 936 310 936 319 933 c 128,-1,20
 328 930 328 930 333 925 c 128,-1,21
 338 920 338 920 344 912 c 2,22,-1
 563 559 l 2,23,24
 577 536 577 536 577 516 c 128,-1,25
 577 496 577 496 562 473 c 2,26,-1
 346 127 l 2,0,1
EndSplineSet
EndChar

StartChar: fraction
Encoding: 8260 8260 25
AltUni2: 002215.ffffffff.0 002215.ffffffff.0
Width: 342
GlyphClass: 1
Flags: W
LayerCount: 2
Fore
SplineSet
-342 -29 m 1,0,-1
 598 1432 l 1,1,-1
 682 1432 l 1,2,-1
 -256 -29 l 1,3,-1
 -342 -29 l 1,0,-1
EndSplineSet
EndChar

StartChar: franc
Encoding: 8355 8355 26
Width: 941
GlyphClass: 1
Flags: W
LayerCount: 2
Fore
SplineSet
852 1220 m 256,0,1
 852 1201 852 1201 850 1187 c 128,-1,2
 848 1173 848 1173 843 1164.5 c 128,-1,3
 838 1156 838 1156 831.5 1152 c 128,-1,4
 825 1148 825 1148 818 1148 c 2,5,-1
 344 1148 l 1,6,-1
 344 708 l 1,7,-1
 792 708 l 2,8,9
 799 708 799 708 805.5 704.5 c 128,-1,10
 812 701 812 701 817 693 c 128,-1,11
 822 685 822 685 824 671.5 c 128,-1,12
 826 658 826 658 826 637 c 0,13,14
 826 618 826 618 824 604.5 c 128,-1,15
 822 591 822 591 817 582.5 c 128,-1,16
 812 574 812 574 805.5 569.5 c 128,-1,17
 799 565 799 565 792 565 c 2,18,-1
 344 565 l 1,19,-1
 344 371 l 1,20,-1
 549 371 l 2,21,22
 563 371 563 371 571 356.5 c 128,-1,23
 579 342 579 342 579 311 c 0,24,25
 579 277 579 277 570 263.5 c 128,-1,26
 561 250 561 250 549 250 c 2,27,-1
 344 250 l 1,28,-1
 344 26 l 2,29,30
 344 19 344 19 340 12.5 c 128,-1,31
 336 6 336 6 326 2.5 c 128,-1,32
 316 -1 316 -1 300 -3.5 c 128,-1,33
 284 -6 284 -6 258 -6 c 0,34,35
 234 -6 234 -6 217 -3.5 c 128,-1,36
 200 -1 200 -1 190 2.5 c 128,-1,37
 180 6 180 6 176 12.5 c 128,-1,38
 172 19 172 19 172 26 c 2,39,-1
 172 250 l 1,40,-1
 69 250 l 2,41,42
 57 250 57 250 48 263.5 c 128,-1,43
 39 277 39 277 39 311 c 0,44,45
 39 342 39 342 48 356.5 c 128,-1,46
 57 371 57 371 69 371 c 2,47,-1
 172 371 l 1,48,-1
 172 1224 l 2,49,50
 172 1263 172 1263 192.5 1278.5 c 128,-1,51
 213 1294 213 1294 236 1294 c 2,52,-1
 818 1294 l 2,53,54
 825 1294 825 1294 831.5 1290 c 128,-1,55
 838 1286 838 1286 843 1277 c 128,-1,56
 848 1268 848 1268 850 1253.5 c 128,-1,57
 852 1239 852 1239 852 1220 c 256,0,1
EndSplineSet
EndChar

StartChar: lira
Encoding: 8356 8356 27
Width: 1038
GlyphClass: 1
Flags: W
LayerCount: 2
Fore
SplineSet
242 458 m 1,0,-1
 119 458 l 2,1,2
 112 458 112 458 106 461.5 c 128,-1,3
 100 465 100 465 94.5 473 c 128,-1,4
 89 481 89 481 86 493.5 c 128,-1,5
 83 506 83 506 83 526 c 0,6,7
 83 543 83 543 85.5 556 c 128,-1,8
 88 569 88 569 93 577.5 c 128,-1,9
 98 586 98 586 104.5 589.5 c 128,-1,10
 111 593 111 593 119 593 c 2,11,-1
 242 593 l 1,12,-1
 242 728 l 1,13,-1
 119 728 l 2,14,15
 112 728 112 728 106 731.5 c 128,-1,16
 100 735 100 735 94.5 743 c 128,-1,17
 89 751 89 751 86 763.5 c 128,-1,18
 83 776 83 776 83 796 c 0,19,20
 83 813 83 813 85.5 826 c 128,-1,21
 88 839 88 839 93 847.5 c 128,-1,22
 98 856 98 856 104.5 859.5 c 128,-1,23
 111 863 111 863 119 863 c 2,24,-1
 242 863 l 1,25,26
 242 971 242 971 270 1059 c 128,-1,27
 298 1147 298 1147 349.5 1203 c 128,-1,28
 401 1259 401 1259 474 1284.5 c 128,-1,29
 547 1310 547 1310 637 1310 c 0,30,31
 679 1310 679 1310 719.5 1302.5 c 128,-1,32
 760 1295 760 1295 794.5 1282 c 128,-1,33
 829 1269 829 1269 856.5 1252 c 128,-1,34
 884 1235 884 1235 897.5 1222 c 128,-1,35
 911 1209 911 1209 916 1201 c 128,-1,36
 921 1193 921 1193 924 1183 c 128,-1,37
 927 1173 927 1173 928 1161 c 128,-1,38
 929 1149 929 1149 929 1131 c 0,39,40
 929 1114 929 1114 927 1101 c 128,-1,41
 925 1088 925 1088 921 1079.5 c 128,-1,42
 917 1071 917 1071 911.5 1066.5 c 128,-1,43
 906 1062 906 1062 899 1062 c 0,44,45
 885 1062 885 1062 865.5 1079 c 128,-1,46
 846 1096 846 1096 816 1116 c 128,-1,47
 786 1136 786 1136 743.5 1153 c 128,-1,48
 701 1170 701 1170 642 1170 c 0,49,50
 582 1170 582 1170 538.5 1149.5 c 128,-1,51
 495 1129 495 1129 467 1089 c 128,-1,52
 439 1049 439 1049 425 990 c 128,-1,53
 411 931 411 931 411 863 c 1,54,-1
 739 863 l 2,55,56
 747 863 747 863 753.5 859.5 c 128,-1,57
 760 856 760 856 764.5 847.5 c 128,-1,58
 769 839 769 839 771.5 826 c 128,-1,59
 774 813 774 813 774 796 c 0,60,61
 774 776 774 776 771 763.5 c 128,-1,62
 768 751 768 751 763 743 c 128,-1,63
 758 735 758 735 752 731.5 c 128,-1,64
 746 728 746 728 739 728 c 2,65,-1
 411 728 l 1,66,-1
 411 593 l 1,67,-1
 739 593 l 2,68,69
 747 593 747 593 753.5 589.5 c 128,-1,70
 760 586 760 586 764.5 577.5 c 128,-1,71
 769 569 769 569 771.5 556 c 128,-1,72
 774 543 774 543 774 526 c 0,73,74
 774 506 774 506 771 493.5 c 128,-1,75
 768 481 768 481 763 473 c 128,-1,76
 758 465 758 465 752 461.5 c 128,-1,77
 746 458 746 458 739 458 c 2,78,-1
 411 458 l 1,79,-1
 411 139 l 1,80,-1
 915 139 l 2,81,82
 922 139 922 139 928.5 135 c 128,-1,83
 935 131 935 131 940 122.5 c 128,-1,84
 945 114 945 114 947.5 100.5 c 128,-1,85
 950 87 950 87 950 69 c 0,86,87
 950 50 950 50 947 37 c 128,-1,88
 944 24 944 24 939 16 c 128,-1,89
 934 8 934 8 927.5 4 c 128,-1,90
 921 0 921 0 915 0 c 2,91,-1
 119 0 l 2,92,93
 112 0 112 0 106 4 c 128,-1,94
 100 8 100 8 94.5 16 c 128,-1,95
 89 24 89 24 86 37 c 128,-1,96
 83 50 83 50 83 69 c 0,97,98
 83 87 83 87 85.5 100.5 c 128,-1,99
 88 114 88 114 93 122.5 c 128,-1,100
 98 131 98 131 104.5 135 c 128,-1,101
 111 139 111 139 119 139 c 2,102,-1
 242 139 l 1,103,-1
 242 458 l 1,0,-1
EndSplineSet
EndChar

StartChar: peseta
Encoding: 8359 8359 28
Width: 1888
GlyphClass: 1
Flags: W
LayerCount: 2
Fore
SplineSet
1256 76 m 0,0,1
 1256 58 1256 58 1254.5 46 c 128,-1,2
 1253 34 1253 34 1249 26.5 c 128,-1,3
 1245 19 1245 19 1238 14 c 128,-1,4
 1231 9 1231 9 1221 4 c 0,5,6
 1203 -4 1203 -4 1176.5 -8.5 c 128,-1,7
 1150 -13 1150 -13 1125 -13 c 0,8,9
 1016 -13 1016 -13 968.5 44 c 128,-1,10
 921 101 921 101 921 221 c 2,11,-1
 921 597 l 1,12,-1
 839 597 l 2,13,14
 823 597 823 597 814 611 c 128,-1,15
 805 625 805 625 805 657 c 0,16,17
 805 691 805 691 814 704.5 c 128,-1,18
 823 718 823 718 840 718 c 2,19,-1
 921 718 l 1,20,-1
 921 866 l 2,21,22
 921 880 921 880 935.5 889.5 c 128,-1,23
 950 899 950 899 992 899 c 0,24,25
 1035 899 1035 899 1048.5 889.5 c 128,-1,26
 1062 880 1062 880 1062 866 c 2,27,-1
 1062 718 l 1,28,-1
 1222 718 l 2,29,30
 1238 718 1238 718 1247 704.5 c 128,-1,31
 1256 691 1256 691 1256 657 c 0,32,33
 1256 625 1256 625 1247 611 c 128,-1,34
 1238 597 1238 597 1222 597 c 2,35,-1
 1062 597 l 1,36,-1
 1062 239 l 2,37,38
 1062 176 1062 176 1080 143.5 c 128,-1,39
 1098 111 1098 111 1145 111 c 0,40,41
 1165 111 1165 111 1180 115.5 c 128,-1,42
 1195 120 1195 120 1205 124 c 0,43,44
 1222 131 1222 131 1230 131 c 0,45,46
 1241 131 1241 131 1248.5 120 c 128,-1,47
 1256 109 1256 109 1256 76 c 0,0,1
1768 208 m 0,48,49
 1768 155 1768 155 1748.5 114 c 128,-1,50
 1729 73 1729 73 1694 44.5 c 128,-1,51
 1659 16 1659 16 1609.5 1 c 128,-1,52
 1560 -14 1560 -14 1500 -14 c 0,53,54
 1445 -14 1445 -14 1399.5 -2 c 128,-1,55
 1354 10 1354 10 1328 24 c 0,56,57
 1313 32 1313 32 1304 38.5 c 128,-1,58
 1295 45 1295 45 1290 53 c 128,-1,59
 1285 61 1285 61 1283.5 73.5 c 128,-1,60
 1282 86 1282 86 1282 106 c 0,61,62
 1282 139 1282 139 1288.5 152.5 c 128,-1,63
 1295 166 1295 166 1312 166 c 0,64,65
 1327 166 1327 166 1349 150 c 0,66,67
 1372 136 1372 136 1410 119.5 c 128,-1,68
 1448 103 1448 103 1502 103 c 0,69,70
 1558 103 1558 103 1593.5 125.5 c 128,-1,71
 1629 148 1629 148 1629 199 c 0,72,73
 1629 221 1629 221 1618.5 237 c 128,-1,74
 1608 253 1608 253 1590 265.5 c 128,-1,75
 1572 278 1572 278 1548 288 c 128,-1,76
 1524 298 1524 298 1498 309 c 0,77,78
 1463 323 1463 323 1427 339 c 128,-1,79
 1391 355 1391 355 1362 379.5 c 128,-1,80
 1333 404 1333 404 1315 439 c 128,-1,81
 1297 474 1297 474 1297 526 c 0,82,83
 1297 567 1297 567 1312.5 604.5 c 128,-1,84
 1328 642 1328 642 1359.5 670.5 c 128,-1,85
 1391 699 1391 699 1438 715.5 c 128,-1,86
 1485 732 1485 732 1548 732 c 0,87,88
 1577 732 1577 732 1603.5 727 c 128,-1,89
 1630 722 1630 722 1651.5 715.5 c 128,-1,90
 1673 709 1673 709 1689.5 701 c 128,-1,91
 1706 693 1706 693 1714 687 c 0,92,93
 1729 675 1729 675 1732 663 c 128,-1,94
 1735 651 1735 651 1735 625 c 0,95,96
 1735 595 1735 595 1727.5 581.5 c 128,-1,97
 1720 568 1720 568 1706 568 c 0,98,99
 1698 568 1698 568 1692.5 571.5 c 128,-1,100
 1687 575 1687 575 1678 580 c 0,101,102
 1659 591 1659 591 1627 604.5 c 128,-1,103
 1595 618 1595 618 1547 618 c 0,104,105
 1489 618 1489 618 1461 594.5 c 128,-1,106
 1433 571 1433 571 1433 533 c 0,107,108
 1433 510 1433 510 1444.5 493 c 128,-1,109
 1456 476 1456 476 1474.5 463 c 128,-1,110
 1493 450 1493 450 1518 439 c 128,-1,111
 1543 428 1543 428 1570 418 c 0,112,113
 1605 404 1605 404 1640.5 388.5 c 128,-1,114
 1676 373 1676 373 1704.5 349.5 c 128,-1,115
 1733 326 1733 326 1750.5 292 c 128,-1,116
 1768 258 1768 258 1768 208 c 0,48,49
826 915 m 0,117,118
 826 818 826 818 795 740 c 128,-1,119
 764 662 764 662 706 607 c 128,-1,120
 648 552 648 552 564 522 c 128,-1,121
 480 492 480 492 364 492 c 2,122,-1
 329 492 l 1,123,-1
 329 26 l 2,124,125
 329 18 329 18 325 12 c 128,-1,126
 321 6 321 6 312 2.5 c 128,-1,127
 303 -1 303 -1 288 -3.5 c 128,-1,128
 273 -6 273 -6 250 -6 c 0,129,130
 228 -6 228 -6 213 -3.5 c 128,-1,131
 198 -1 198 -1 188.5 2.5 c 128,-1,132
 179 6 179 6 175.5 12 c 128,-1,133
 172 18 172 18 172 26 c 2,134,-1
 172 1220 l 2,135,136
 172 1260 172 1260 192 1277 c 128,-1,137
 212 1294 212 1294 237 1294 c 2,138,-1
 396 1294 l 2,139,140
 436 1294 436 1294 473 1290.5 c 128,-1,141
 510 1287 510 1287 560 1275.5 c 128,-1,142
 610 1264 610 1264 662 1232.5 c 128,-1,143
 714 1201 714 1201 750.5 1155 c 128,-1,144
 787 1109 787 1109 806.5 1048.5 c 128,-1,145
 826 988 826 988 826 915 c 0,117,118
666 901 m 0,146,147
 666 980 666 980 636.5 1033 c 128,-1,148
 607 1086 607 1086 563.5 1112 c 128,-1,149
 520 1138 520 1138 473.5 1145 c 128,-1,150
 427 1152 427 1152 383 1152 c 2,151,-1
 329 1152 l 1,152,-1
 329 633 l 1,153,-1
 379 633 l 2,154,155
 457 633 457 633 508.5 653 c 128,-1,156
 560 673 560 673 595 708.5 c 128,-1,157
 630 744 630 744 648 793.5 c 128,-1,158
 666 843 666 843 666 901 c 0,146,147
EndSplineSet
EndChar

StartChar: Euro
Encoding: 8364 8364 29
Width: 1092
GlyphClass: 1
Flags: W
LayerCount: 2
Fore
SplineSet
1036 183 m 0,0,1
 1036 167 1036 167 1035 155 c 128,-1,2
 1034 143 1034 143 1031.5 134 c 128,-1,3
 1029 125 1029 125 1025 118 c 128,-1,4
 1021 111 1021 111 1011 101 c 128,-1,5
 1001 91 1001 91 969 70.5 c 128,-1,6
 937 50 937 50 889.5 30.5 c 128,-1,7
 842 11 842 11 780.5 -2.5 c 128,-1,8
 719 -16 719 -16 646 -16 c 0,9,10
 520 -16 520 -16 418.5 26 c 128,-1,11
 317 68 317 68 245.5 150 c 128,-1,12
 174 232 174 232 135.5 352.5 c 128,-1,13
 97 473 97 473 97 630 c 0,14,15
 97 791 97 791 138.5 917 c 128,-1,16
 180 1043 180 1043 255 1130.5 c 128,-1,17
 330 1218 330 1218 434.5 1264 c 128,-1,18
 539 1310 539 1310 666 1310 c 0,19,20
 722 1310 722 1310 775 1299.5 c 128,-1,21
 828 1289 828 1289 873 1273 c 128,-1,22
 918 1257 918 1257 953 1236 c 128,-1,23
 988 1215 988 1215 1001.5 1201.5 c 128,-1,24
 1015 1188 1015 1188 1019 1181 c 128,-1,25
 1023 1174 1023 1174 1025.5 1164.5 c 128,-1,26
 1028 1155 1028 1155 1029.5 1142 c 128,-1,27
 1031 1129 1031 1129 1031 1111 c 0,28,29
 1031 1091 1031 1091 1029 1077 c 128,-1,30
 1027 1063 1027 1063 1023 1053.5 c 128,-1,31
 1019 1044 1019 1044 1013.5 1039.5 c 128,-1,32
 1008 1035 1008 1035 1000 1035 c 0,33,34
 986 1035 986 1035 961 1054.5 c 128,-1,35
 936 1074 936 1074 896.5 1097.5 c 128,-1,36
 857 1121 857 1121 800.5 1140.5 c 128,-1,37
 744 1160 744 1160 665 1160 c 0,38,39
 579 1160 579 1160 508.5 1125.5 c 128,-1,40
 438 1091 438 1091 388 1024 c 128,-1,41
 338 957 338 957 310.5 860.5 c 128,-1,42
 283 764 283 764 283 640 c 0,43,44
 283 517 283 517 309.5 422.5 c 128,-1,45
 336 328 336 328 385.5 264.5 c 128,-1,46
 435 201 435 201 507 168.5 c 128,-1,47
 579 136 579 136 670 136 c 0,48,49
 747 136 747 136 804.5 155 c 128,-1,50
 862 174 862 174 902.5 197.5 c 128,-1,51
 943 221 943 221 969 240 c 128,-1,52
 995 259 995 259 1010 259 c 0,53,54
 1017 259 1017 259 1022 256 c 128,-1,55
 1027 253 1027 253 1030 244.5 c 128,-1,56
 1033 236 1033 236 1034.5 221 c 128,-1,57
 1036 206 1036 206 1036 183 c 0,0,1
19 728 m 2,58,59
 12 728 12 728 6 731.5 c 128,-1,60
 0 735 0 735 -5.5 743 c 128,-1,61
 -11 751 -11 751 -14 763.5 c 128,-1,62
 -17 776 -17 776 -17 796 c 0,63,64
 -17 813 -17 813 -14.5 826 c 128,-1,65
 -12 839 -12 839 -7 847.5 c 128,-1,66
 -2 856 -2 856 4.5 859.5 c 128,-1,67
 11 863 11 863 19 863 c 2,68,-1
 639 863 l 2,69,70
 647 863 647 863 653.5 859.5 c 128,-1,71
 660 856 660 856 664.5 847.5 c 128,-1,72
 669 839 669 839 671.5 826 c 128,-1,73
 674 813 674 813 674 796 c 0,74,75
 674 776 674 776 671 763.5 c 128,-1,76
 668 751 668 751 663 743 c 128,-1,77
 658 735 658 735 652 731.5 c 128,-1,78
 646 728 646 728 639 728 c 2,79,-1
 19 728 l 2,58,59
639 593 m 2,80,81
 647 593 647 593 653.5 589.5 c 128,-1,82
 660 586 660 586 664.5 577.5 c 128,-1,83
 669 569 669 569 671.5 556 c 128,-1,84
 674 543 674 543 674 526 c 0,85,86
 674 506 674 506 671 493.5 c 128,-1,87
 668 481 668 481 663 473 c 128,-1,88
 658 465 658 465 652 461.5 c 128,-1,89
 646 458 646 458 639 458 c 2,90,-1
 19 458 l 2,91,92
 12 458 12 458 6 461.5 c 128,-1,93
 0 465 0 465 -5.5 473 c 128,-1,94
 -11 481 -11 481 -14 493.5 c 128,-1,95
 -17 506 -17 506 -17 526 c 0,96,97
 -17 543 -17 543 -14.5 556 c 128,-1,98
 -12 569 -12 569 -7 577.5 c 128,-1,99
 -2 586 -2 586 4.5 589.5 c 128,-1,100
 11 593 11 593 19 593 c 2,101,-1
 639 593 l 2,80,81
EndSplineSet
EndChar

StartChar: uni2116
Encoding: 8470 8470 30
Width: 2271
GlyphClass: 1
Flags: W
LayerCount: 2
Fore
SplineSet
2126 166 m 0,0,1
 2126 128 2126 128 2116.5 110.5 c 128,-1,2
 2107 93 2107 93 2088 93 c 2,3,-1
 1327 93 l 2,4,5
 1308 93 1308 93 1299 110.5 c 128,-1,6
 1290 128 1290 128 1290 166 c 0,7,8
 1290 203 1290 203 1299 220.5 c 128,-1,9
 1308 238 1308 238 1327 238 c 2,10,-1
 2088 238 l 2,11,12
 2097 238 2097 238 2104.5 233.5 c 128,-1,13
 2112 229 2112 229 2116.5 220.5 c 128,-1,14
 2121 212 2121 212 2123.5 198.5 c 128,-1,15
 2126 185 2126 185 2126 166 c 0,0,1
2085 752 m 0,16,17
 2085 657 2085 657 2060 577.5 c 128,-1,18
 2035 498 2035 498 1985.5 440.5 c 128,-1,19
 1936 383 1936 383 1861.5 350.5 c 128,-1,20
 1787 318 1787 318 1689 318 c 0,21,22
 1593 318 1593 318 1522 346.5 c 128,-1,23
 1451 375 1451 375 1404 429 c 128,-1,24
 1357 483 1357 483 1333.5 560.5 c 128,-1,25
 1310 638 1310 638 1310 737 c 0,26,27
 1310 831 1310 831 1334.5 911 c 128,-1,28
 1359 991 1359 991 1408.5 1048.5 c 128,-1,29
 1458 1106 1458 1106 1532 1138 c 128,-1,30
 1606 1170 1606 1170 1705 1170 c 0,31,32
 1801 1170 1801 1170 1872 1141.5 c 128,-1,33
 1943 1113 1943 1113 1990.5 1059 c 128,-1,34
 2038 1005 2038 1005 2061.5 927.5 c 128,-1,35
 2085 850 2085 850 2085 752 c 0,16,17
1935 743 m 0,36,37
 1935 806 1935 806 1923.5 862 c 128,-1,38
 1912 918 1912 918 1885.5 960 c 128,-1,39
 1859 1002 1859 1002 1813 1026.5 c 128,-1,40
 1767 1051 1767 1051 1699 1051 c 0,41,42
 1636 1051 1636 1051 1591 1028.5 c 128,-1,43
 1546 1006 1546 1006 1516.5 965 c 128,-1,44
 1487 924 1487 924 1473 868 c 128,-1,45
 1459 812 1459 812 1459 746 c 0,46,47
 1459 682 1459 682 1470.5 626 c 128,-1,48
 1482 570 1482 570 1509.5 528.5 c 128,-1,49
 1537 487 1537 487 1582.5 462.5 c 128,-1,50
 1628 438 1628 438 1696 438 c 0,51,52
 1758 438 1758 438 1803.5 460.5 c 128,-1,53
 1849 483 1849 483 1878.5 523.5 c 128,-1,54
 1908 564 1908 564 1921.5 620 c 128,-1,55
 1935 676 1935 676 1935 743 c 0,36,37
1150 71 m 2,56,57
 1150 51 1150 51 1143.5 37 c 128,-1,58
 1137 23 1137 23 1126.5 14 c 128,-1,59
 1116 5 1116 5 1103 1 c 128,-1,60
 1090 -3 1090 -3 1077 -3 c 2,61,-1
 1022 -3 l 2,62,63
 996 -3 996 -3 976.5 2.5 c 128,-1,64
 957 8 957 8 939.5 22.5 c 128,-1,65
 922 37 922 37 904.5 62 c 128,-1,66
 887 87 887 87 866 126 c 2,67,-1
 458 862 l 2,68,69
 426 919 426 919 393.5 981.5 c 128,-1,70
 361 1044 361 1044 333 1103 c 1,71,-1
 331 1103 l 1,72,73
 333 1031 333 1031 334 956 c 128,-1,74
 335 881 335 881 335 807 c 2,75,-1
 335 26 l 2,76,77
 335 19 335 19 331 12.5 c 128,-1,78
 327 6 327 6 317.5 2.5 c 128,-1,79
 308 -1 308 -1 292.5 -3.5 c 128,-1,80
 277 -6 277 -6 253 -6 c 256,81,82
 229 -6 229 -6 213.5 -3.5 c 128,-1,83
 198 -1 198 -1 189 2.5 c 128,-1,84
 180 6 180 6 176 12.5 c 128,-1,85
 172 19 172 19 172 26 c 2,86,-1
 172 1220 l 2,87,88
 172 1260 172 1260 194 1277 c 128,-1,89
 216 1294 216 1294 242 1294 c 2,90,-1
 324 1294 l 2,91,92
 353 1294 353 1294 372.5 1289 c 128,-1,93
 392 1284 392 1284 407.5 1272.5 c 128,-1,94
 423 1261 423 1261 437.5 1240.5 c 128,-1,95
 452 1220 452 1220 469 1189 c 2,96,-1
 783 621 l 2,97,98
 812 569 812 569 839 519.5 c 128,-1,99
 866 470 866 470 891 422 c 128,-1,100
 916 374 916 374 940.5 327.5 c 128,-1,101
 965 281 965 281 989 234 c 1,102,-1
 990 234 l 1,103,104
 988 313 988 313 987.5 398.5 c 128,-1,105
 987 484 987 484 987 563 c 2,106,-1
 987 1265 l 2,107,108
 987 1272 987 1272 991 1278 c 128,-1,109
 995 1284 995 1284 1004.5 1288.5 c 128,-1,110
 1014 1293 1014 1293 1029.5 1295 c 128,-1,111
 1045 1297 1045 1297 1070 1297 c 0,112,113
 1092 1297 1092 1297 1108 1295 c 128,-1,114
 1124 1293 1124 1293 1133 1288.5 c 128,-1,115
 1142 1284 1142 1284 1146 1278 c 128,-1,116
 1150 1272 1150 1272 1150 1265 c 2,117,-1
 1150 71 l 2,56,57
EndSplineSet
EndChar

StartChar: trademark
Encoding: 8482 8482 31
Width: 1497
GlyphClass: 1
Flags: W
LayerCount: 2
Fore
SplineSet
1416 720 m 2,0,1
 1416 716 1416 716 1414 712.5 c 128,-1,2
 1412 709 1412 709 1406.5 707.5 c 128,-1,3
 1401 706 1401 706 1393 704.5 c 128,-1,4
 1385 703 1385 703 1372 703 c 256,5,6
 1359 703 1359 703 1350.5 704.5 c 128,-1,7
 1342 706 1342 706 1337 707.5 c 128,-1,8
 1332 709 1332 709 1330 712.5 c 128,-1,9
 1328 716 1328 716 1328 720 c 2,10,-1
 1328 1319 l 1,11,-1
 1326 1319 l 1,12,-1
 1081 717 l 2,13,14
 1080 714 1080 714 1077 711 c 128,-1,15
 1074 708 1074 708 1068.5 706.5 c 128,-1,16
 1063 705 1063 705 1055 704 c 128,-1,17
 1047 703 1047 703 1037 703 c 0,18,19
 1026 703 1026 703 1018 704 c 128,-1,20
 1010 705 1010 705 1004.5 707 c 128,-1,21
 999 709 999 709 996 711.5 c 128,-1,22
 993 714 993 714 992 717 c 2,23,-1
 758 1319 l 1,24,-1
 757 1319 l 1,25,-1
 757 720 l 2,26,27
 757 716 757 716 755 712.5 c 128,-1,28
 753 709 753 709 747.5 707.5 c 128,-1,29
 742 706 742 706 733.5 704.5 c 128,-1,30
 725 703 725 703 712 703 c 256,31,32
 699 703 699 703 690.5 704.5 c 128,-1,33
 682 706 682 706 677 707.5 c 128,-1,34
 672 709 672 709 670 712.5 c 128,-1,35
 668 716 668 716 668 720 c 2,36,-1
 668 1353 l 2,37,38
 668 1375 668 1375 680 1384.5 c 128,-1,39
 692 1394 692 1394 706 1394 c 2,40,-1
 761 1394 l 2,41,42
 778 1394 778 1394 791 1391 c 128,-1,43
 804 1388 804 1388 813.5 1381 c 128,-1,44
 823 1374 823 1374 829.5 1363.5 c 128,-1,45
 836 1353 836 1353 841 1338 c 2,46,-1
 1040 840 l 1,47,-1
 1043 840 l 1,48,-1
 1250 1337 l 2,49,50
 1256 1353 1256 1353 1263 1364 c 128,-1,51
 1270 1375 1270 1375 1278 1381.5 c 128,-1,52
 1286 1388 1286 1388 1296 1391 c 128,-1,53
 1306 1394 1306 1394 1320 1394 c 2,54,-1
 1378 1394 l 2,55,56
 1385 1394 1385 1394 1392.5 1391.5 c 128,-1,57
 1400 1389 1400 1389 1405 1384 c 128,-1,58
 1410 1379 1410 1379 1413 1371.5 c 128,-1,59
 1416 1364 1416 1364 1416 1353 c 2,60,-1
 1416 720 l 2,0,1
600 1355 m 256,61,62
 600 1345 600 1345 598.5 1337.5 c 128,-1,63
 597 1330 597 1330 595 1325.5 c 128,-1,64
 593 1321 593 1321 589.5 1318.5 c 128,-1,65
 586 1316 586 1316 581 1316 c 2,66,-1
 388 1316 l 1,67,-1
 388 720 l 2,68,69
 388 716 388 716 386 712.5 c 128,-1,70
 384 709 384 709 378.5 707.5 c 128,-1,71
 373 706 373 706 364.5 704.5 c 128,-1,72
 356 703 356 703 342 703 c 0,73,74
 330 703 330 703 320.5 704.5 c 128,-1,75
 311 706 311 706 306 707.5 c 128,-1,76
 301 709 301 709 299 712.5 c 128,-1,77
 297 716 297 716 297 720 c 2,78,-1
 297 1316 l 1,79,-1
 103 1316 l 2,80,81
 99 1316 99 1316 95.5 1318.5 c 128,-1,82
 92 1321 92 1321 90 1325.5 c 128,-1,83
 88 1330 88 1330 86.5 1337.5 c 128,-1,84
 85 1345 85 1345 85 1355 c 256,85,86
 85 1365 85 1365 86.5 1372.5 c 128,-1,87
 88 1380 88 1380 90 1385 c 128,-1,88
 92 1390 92 1390 95.5 1392 c 128,-1,89
 99 1394 99 1394 103 1394 c 2,90,-1
 581 1394 l 2,91,92
 586 1394 586 1394 589.5 1392 c 128,-1,93
 593 1390 593 1390 595 1385 c 128,-1,94
 597 1380 597 1380 598.5 1372.5 c 128,-1,95
 600 1365 600 1365 600 1355 c 256,61,62
EndSplineSet
EndChar

StartChar: partialdiff
Encoding: 8706 8706 32
Width: 1014
GlyphClass: 1
Flags: W
LayerCount: 2
Fore
SplineSet
232 537 m 0,0,1
 232 496 232 496 237 458 c 0,2,3
 251 336 251 336 298.5 228 c 128,-1,4
 346 120 346 120 417 63 c 0,5,6
 481 10 481 10 545 10 c 0,7,8
 551 10 551 10 558 11 c 0,9,10
 628 16 628 16 685.5 81.5 c 128,-1,11
 743 147 743 147 766 261 c 0,12,13
 782 334 782 334 782 410 c 0,14,15
 782 452 782 452 777 495 c 0,16,17
 763 617 763 617 714.5 726.5 c 128,-1,18
 666 836 666 836 595 892 c 0,19,20
 530 942 530 942 467 942 c 2,21,-1
 456 942 l 1,22,23
 388 937 388 937 330 872.5 c 128,-1,24
 272 808 272 808 248 694 c 0,25,26
 232 610 232 610 232 537 c 0,0,1
937 477 m 0,27,28
 937 345 937 345 880.5 226 c 128,-1,29
 824 107 824 107 721.5 41 c 128,-1,30
 619 -25 619 -25 507 -25 c 256,31,32
 395 -25 395 -25 292.5 41 c 128,-1,33
 190 107 190 107 133.5 226 c 128,-1,34
 77 345 77 345 77 477 c 0,35,36
 77 608 77 608 135 728 c 128,-1,37
 193 848 193 848 296 913 c 128,-1,38
 399 978 399 978 507 978 c 0,39,40
 616 978 616 978 719 913 c 0,41,42
 748 895 748 895 773 872 c 1,43,44
 689 1107 689 1107 539.5 1249 c 128,-1,45
 390 1391 390 1391 213 1404 c 1,46,-1
 213 1459 l 1,47,48
 519 1459 519 1459 728 1174 c 128,-1,49
 937 889 937 889 937 477 c 0,27,28
EndSplineSet
EndChar

StartChar: Delta
Encoding: 8710 8710 33
Width: 1081
GlyphClass: 1
Flags: W
LayerCount: 2
Fore
SplineSet
514 1195 m 1,0,-1
 108 123 l 1,1,-1
 909 123 l 1,2,-1
 514 1195 l 1,0,-1
547 1434 m 1,3,-1
 1073 0 l 1,4,-1
 6 0 l 1,5,-1
 547 1434 l 1,3,-1
EndSplineSet
EndChar

StartChar: product
Encoding: 8719 8719 34
Width: 1515
GlyphClass: 1
Flags: W
LayerCount: 2
Fore
SplineSet
511 1384 m 2,0,1
 409 1384 409 1384 409 1149 c 2,2,-1
 409 -132 l 2,3,4
 409 -367 409 -367 511 -367 c 2,5,-1
 608 -367 l 1,6,-1
 608 -418 l 1,7,-1
 48 -418 l 1,8,-1
 48 -367 l 1,9,-1
 144 -367 l 2,10,11
 247 -367 247 -367 247 -132 c 2,12,-1
 247 1149 l 2,13,14
 247 1384 247 1384 144 1384 c 2,15,-1
 48 1384 l 1,16,-1
 48 1434 l 1,17,-1
 1467 1434 l 1,18,-1
 1467 1384 l 1,19,-1
 1370 1384 l 2,20,21
 1268 1384 1268 1384 1268 1149 c 2,22,-1
 1268 -132 l 2,23,24
 1268 -367 1268 -367 1370 -367 c 2,25,-1
 1467 -367 l 1,26,-1
 1467 -417 l 1,27,-1
 907 -417 l 1,28,-1
 907 -367 l 1,29,-1
 1003 -367 l 2,30,31
 1106 -367 1106 -367 1106 -132 c 2,32,-1
 1106 1149 l 2,33,34
 1106 1384 1106 1384 1003 1384 c 2,35,-1
 511 1384 l 2,0,1
EndSplineSet
EndChar

StartChar: summation
Encoding: 8721 8721 35
Width: 1206
GlyphClass: 1
Flags: W
LayerCount: 2
Fore
SplineSet
1059 548 m 1,0,-1
 271 -366 l 1,1,-1
 906 -366 l 2,2,3
 1036 -366 1036 -366 1095 -184 c 1,4,-1
 1144 -184 l 1,5,-1
 1041 -416 l 1,6,-1
 120 -416 l 1,7,-1
 120 -366 l 1,8,9
 182 -366 182 -366 226 -313 c 2,10,-1
 889 468 l 1,11,-1
 226 1327 l 2,12,13
 182 1384 182 1384 120 1384 c 1,14,-1
 120 1434 l 1,15,-1
 1041 1434 l 1,16,-1
 1144 1202 l 1,17,-1
 1095 1202 l 1,18,19
 1036 1384 1036 1384 906 1384 c 2,20,-1
 421 1384 l 1,21,-1
 1059 548 l 1,0,-1
EndSplineSet
EndChar

StartChar: minus
Encoding: 8722 8722 36
Width: 1014
GlyphClass: 1
Flags: W
LayerCount: 2
Fore
SplineSet
87 647 m 1,0,-1
 87 787 l 1,1,-1
 926 787 l 1,2,-1
 927 786 l 1,3,-1
 927 647 l 1,4,-1
 87 647 l 1,0,-1
EndSplineSet
EndChar

StartChar: radical
Encoding: 8730 8730 37
Width: 1014
GlyphClass: 1
Flags: W
LayerCount: 2
Fore
SplineSet
181 0 m 1,0,-1
 17 359 l 1,1,-1
 91 394 l 1,2,-1
 176 209 l 1,3,-1
 904 1679 l 1,4,-1
 1054 1679 l 1,5,-1
 1054 1619 l 1,6,-1
 982 1619 l 1,7,-1
 181 0 l 1,0,-1
EndSplineSet
EndChar

StartChar: infinity
Encoding: 8734 8734 38
Width: 1014
GlyphClass: 1
Flags: W
LayerCount: 2
Fore
SplineSet
439 755 m 1,0,1
 424 858 424 858 365 888 c 0,2,3
 319 910 319 910 281 910 c 0,4,5
 269 910 269 910 258 908 c 0,6,7
 209 898 209 898 165.5 863.5 c 128,-1,8
 122 829 122 829 100 779 c 0,9,10
 80 733 80 733 80 689 c 2,11,-1
 80 681 l 2,12,13
 82 633 82 633 107.5 592 c 128,-1,14
 133 551 133 551 179 534 c 0,15,16
 208 523 208 523 240 523 c 0,17,18
 256 523 256 523 273 526 c 0,19,20
 320 536 320 536 363.5 569.5 c 128,-1,21
 407 603 407 603 439 755 c 1,0,1
466 687 m 1,22,23
 478 591 478 591 560 534 c 0,24,25
 629 486 629 486 683 486 c 0,26,27
 694 486 694 486 704 488 c 0,28,29
 766 500 766 500 821.5 540 c 128,-1,30
 877 580 877 580 906 641 c 0,31,32
 932 695 932 695 932 749 c 2,33,-1
 932 760 l 2,34,35
 930 820 930 820 896.5 868.5 c 128,-1,36
 863 917 863 917 805 937 c 0,37,38
 768 950 768 950 729 950 c 0,39,40
 707 950 707 950 685 946 c 0,41,42
 618 937 618 937 558 884 c 128,-1,43
 498 831 498 831 466 687 c 1,22,23
450 827 m 1,44,45
 459 862 459 862 471 896 c 0,46,47
 505 984 505 984 566 1033 c 128,-1,48
 627 1082 627 1082 694 1082 c 256,49,50
 761 1082 761 1082 822 1034 c 128,-1,51
 883 986 883 986 917 899 c 128,-1,52
 951 812 951 812 951 717 c 256,53,54
 951 622 951 622 917 535 c 128,-1,55
 883 448 883 448 822 400 c 128,-1,56
 761 352 761 352 694 352 c 256,57,58
 627 352 627 352 566 401 c 128,-1,59
 505 450 505 450 471 537 c 0,60,61
 459 572 459 572 450 607 c 1,62,63
 445 586 445 586 438 566 c 0,64,65
 411 493 411 493 364 453 c 128,-1,66
 317 413 317 413 265 413 c 256,67,68
 213 413 213 413 165 454 c 128,-1,69
 117 495 117 495 91.5 567.5 c 128,-1,70
 66 640 66 640 66 717 c 0,71,72
 66 793 66 793 91.5 866 c 128,-1,73
 117 939 117 939 165 980 c 128,-1,74
 213 1021 213 1021 265 1021 c 256,75,76
 317 1021 317 1021 364 981 c 128,-1,77
 411 941 411 941 438 869 c 0,78,79
 445 848 445 848 450 827 c 1,44,45
EndSplineSet
EndChar

StartChar: integral
Encoding: 8747 8747 39
Width: 665
GlyphClass: 1
Flags: W
LayerCount: 2
Fore
SplineSet
-12 -281 m 0,0,1
 -72 -281 -72 -281 -72 -252 c 2,2,-1
 -72 -93 l 1,3,-1
 -36 -93 l 1,4,5
 -35 -136 -35 -136 -1.5 -157.5 c 128,-1,6
 32 -179 32 -179 62 -179 c 2,7,-1
 63 -179 l 2,8,9
 145 -179 145 -179 178 -17 c 0,10,11
 210 145 210 145 218 299 c 1,12,-1
 288 1033 l 1,13,-1
 296 1095 l 2,14,15
 323 1333 323 1333 431 1524.5 c 128,-1,16
 539 1716 539 1716 665 1716 c 0,17,18
 725 1716 725 1716 725 1687 c 2,19,-1
 725 1528 l 1,20,-1
 689 1528 l 1,21,22
 688 1571 688 1571 654 1592.5 c 128,-1,23
 620 1614 620 1614 591 1614 c 0,24,25
 520 1614 520 1614 475 1458.5 c 128,-1,26
 430 1303 430 1303 426 1095 c 1,27,-1
 353 328 l 2,28,29
 333 97 333 97 222.5 -92 c 128,-1,30
 112 -281 112 -281 -12 -281 c 0,0,1
EndSplineSet
EndChar

StartChar: approxequal
Encoding: 8776 8776 40
Width: 1014
GlyphClass: 1
Flags: W
LayerCount: 2
Fore
SplineSet
923 1053 m 1,0,-1
 923 897 l 1,1,2
 860 825 860 825 801 799.5 c 128,-1,3
 742 774 742 774 685 774 c 0,4,5
 625 774 625 774 507.5 822.5 c 128,-1,6
 390 871 390 871 331 871 c 0,7,8
 280 871 280 871 223.5 843 c 128,-1,9
 167 815 167 815 94 731 c 1,10,-1
 94 887 l 1,11,12
 158 960 158 960 217 986 c 128,-1,13
 276 1012 276 1012 331 1012 c 0,14,15
 395 1012 395 1012 512.5 962.5 c 128,-1,16
 630 913 630 913 685 913 c 0,17,18
 737 913 737 913 793.5 941 c 128,-1,19
 850 969 850 969 923 1053 c 1,0,-1
923 705 m 1,20,-1
 923 549 l 1,21,22
 860 477 860 477 801 451.5 c 128,-1,23
 742 426 742 426 685 426 c 0,24,25
 625 426 625 426 507.5 474.5 c 128,-1,26
 390 523 390 523 331 523 c 0,27,28
 280 523 280 523 223.5 495 c 128,-1,29
 167 467 167 467 94 383 c 1,30,-1
 94 539 l 1,31,32
 158 612 158 612 217 638 c 128,-1,33
 276 664 276 664 331 664 c 0,34,35
 395 664 395 664 512.5 614.5 c 128,-1,36
 630 565 630 565 685 565 c 0,37,38
 737 565 737 565 793.5 593 c 128,-1,39
 850 621 850 621 923 705 c 1,20,-1
EndSplineSet
EndChar

StartChar: lessequal
Encoding: 8804 8804 41
Width: 1014
GlyphClass: 1
Flags: W
LayerCount: 2
Fore
SplineSet
927 1074 m 1,0,-1
 302 715 l 1,1,-1
 927 360 l 1,2,-1
 927 193 l 1,3,-1
 87 674 l 1,4,-1
 87 757 l 1,5,-1
 927 1241 l 1,6,-1
 927 1074 l 1,0,-1
87 1 m 1,7,-1
 87 141 l 1,8,-1
 926 141 l 1,9,-1
 927 140 l 1,10,-1
 927 1 l 1,11,-1
 87 1 l 1,7,-1
EndSplineSet
EndChar

StartChar: greaterequal
Encoding: 8805 8805 42
Width: 1014
GlyphClass: 1
Flags: W
LayerCount: 2
Fore
SplineSet
87 1241 m 1,0,-1
 927 757 l 1,1,-1
 927 674 l 1,2,-1
 87 193 l 1,3,-1
 87 360 l 1,4,-1
 712 715 l 1,5,-1
 87 1074 l 1,6,-1
 87 1241 l 1,0,-1
87 2 m 1,7,-1
 87 142 l 1,8,-1
 926 142 l 1,9,-1
 927 141 l 1,10,-1
 927 2 l 1,11,-1
 87 2 l 1,7,-1
EndSplineSet
EndChar

StartChar: uniE000
Encoding: 57344 57344 43
Width: 1800
GlyphClass: 1
Flags: W
LayerCount: 2
Fore
SplineSet
260 485 m 0,0,1
 278 486 278 486 297 498 c 0,2,3
 336 522 336 522 338 579 c 0,4,5
 337 651 337 651 255 723 c 1,6,7
 182 651 182 651 179 579 c 1,8,9
 182 522 182 522 220 498 c 0,10,11
 240 486 240 486 260 485 c 0,0,1
1542 485 m 0,12,13
 1561 486 1561 486 1580 498 c 0,14,15
 1619 522 1619 522 1621 579 c 0,16,17
 1620 651 1620 651 1537 723 c 1,18,19
 1465 651 1465 651 1462 579 c 1,20,21
 1465 522 1465 522 1503 498 c 0,22,23
 1523 486 1523 486 1542 485 c 0,12,13
1588 815 m 1,24,25
 1684 719 1684 719 1700 607 c 1,26,-1
 1699 580 l 1,27,28
 1681 393 1681 393 1541 396 c 1,29,30
 1403 393 1403 393 1383 570 c 1,31,-1
 1384 607 l 1,32,33
 1401 726 1401 726 1508 827 c 1,34,-1
 1508 830 l 1,35,-1
 1510 830 l 1,36,-1
 1510 1206 l 2,37,38
 1507 1222 1507 1222 1487 1221 c 2,39,-1
 1312 1221 l 1,40,41
 1240 914 1240 914 1149 914 c 2,42,-1
 1138 914 l 2,43,44
 1080 914 1080 914 952 1031 c 1,45,-1
 952 809 l 1,46,47
 986 797 986 797 1028 757 c 0,48,49
 1104 674 1104 674 1129 539 c 1,50,51
 1149 460 1149 460 1154 383 c 1,52,53
 1119 227 1119 227 1078 127 c 1,54,-1
 1090 127 l 2,55,56
 1147 127 1147 127 1190 57 c 1,57,-1
 1200 38 l 2,58,59
 1210 20 1210 20 1162 0 c 1,60,61
 1069 41 1069 41 998 103 c 1,62,-1
 998 117 l 1,63,64
 1013 285 1013 285 1052 369 c 1,65,-1
 1052 397 l 1,66,67
 989 712 989 712 898 709 c 0,68,69
 732 709 732 709 710 440 c 1,70,71
 719 326 719 326 671 137 c 1,72,73
 776 73 776 73 776 57 c 1,74,75
 812 22 812 22 718 0 c 1,76,77
 618 48 618 48 576 99 c 0,78,79
 535 148 535 148 604 241 c 1,80,81
 618 489 618 489 618 553 c 1,82,83
 658 755 658 755 810 810 c 1,84,-1
 810 1019 l 1,85,86
 788 1004 788 1004 699 965 c 0,87,88
 606 924 606 924 539 924 c 2,89,-1
 526 924 l 2,90,91
 476 924 476 924 299 1178 c 1,92,-1
 299 821 l 1,93,94
 400 723 400 723 417 607 c 1,95,-1
 416 580 l 1,96,97
 398 393 398 393 259 396 c 1,98,99
 120 393 120 393 100 570 c 1,100,-1
 101 607 l 1,101,102
 118 724 118 724 221 823 c 1,103,-1
 221 1239 l 1,104,105
 217 1306 217 1306 291 1302 c 1,106,-1
 810 1302 l 1,107,-1
 810 1482 l 1,108,109
 803 1492 803 1492 800 1495 c 0,110,111
 768 1530 768 1530 768 1581 c 0,112,113
 768 1631 768 1631 800.5 1665.5 c 128,-1,114
 833 1700 833 1700 880 1700 c 2,115,-1
 885 1700 l 2,116,117
 925 1700 925 1700 952 1671 c 1,118,-1
 959 1666 l 1,119,120
 992 1631 992 1631 992 1581 c 0,121,122
 992 1530 992 1530 959 1495 c 0,123,124
 957 1493 957 1493 952 1485 c 1,125,-1
 952 1302 l 1,126,-1
 1518 1302 l 1,127,128
 1591 1306 1591 1306 1588 1239 c 2,129,-1
 1588 815 l 1,24,25
810 1221 m 1,130,-1
 375 1221 l 1,131,-1
 513 1031 l 1,132,133
 517 1004 517 1004 537 1010 c 0,134,135
 741 1083 741 1083 810 1141 c 1,136,-1
 810 1221 l 1,130,-1
1219 1221 m 1,137,-1
 952 1221 l 1,138,-1
 952 1174 l 1,139,140
 991 1093 991 1093 1145 1030 c 1,141,142
 1160 1035 1160 1035 1167 1061 c 2,143,-1
 1219 1221 l 1,137,-1
EndSplineSet
EndChar

StartChar: uniE001
Encoding: 57345 57345 44
Width: 1600
GlyphClass: 1
Flags: W
LayerCount: 2
Fore
SplineSet
241 385 m 0,0,1
 257 385 257 385 274 393 c 0,2,3
 309 409 309 409 312 447 c 1,4,5
 310 495 310 495 236 543 c 1,6,7
 171 495 171 495 169 447 c 0,8,9
 171 409 171 409 206 393 c 0,10,11
 224 385 224 385 241 385 c 0,0,1
1351 385 m 0,12,13
 1367 385 1367 385 1384 393 c 0,14,15
 1420 409 1420 409 1422 447 c 0,16,17
 1421 495 1421 495 1346 543 c 1,18,19
 1281 495 1281 495 1279 447 c 0,20,21
 1281 409 1281 409 1316 393 c 0,22,23
 1334 385 1334 385 1351 385 c 0,12,13
870 722 m 1,24,-1
 871 722 l 1,25,26
 1186 477 1186 477 1183 57 c 1,27,28
 1166 0 1166 0 1116 0 c 0,29,30
 1062 -1 1062 -1 1052 60 c 1,31,32
 1063 339 1063 339 929.5 499 c 128,-1,33
 796 659 796 659 661.5 499 c 128,-1,34
 527 339 527 339 537 57 c 1,35,36
 520 0 520 0 481 0 c 0,37,38
 416 -1 416 -1 406 60 c 1,39,40
 407 477 407 477 729 720 c 1,41,-1
 729 1127 l 1,42,43
 707 1093 707 1093 613 1025 c 0,44,45
 515 954 515 954 448 954 c 2,46,-1
 435 954 l 2,47,48
 384 954 384 954 279 1192 c 1,49,-1
 279 626 l 1,50,51
 373 552 373 552 389 464 c 1,52,-1
 388 444 l 1,53,54
 372 304 372 304 245 307 c 1,55,56
 118 304 118 304 100 436 c 1,57,-1
 101 464 l 1,58,59
 116 547 116 547 201 618 c 1,60,-1
 201 1239 l 1,61,62
 197 1306 197 1306 271 1302 c 1,63,-1
 729 1302 l 1,64,-1
 729 1482 l 1,65,66
 722 1492 722 1492 719 1495 c 0,67,68
 686 1530 686 1530 686 1581 c 0,69,70
 686 1631 686 1631 719 1665.5 c 128,-1,71
 752 1700 752 1700 799 1700 c 2,72,-1
 804 1700 l 2,73,74
 843 1700 843 1700 871 1671 c 1,75,-1
 878 1666 l 1,76,77
 910 1631 910 1631 910 1581 c 0,78,79
 910 1530 910 1530 878 1495 c 0,80,81
 876 1493 876 1493 870 1485 c 1,82,-1
 870 1302 l 1,83,-1
 1322 1302 l 1,84,85
 1395 1306 1395 1306 1392 1239 c 2,86,-1
 1392 623 l 1,87,88
 1484 550 1484 550 1500 464 c 1,89,-1
 1499 444 l 1,90,91
 1482 304 1482 304 1355 307 c 1,92,93
 1228 304 1228 304 1210 436 c 1,94,-1
 1211 464 l 1,95,96
 1226 548 1226 548 1314 619 c 1,97,-1
 1314 1206 l 2,98,99
 1311 1222 1311 1222 1291 1221 c 2,100,-1
 1290 1221 l 1,101,102
 1163 954 1163 954 1068 954 c 2,103,-1
 1057 954 l 2,104,105
 996 954 996 954 870 1101 c 1,106,-1
 870 722 l 1,24,-1
901 1221 m 1,107,108
 952 1154 952 1154 1064 1040 c 1,109,110
 1077 1045 1077 1045 1205 1221 c 1,111,-1
 901 1221 l 1,107,108
682 1221 m 1,112,-1
 352 1221 l 1,113,114
 447 1024 447 1024 466 1030 c 1,115,116
 607 1147 607 1147 682 1221 c 1,112,-1
EndSplineSet
EndChar

StartChar: uniE002
Encoding: 57346 57346 45
Width: 1700
GlyphClass: 1
Flags: W
LayerCount: 2
Fore
SplineSet
784 1479 m 1,0,1
 775 1492 775 1492 771 1496 c 0,2,3
 739 1531 739 1531 739 1581 c 256,4,5
 739 1631 739 1631 771.5 1665.5 c 128,-1,6
 804 1700 804 1700 850 1700 c 2,7,-1
 855 1700 l 2,8,9
 894 1700 894 1700 921 1671 c 1,10,-1
 928 1666 l 1,11,12
 960 1631 960 1631 960 1581 c 256,13,14
 960 1531 960 1531 928 1496 c 0,15,16
 926 1493 926 1493 920 1485 c 1,17,-1
 920 1300 l 1,18,-1
 1290 1300 l 2,19,20
 1534 1298 1534 1298 1586 1048 c 0,21,22
 1612 931 1612 931 1589.5 780 c 128,-1,23
 1567 629 1567 629 1510 532 c 0,24,25
 1462 457 1462 457 1434 532 c 1,26,27
 1496 645 1496 645 1519 773 c 128,-1,28
 1542 901 1542 901 1516 1032 c 1,29,30
 1475 1198 1475 1198 1360 1220 c 1,31,-1
 1329 1220 l 1,32,33
 1383 1009 1383 1009 1371.5 907 c 128,-1,34
 1360 805 1360 805 1289 778 c 1,35,36
 1224 744 1224 744 1023 979 c 1,37,38
 913 1005 913 1005 915 780 c 2,39,-1
 915 721 l 1,40,41
 1237 476 1237 476 1234 57 c 1,42,43
 1218 0 1218 0 1169 0 c 0,44,45
 1115 -1 1115 -1 1105 60 c 1,46,47
 1116 338 1116 338 984.5 497.5 c 128,-1,48
 853 657 853 657 719.5 497.5 c 128,-1,49
 586 338 586 338 596 57 c 1,50,51
 580 0 580 0 541 0 c 0,52,53
 477 -1 477 -1 467 60 c 1,54,55
 468 478 468 478 771 721 c 1,56,-1
 771 780 l 2,57,58
 774 1018 774 1018 663 991 c 1,59,60
 454 671 454 671 388 705 c 1,61,62
 316 732 316 732 304.5 858.5 c 128,-1,63
 293 985 293 985 360 1220 c 1,64,-1
 328 1220 l 1,65,66
 227 1198 227 1198 185 1032 c 1,67,68
 160 901 160 901 183 773 c 128,-1,69
 206 645 206 645 267 532 c 1,70,71
 240 457 240 457 191 532 c 0,72,73
 133 629 133 629 110.5 780 c 128,-1,74
 88 931 88 931 115 1048 c 0,75,76
 167 1298 167 1298 411 1300 c 2,77,-1
 784 1300 l 1,78,-1
 784 1479 l 1,0,1
784 1164 m 1,79,-1
 784 1220 l 1,80,-1
 435 1220 l 1,81,82
 345 976 345 976 381 818 c 1,83,84
 460 784 460 784 584 1037 c 1,85,-1
 586 1036 l 1,86,87
 621 1095 621 1095 659 1117 c 1,88,89
 699 1150 699 1150 777 1164 c 1,90,-1
 784 1164 l 1,79,-1
920 1163 m 1,91,92
 990 1147 990 1147 1027 1117 c 1,93,94
 1074 1090 1074 1090 1117 1006 c 1,95,-1
 1116 1006 l 1,96,97
 1218 857 1218 857 1295 891 c 1,98,99
 1331 1000 1331 1000 1253 1220 c 1,100,-1
 920 1220 l 1,101,-1
 920 1163 l 1,91,92
EndSplineSet
EndChar

StartChar: uniE003
Encoding: 57347 57347 46
Width: 1650
GlyphClass: 1
Flags: W
LayerCount: 2
Fore
SplineSet
759 1115 m 1,0,1
 740 1083 740 1083 725 1062 c 1,2,3
 548 702 548 702 482 702 c 2,4,-1
 469 702 l 1,5,6
 353 672 353 672 333 1259 c 1,7,-1
 278 1259 l 2,8,9
 258 1260 258 1260 255 1244 c 2,10,-1
 255 530 l 1,11,12
 327 476 327 476 330 402 c 1,13,14
 327 310 327 310 271 279.5 c 128,-1,15
 215 249 215 249 160 279.5 c 128,-1,16
 105 310 105 310 100 402 c 1,17,18
 104 477 104 477 179 532 c 1,19,-1
 179 1277 l 1,20,21
 175 1344 175 1344 247 1340 c 1,22,-1
 759 1340 l 1,23,-1
 759 1550 l 1,24,-1
 898 1606 l 1,25,-1
 898 1340 l 1,26,-1
 1404 1340 l 1,27,28
 1475 1344 1475 1344 1472 1277 c 2,29,-1
 1472 532 l 1,30,31
 1548 477 1548 477 1550 402 c 1,32,33
 1547 310 1547 310 1491.5 279.5 c 128,-1,34
 1436 249 1436 249 1380.5 279.5 c 128,-1,35
 1325 310 1325 310 1320 402 c 1,36,37
 1324 476 1324 476 1396 529 c 1,38,-1
 1396 1244 l 2,39,40
 1393 1260 1393 1260 1373 1259 c 2,41,-1
 1296 1259 l 1,42,43
 1241 752 1241 752 1143 752 c 2,44,-1
 1132 752 l 2,45,46
 1072 752 1072 752 898 1086 c 1,47,-1
 898 721 l 1,48,-1
 899 721 l 1,49,50
 1210 476 1210 476 1207 57 c 1,51,52
 1190 0 1190 0 1141 0 c 0,53,54
 1087 -1 1087 -1 1077 60 c 1,55,56
 1088 338 1088 338 956.5 497.5 c 128,-1,57
 825 657 825 657 692.5 497.5 c 128,-1,58
 560 338 560 338 570 57 c 1,59,60
 553 0 553 0 514 0 c 0,61,62
 450 -1 450 -1 440 60 c 1,63,64
 441 476 441 476 759 719 c 1,65,-1
 759 1115 l 1,0,1
898 1255 m 1,66,67
 936 1182 936 1182 1129 868 c 1,68,69
 1199 979 1199 979 1216 1259 c 1,70,-1
 898 1259 l 1,71,-1
 898 1255 l 1,66,67
417 1259 m 1,72,73
 446 809 446 809 468 815.5 c 128,-1,74
 490 822 490 822 510 838 c 1,75,76
 679 1096 679 1096 732 1259 c 1,77,-1
 417 1259 l 1,72,73
717 1665 m 1,78,-1
 625 1593 l 1,79,80
 605 1596 605 1596 610 1616 c 2,81,-1
 616 1637 l 1,82,83
 678 1692 678 1692 692 1690 c 2,84,-1
 702 1689 l 2,85,86
 719 1686 719 1686 717 1665 c 1,78,-1
720 1487 m 1,87,-1
 667 1442 l 1,88,89
 647 1445 647 1445 652 1466 c 1,90,91
 692 1499 692 1499 699 1523 c 1,92,-1
 728 1519 l 1,93,-1
 720 1487 l 1,87,-1
830 1667 m 1,94,-1
 629 1493 l 1,95,96
 609 1496 609 1496 615 1517 c 1,97,98
 685 1607 685 1607 819 1700 c 1,99,100
 836 1698 836 1698 833 1677 c 2,101,-1
 830 1667 l 1,94,-1
870 1621 m 1,102,103
 766 1540 766 1540 763 1530 c 1,104,-1
 746 1543 l 1,105,106
 780 1609 780 1609 861 1665 c 1,107,108
 878 1663 878 1663 876 1642 c 2,109,-1
 870 1621 l 1,102,103
855 1527 m 1,110,-1
 840 1508 l 1,111,-1
 822 1521 l 1,112,113
 828 1542 828 1542 848 1539 c 2,114,-1
 857 1537 l 1,115,-1
 855 1527 l 1,110,-1
937 1557 m 1,116,117
 918 1487 918 1487 809 1427 c 1,118,-1
 799 1428 l 1,119,-1
 802 1438 l 2,120,121
 819 1501 819 1501 937 1557 c 1,116,117
995 1664 m 1,122,123
 901 1563 901 1563 885 1562 c 1,124,-1
 868 1576 l 1,125,126
 931 1684 931 1684 958 1680 c 2,127,-1
 978 1677 l 1,128,-1
 995 1664 l 1,122,123
1016 1589 m 0,129,130
 1014 1584 1014 1584 962 1543 c 1,131,132
 942 1546 942 1546 948 1567 c 2,133,-1
 951 1577 l 1,134,135
 986 1615 986 1615 1002 1613 c 0,136,137
 1018 1610 1018 1610 1016 1589 c 0,129,130
1037 1436 m 1,138,-1
 1006 1398 l 1,139,140
 986 1401 986 1401 991 1422 c 1,141,-1
 1020 1450 l 1,142,-1
 1037 1436 l 1,138,-1
1095 1578 m 1,143,144
 1009 1493 1009 1493 1000 1495 c 2,145,-1
 983 1508 l 1,146,147
 1049 1606 1049 1606 1071 1603 c 2,148,-1
 1081 1601 l 2,149,150
 1098 1599 1098 1599 1095 1578 c 1,143,144
1105 1501 m 1,151,-1
 1077 1473 l 1,152,153
 1057 1476 1057 1476 1063 1497 c 2,154,-1
 1066 1507 l 2,155,156
 1071 1527 1071 1527 1091 1524 c 0,157,158
 1108 1522 1108 1522 1105 1501 c 1,151,-1
1155 1513 m 1,159,160
 1137 1445 1137 1445 1049 1357 c 1,161,162
 1035 1359 1035 1359 1041 1380 c 2,163,-1
 1049 1411 l 1,164,165
 1102 1483 1102 1483 1148 1514 c 1,166,-1
 1155 1513 l 1,159,160
825 1487 m 1,167,-1
 733 1415 l 1,168,169
 713 1418 713 1418 719 1439 c 2,170,-1
 725 1459 l 1,171,172
 787 1514 787 1514 801 1512 c 2,173,-1
 811 1511 l 2,174,175
 828 1508 828 1508 825 1487 c 1,167,-1
1000 1476 m 1,176,-1
 907 1404 l 1,177,178
 888 1407 888 1407 893 1428 c 2,179,-1
 899 1448 l 1,180,181
 961 1503 961 1503 975 1501 c 2,182,-1
 985 1500 l 2,183,184
 1002 1497 1002 1497 1000 1476 c 1,176,-1
952 1391 m 1,185,-1
 936 1371 l 1,186,-1
 919 1384 l 1,187,188
 925 1405 925 1405 945 1402 c 2,189,-1
 954 1401 l 1,190,-1
 952 1391 l 1,185,-1
EndSplineSet
EndChar

StartChar: uniE004
Encoding: 57348 57348 47
Width: 1800
GlyphClass: 1
Flags: W
LayerCount: 2
Fore
SplineSet
401 559 m 1,0,1
 398 771 398 771 286 913 c 1,2,3
 175 771 175 771 170 559 c 1,4,5
 175 347 175 347 286 205 c 1,6,7
 398 347 398 347 401 559 c 1,0,1
1629 559 m 1,8,9
 1626 771 1626 771 1514 913 c 1,10,11
 1403 771 1403 771 1398 559 c 1,12,13
 1403 347 1403 347 1514 205 c 1,14,15
 1626 347 1626 347 1629 559 c 1,8,9
812 1183 m 1,16,17
 805 1172 805 1172 798 1164 c 0,18,19
 620 923 620 923 554 923 c 2,20,-1
 541 923 l 2,21,22
 485 923 485 923 455 1354 c 1,23,-1
 349 1354 l 2,24,25
 329 1355 329 1355 326 1339 c 2,26,-1
 326 995 l 1,27,28
 467 841 467 841 472 582 c 1,29,-1
 472 545 l 1,30,31
 466 253 466 253 286 92 c 1,32,33
 107 253 107 253 100 545 c 1,34,-1
 100 582 l 1,35,36
 106 843 106 843 249 998 c 1,37,-1
 249 1372 l 1,38,39
 245 1439 245 1439 318 1435 c 1,40,-1
 830 1435 l 1,41,42
 831 1459 831 1459 831 1482 c 1,43,44
 825 1492 825 1492 821 1495 c 0,45,46
 789 1530 789 1530 789 1581 c 0,47,48
 789 1631 789 1631 821.5 1665.5 c 128,-1,49
 854 1700 854 1700 902 1700 c 2,50,-1
 907 1700 l 2,51,52
 945 1700 945 1700 973 1671 c 1,53,-1
 979 1666 l 1,54,55
 1012 1631 1012 1631 1012 1581 c 0,56,57
 1012 1530 1012 1530 979 1495 c 0,58,59
 976 1492 976 1492 968 1479 c 1,60,61
 968 1458 968 1458 969 1435 c 1,62,-1
 1481 1435 l 1,63,64
 1553 1439 1553 1439 1550 1372 c 2,65,-1
 1550 1002 l 1,66,-1
 1554 1002 l 1,67,-1
 1554 995 l 1,68,69
 1695 841 1695 841 1700 582 c 1,70,-1
 1700 545 l 1,71,72
 1694 253 1694 253 1514 92 c 1,73,74
 1335 253 1335 253 1328 545 c 1,75,-1
 1328 582 l 1,76,77
 1334 839 1334 839 1473 994 c 1,78,-1
 1473 1339 l 2,79,80
 1470 1355 1470 1355 1450 1354 c 2,81,-1
 1302 1354 l 1,82,83
 1248 976 1248 976 1169 953 c 1,84,-1
 1158 953 l 2,85,86
 1102 953 1102 953 990 1156 c 1,87,88
 1009 993 1009 993 1044 801 c 0,89,90
 1120 380 1120 380 1243 105 c 1,91,92
 1262 34 1262 34 1218 10 c 0,93,94
 1163 -21 1163 -21 1118 42 c 1,95,96
 968 475 968 475 911 1023 c 1,97,-1
 882 1025 l 1,98,99
 829 469 829 469 681 42 c 1,100,101
 636 -21 636 -21 581 10 c 0,102,103
 537 34 537 34 556 105 c 1,104,105
 675 376 675 376 753 799 c 0,106,107
 792 1008 792 1008 812 1183 c 1,16,17
974 1354 m 1,108,109
 1013 1282 1013 1282 1165 1069 c 1,110,111
 1175 1070 1175 1070 1186 1100 c 1,112,-1
 1216 1354 l 1,113,-1
 974 1354 l 1,108,109
549 1354 m 1,114,-1
 558 1050 l 2,115,116
 562 1023 562 1023 582 1039 c 1,117,118
 758 1269 758 1269 827 1353 c 1,119,-1
 827 1354 l 1,120,-1
 549 1354 l 1,114,-1
EndSplineSet
EndChar

StartChar: uniE005
Encoding: 57349 57349 48
Width: 1600
GlyphClass: 1
Flags: W
LayerCount: 2
Fore
SplineSet
240 385 m 0,0,1
 257 386 257 386 274 394 c 0,2,3
 309 409 309 409 312 447 c 1,4,5
 310 495 310 495 236 543 c 1,6,7
 171 495 171 495 169 447 c 0,8,9
 171 409 171 409 206 394 c 0,10,11
 223 386 223 386 240 385 c 0,0,1
1351 385 m 0,12,13
 1368 386 1368 386 1384 394 c 0,14,15
 1419 409 1419 409 1422 447 c 1,16,17
 1420 495 1420 495 1347 543 c 1,18,19
 1281 495 1281 495 1279 447 c 0,20,21
 1281 409 1281 409 1316 394 c 0,22,23
 1333 386 1333 386 1351 385 c 0,12,13
729 1222 m 1,24,-1
 453 1222 l 1,25,-1
 452 921 l 1,26,27
 456 894 456 894 476 900 c 1,28,29
 661 1022 661 1022 729 1110 c 1,30,-1
 729 1222 l 1,24,-1
870 1222 m 1,31,-1
 870 1079 l 1,32,33
 908 1033 908 1033 1094 940 c 1,34,35
 1108 945 1108 945 1115 971 c 1,36,-1
 1142 1222 l 1,37,-1
 870 1222 l 1,31,-1
729 1482 m 1,38,39
 721 1493 721 1493 718 1496 c 0,40,41
 685 1531 685 1531 685 1581 c 256,42,43
 685 1631 685 1631 718 1666 c 128,-1,44
 751 1701 751 1701 798 1701 c 2,45,-1
 804 1701 l 2,46,47
 842 1701 842 1701 870 1672 c 2,48,-1
 876 1666 l 2,49,50
 910 1631 910 1631 910 1581 c 256,51,52
 910 1531 910 1531 876 1496 c 0,53,54
 875 1494 875 1494 870 1488 c 1,55,-1
 870 1303 l 1,56,-1
 1322 1303 l 1,57,58
 1395 1307 1395 1307 1392 1240 c 2,59,-1
 1392 624 l 1,60,61
 1484 550 1484 550 1500 464 c 1,62,-1
 1499 444 l 1,63,64
 1482 305 1482 305 1356 307 c 0,65,66
 1228 305 1228 305 1210 436 c 1,67,-1
 1211 464 l 1,68,69
 1226 548 1226 548 1314 620 c 1,70,-1
 1314 1207 l 2,71,72
 1311 1223 1311 1223 1291 1222 c 2,73,-1
 1222 1222 l 1,74,75
 1203 854 1203 854 1108 854 c 2,76,-1
 1097 854 l 2,77,78
 1036 854 1036 854 870 972 c 1,79,-1
 870 899 l 1,80,-1
 1124 110 l 2,81,82
 1148 40 1148 40 1106 13 c 0,83,84
 1052 -21 1052 -21 1002 38 c 1,85,-1
 796 749 l 1,86,-1
 570 38 l 1,87,88
 521 -21 521 -21 466 13 c 0,89,90
 425 40 425 40 449 110 c 2,91,-1
 729 899 l 1,92,-1
 729 998 l 1,93,94
 545 794 545 794 448 794 c 2,95,-1
 435 794 l 1,96,97
 342 775 342 775 365 1222 c 1,98,-1
 302 1222 l 2,99,100
 282 1223 282 1223 279 1207 c 2,101,-1
 279 626 l 1,102,103
 374 552 374 552 390 464 c 1,104,-1
 389 444 l 1,105,106
 372 305 372 305 245 307 c 0,107,108
 118 305 118 305 100 436 c 1,109,-1
 101 464 l 1,110,111
 115 547 115 547 201 618 c 1,112,-1
 201 1240 l 1,113,114
 197 1307 197 1307 271 1303 c 1,115,-1
 729 1303 l 1,116,-1
 729 1482 l 1,38,39
EndSplineSet
EndChar

StartChar: uniE006
Encoding: 57350 57350 49
Width: 1800
GlyphClass: 1
Flags: W
LayerCount: 2
Fore
SplineSet
833 1224 m 1,0,-1
 833 1225 l 1,1,-1
 411 1225 l 1,2,-1
 434 1167 l 1,3,-1
 611 934 l 1,4,5
 771 1139 771 1139 833 1224 c 1,0,-1
1362 1225 m 1,6,-1
 976 1225 l 1,7,-1
 976 1223 l 1,8,9
 1007 1151 1007 1151 1208 1009 c 1,10,-1
 1349 1174 l 1,11,-1
 1362 1225 l 1,6,-1
317 1218 m 1,12,-1
 282 1218 l 1,13,14
 190 1096 190 1096 172 980 c 0,15,16
 148 839 148 839 195 704 c 1,17,18
 315 790 315 790 358 948 c 1,19,20
 386 1114 386 1114 317 1218 c 1,12,-1
1431 1225 m 1,21,22
 1393 1083 1393 1083 1434 954 c 0,23,24
 1485 798 1485 798 1607 718 c 1,25,26
 1648 855 1648 855 1619 995 c 0,27,28
 1597 1102 1597 1102 1511 1211 c 1,29,30
 1486 1226 1486 1226 1457 1225 c 2,31,-1
 1431 1225 l 1,21,22
833 1093 m 1,32,33
 655 816 655 816 593 816 c 2,34,-1
 569 816 l 1,35,36
 519 856 519 856 437 1031 c 1,37,38
 434 957 434 957 423 903 c 1,39,40
 338 668 338 668 190 593 c 1,41,-1
 175 595 l 1,42,43
 61 735 61 735 117 1023 c 1,44,45
 158 1173 158 1173 237 1278 c 1,46,-1
 242 1277 l 1,47,48
 256 1310 256 1310 307 1308 c 2,49,-1
 833 1308 l 1,50,-1
 833 1641 l 1,51,52
 883 1677 883 1677 928.5 1696 c 128,-1,53
 974 1715 974 1715 976 1641 c 2,54,-1
 976 1308 l 1,55,-1
 1488 1308 l 2,56,57
 1547 1310 1547 1310 1557 1268 c 1,58,59
 1629 1172 1629 1172 1670 1040 c 1,60,61
 1741 756 1741 756 1634 611 c 1,62,-1
 1619 608 l 1,63,64
 1468 675 1468 675 1371 906 c 1,65,66
 1343 1013 1343 1013 1349 1053 c 1,67,-1
 1147 807 l 1,68,-1
 1083 855 l 1,69,-1
 1156 946 l 1,70,71
 1060 989 1060 989 976 1097 c 1,72,-1
 976 773 l 1,73,-1
 1437 165 l 1,74,75
 1466 97 1466 97 1426 66 c 0,76,77
 1374 29 1374 29 1320 86 c 1,78,-1
 976 538 l 1,79,-1
 976 70 l 1,80,81
 957 -1 957 -1 907 0 c 0,82,83
 842 1 842 1 833 78 c 1,84,-1
 833 1093 l 1,32,33
EndSplineSet
EndChar

StartChar: uniE007
Encoding: 57351 57351 50
Width: 1800
GlyphClass: 1
Flags: W
LayerCount: 2
Fore
SplineSet
1629 589 m 1,0,1
 1626 770 1626 770 1514 890 c 1,2,3
 1403 770 1403 770 1398 589 c 1,4,5
 1403 409 1403 409 1514 289 c 1,6,7
 1626 409 1626 409 1629 589 c 1,0,1
401 589 m 1,8,9
 398 770 398 770 286 890 c 1,10,11
 175 770 175 770 170 589 c 1,12,13
 175 409 175 409 286 289 c 1,14,15
 398 409 398 409 401 589 c 1,8,9
830 1194 m 1,16,-1
 830 1261 l 1,17,-1
 349 1261 l 2,18,19
 329 1262 329 1262 326 1246 c 2,20,-1
 326 1161 l 1,21,-1
 526 1040 l 1,22,-1
 550 1029 l 1,23,24
 767 1135 767 1135 830 1194 c 1,16,-1
970 1261 m 1,25,-1
 970 1193 l 1,26,27
 1001 1147 1001 1147 1172 1029 c 1,28,29
 1203 1030 1203 1030 1474 1165 c 1,30,-1
 1474 1246 l 2,31,32
 1471 1262 1471 1262 1451 1261 c 2,33,-1
 970 1261 l 1,25,-1
970 901 m 1,34,-1
 1312 105 l 1,35,36
 1331 34 1331 34 1287 10 c 0,37,38
 1231 -21 1231 -21 1186 42 c 1,39,-1
 900 751 l 1,40,-1
 587 42 l 1,41,42
 542 -21 542 -21 486 10 c 0,43,44
 442 34 442 34 461 105 c 1,45,-1
 830 901 l 1,46,-1
 830 1089 l 1,47,48
 623 923 623 923 562 923 c 2,49,-1
 539 923 l 2,50,51
 484 923 484 923 326 1067 c 1,52,-1
 326 960 l 1,53,54
 467 829 467 829 472 609 c 1,55,-1
 472 577 l 1,56,57
 466 329 466 329 286 192 c 1,58,59
 107 329 107 329 100 577 c 1,60,-1
 100 609 l 1,61,62
 106 831 106 831 249 963 c 1,63,-1
 249 1279 l 1,64,65
 245 1346 245 1346 318 1342 c 1,66,-1
 830 1342 l 1,67,-1
 830 1623 l 1,68,69
 838 1700 838 1700 902 1700 c 0,70,71
 952 1700 952 1700 970 1629 c 1,72,-1
 970 1342 l 1,73,-1
 1482 1342 l 1,74,75
 1554 1346 1554 1346 1551 1279 c 2,76,-1
 1551 963 l 1,77,78
 1695 831 1695 831 1700 609 c 1,79,-1
 1700 577 l 1,80,81
 1694 329 1694 329 1514 192 c 1,82,83
 1335 329 1335 329 1328 577 c 1,84,-1
 1328 609 l 1,85,86
 1334 829 1334 829 1474 960 c 1,87,-1
 1474 1056 l 1,88,89
 1265 923 1265 923 1166 923 c 2,90,-1
 1156 923 l 2,91,92
 1094 923 1094 923 970 1093 c 1,93,-1
 970 901 l 1,34,-1
EndSplineSet
EndChar

StartChar: uniE008
Encoding: 57352 57352 51
Width: 1800
GlyphClass: 1
Flags: W
LayerCount: 2
Fore
SplineSet
1629 589 m 1,0,1
 1626 770 1626 770 1514 890 c 1,2,3
 1403 770 1403 770 1398 589 c 1,4,5
 1403 409 1403 409 1514 289 c 1,6,7
 1626 409 1626 409 1629 589 c 1,0,1
401 589 m 1,8,9
 398 770 398 770 286 890 c 1,10,11
 175 770 175 770 170 589 c 1,12,13
 175 409 175 409 286 289 c 1,14,15
 398 409 398 409 401 589 c 1,8,9
326 1162 m 1,16,-1
 529 1040 l 1,17,-1
 553 1029 l 1,18,19
 770 1135 770 1135 833 1194 c 1,20,-1
 833 1261 l 1,21,-1
 349 1261 l 2,22,23
 329 1262 329 1262 326 1246 c 2,24,-1
 326 1162 l 1,16,-1
973 1261 m 1,25,-1
 973 1193 l 1,26,27
 1004 1147 1004 1147 1175 1029 c 1,28,29
 1206 1030 1206 1030 1474 1166 c 1,30,-1
 1474 1246 l 2,31,32
 1471 1262 1471 1262 1451 1261 c 2,33,-1
 973 1261 l 1,25,-1
973 957 m 1,34,35
 1212 597 1212 597 1281 105 c 1,36,37
 1301 34 1301 34 1257 10 c 0,38,39
 1201 -21 1201 -21 1156 42 c 1,40,41
 1084 558 1084 558 900 811 c 1,42,43
 707 558 707 558 617 42 c 1,44,45
 572 -21 572 -21 517 10 c 0,46,47
 472 34 472 34 491 105 c 1,48,49
 586 600 586 600 830 961 c 1,50,-1
 830 994 l 1,51,-1
 833 994 l 1,52,-1
 833 1089 l 1,53,54
 626 923 626 923 565 923 c 2,55,-1
 542 923 l 2,56,57
 487 923 487 923 326 1070 c 1,58,-1
 326 960 l 1,59,60
 467 829 467 829 472 609 c 1,61,-1
 472 577 l 1,62,63
 466 329 466 329 286 192 c 1,64,65
 107 329 107 329 100 577 c 1,66,-1
 100 609 l 1,67,68
 106 831 106 831 249 963 c 1,69,-1
 249 1279 l 1,70,71
 245 1346 245 1346 318 1342 c 1,72,-1
 833 1342 l 1,73,-1
 833 1481 l 1,74,75
 825 1492 825 1492 822 1495 c 0,76,77
 790 1530 790 1530 790 1581 c 0,78,79
 790 1631 790 1631 822.5 1665.5 c 128,-1,80
 855 1700 855 1700 902 1700 c 2,81,-1
 907 1700 l 2,82,83
 945 1700 945 1700 973 1671 c 1,84,-1
 979 1666 l 1,85,86
 1012 1631 1012 1631 1012 1581 c 0,87,88
 1012 1530 1012 1530 979 1495 c 0,89,90
 977 1493 977 1493 973 1487 c 1,91,-1
 973 1342 l 1,92,-1
 1482 1342 l 1,93,94
 1554 1346 1554 1346 1551 1279 c 2,95,-1
 1551 963 l 1,96,97
 1695 831 1695 831 1700 609 c 1,98,-1
 1700 577 l 1,99,100
 1694 329 1694 329 1514 192 c 1,101,102
 1335 329 1335 329 1328 577 c 1,103,-1
 1328 609 l 1,104,105
 1334 829 1334 829 1474 960 c 1,106,-1
 1474 1056 l 1,107,108
 1268 923 1268 923 1169 923 c 2,109,-1
 1159 923 l 2,110,111
 1097 923 1097 923 973 1093 c 1,112,-1
 973 957 l 1,34,35
EndSplineSet
EndChar

StartChar: uniE009
Encoding: 57353 57353 52
Width: 1800
GlyphClass: 1
Flags: W
LayerCount: 2
Fore
SplineSet
1629 563 m 1,0,1
 1626 775 1626 775 1514 916 c 1,2,3
 1403 775 1403 775 1398 563 c 1,4,5
 1403 353 1403 353 1514 211 c 1,6,7
 1626 353 1626 353 1629 563 c 1,0,1
400 706 m 1,8,9
 397 983 397 983 286 1166 c 1,10,11
 175 983 175 983 170 706 c 1,12,13
 175 430 175 430 286 247 c 1,14,15
 397 430 397 430 400 706 c 1,8,9
973 962 m 1,16,-1
 973 600 l 1,17,-1
 1294 109 l 1,18,19
 1319 39 1319 39 1277 12 c 0,20,21
 1223 -22 1223 -22 1174 37 c 1,22,-1
 900 447 l 1,23,-1
 606 37 l 1,24,25
 557 -22 557 -22 503 12 c 0,26,27
 461 39 461 39 485 109 c 1,28,-1
 833 600 l 1,29,-1
 833 894 l 1,30,-1
 830 894 l 1,31,-1
 830 961 l 1,32,-1
 424 1069 l 1,33,34
 469 923 469 923 471 738 c 2,35,-1
 471 688 l 1,36,37
 465 308 465 308 286 99 c 1,38,39
 107 308 107 308 100 688 c 1,40,-1
 100 738 l 1,41,42
 106 1074 106 1074 255 1275 c 1,43,44
 269 1304 269 1304 318 1302 c 2,45,-1
 833 1302 l 1,46,-1
 833 1481 l 1,47,48
 825 1492 825 1492 822 1495 c 0,49,50
 790 1530 790 1530 790 1580 c 256,51,52
 790 1630 790 1630 822.5 1665 c 128,-1,53
 855 1700 855 1700 902 1700 c 2,54,-1
 907 1700 l 2,55,56
 945 1700 945 1700 973 1671 c 2,57,-1
 979 1665 l 2,58,59
 1012 1630 1012 1630 1012 1580 c 256,60,61
 1012 1530 1012 1530 979 1495 c 0,62,63
 977 1493 977 1493 973 1487 c 1,64,-1
 973 1302 l 1,65,-1
 1482 1302 l 1,66,67
 1554 1306 1554 1306 1551 1239 c 2,68,-1
 1551 997 l 1,69,-1
 1554 997 l 1,70,71
 1695 843 1695 843 1700 587 c 1,72,-1
 1700 549 l 1,73,74
 1694 259 1694 259 1514 99 c 1,75,76
 1335 259 1335 259 1328 549 c 1,77,-1
 1328 587 l 1,78,79
 1334 844 1334 844 1474 997 c 1,80,-1
 1474 1084 l 1,81,-1
 973 962 l 1,16,-1
973 1221 m 1,82,-1
 973 1046 l 1,83,-1
 1474 1165 l 1,84,-1
 1474 1206 l 2,85,86
 1471 1222 1471 1222 1451 1221 c 2,87,-1
 973 1221 l 1,82,-1
833 1068 m 1,88,-1
 833 1221 l 1,89,-1
 359 1221 l 1,90,91
 376 1191 376 1191 390 1159 c 1,92,-1
 830 1045 l 1,93,-1
 830 1068 l 1,94,-1
 833 1068 l 1,88,-1
EndSplineSet
EndChar

StartChar: uniE00A
Encoding: 57354 57354 53
Width: 1800
GlyphClass: 1
Flags: W
LayerCount: 2
Fore
SplineSet
1627 562 m 1,0,1
 1624 773 1624 773 1512 914 c 1,2,3
 1401 773 1401 773 1396 562 c 1,4,5
 1401 352 1401 352 1512 211 c 1,6,7
 1624 352 1624 352 1627 562 c 1,0,1
400 705 m 1,8,9
 397 981 397 981 286 1164 c 1,10,11
 175 981 175 981 170 705 c 1,12,13
 175 429 175 429 286 246 c 1,14,15
 397 429 397 429 400 705 c 1,8,9
969 1218 m 1,16,-1
 969 1043 l 1,17,-1
 1472 1163 l 1,18,-1
 1472 1203 l 2,19,20
 1469 1219 1469 1219 1449 1218 c 2,21,-1
 969 1218 l 1,16,-1
829 1218 m 1,22,-1
 359 1218 l 1,23,24
 376 1188 376 1188 390 1156 c 1,25,-1
 829 1043 l 1,26,-1
 829 1218 l 1,22,-1
1549 995 m 1,27,-1
 1552 995 l 1,28,29
 1693 841 1693 841 1698 586 c 1,30,-1
 1698 548 l 1,31,32
 1692 258 1692 258 1512 99 c 1,33,34
 1333 258 1333 258 1326 548 c 1,35,-1
 1326 586 l 1,36,37
 1332 842 1332 842 1472 995 c 1,38,-1
 1472 1082 l 1,39,-1
 969 959 l 1,40,41
 1210 599 1210 599 1280 105 c 1,42,43
 1299 34 1299 34 1256 10 c 0,44,45
 1200 -21 1200 -21 1155 42 c 1,46,47
 1083 557 1083 557 899 809 c 1,48,49
 706 557 706 557 616 42 c 1,50,51
 571 -21 571 -21 516 10 c 0,52,53
 472 34 472 34 491 105 c 1,54,55
 585 599 585 599 829 959 c 1,56,-1
 424 1066 l 1,57,58
 468 921 468 921 471 736 c 2,59,-1
 471 687 l 1,60,61
 465 307 465 307 286 99 c 1,62,63
 107 307 107 307 100 687 c 1,64,-1
 100 736 l 1,65,66
 106 1072 106 1072 246 1272 c 0,67,68
 269 1302 269 1302 318 1299 c 2,69,-1
 829 1299 l 1,70,-1
 829 1619 l 1,71,72
 837 1696 837 1696 901 1696 c 0,73,74
 951 1696 951 1696 969 1625 c 1,75,-1
 969 1299 l 1,76,-1
 1480 1299 l 1,77,78
 1552 1303 1552 1303 1549 1236 c 2,79,-1
 1549 995 l 1,27,-1
EndSplineSet
EndChar

StartChar: uniE00B
Encoding: 57355 57355 54
Width: 1800
GlyphClass: 1
Flags: W
LayerCount: 2
Fore
SplineSet
426 504 m 1,0,1
 423 734 423 734 301 888 c 1,2,3
 182 734 182 734 176 504 c 1,4,5
 182 275 182 275 301 122 c 1,6,7
 423 275 423 275 426 504 c 1,0,1
1623 504 m 1,8,9
 1620 734 1620 734 1499 888 c 1,10,11
 1379 734 1379 734 1373 504 c 1,12,13
 1379 275 1379 275 1499 122 c 1,14,15
 1620 275 1620 275 1623 504 c 1,8,9
830 1301 m 1,16,-1
 361 1301 l 2,17,18
 341 1302 341 1302 338 1286 c 2,19,-1
 338 1158 l 1,20,21
 572 1012 572 1012 809 1095 c 1,22,23
 823 1199 823 1199 830 1301 c 1,16,-1
831 1483 m 1,24,25
 824 1492 824 1492 821 1496 c 0,26,27
 789 1531 789 1531 789 1581 c 256,28,29
 789 1631 789 1631 821.5 1665.5 c 128,-1,30
 854 1700 854 1700 901 1700 c 2,31,-1
 906 1700 l 2,32,33
 944 1700 944 1700 972 1671 c 1,34,-1
 978 1666 l 1,35,36
 1011 1631 1011 1631 1011 1581 c 256,37,38
 1011 1531 1011 1531 978 1496 c 0,39,40
 975 1493 975 1493 967 1480 c 1,41,-1
 967 1382 l 1,42,-1
 1486 1382 l 1,43,44
 1557 1386 1557 1386 1554 1319 c 2,45,-1
 1554 962 l 1,46,47
 1695 797 1695 797 1700 530 c 1,48,-1
 1700 489 l 1,49,50
 1694 173 1694 173 1499 0 c 1,51,52
 1305 173 1305 173 1297 489 c 1,53,-1
 1297 530 l 1,54,55
 1304 809 1304 809 1478 976 c 1,56,-1
 1478 1066 l 1,57,58
 1231 929 1231 929 1002 990 c 1,59,60
 1022 861 1022 861 1052 731 c 0,61,62
 1117 441 1117 441 1290 106 c 1,63,64
 1309 35 1309 35 1265 11 c 0,65,66
 1210 -20 1210 -20 1165 43 c 1,67,68
 970 378 970 378 912 995 c 1,69,-1
 878 995 l 1,70,71
 823 372 823 372 631 43 c 1,72,73
 586 -20 586 -20 531 11 c 0,74,75
 487 35 487 35 506 106 c 1,76,77
 675 437 675 437 742 729 c 0,78,79
 773 860 773 860 793 988 c 1,80,81
 562 930 562 930 338 1059 c 1,82,-1
 339 976 l 1,83,84
 498 808 498 808 503 530 c 1,85,-1
 503 489 l 1,86,87
 497 173 497 173 301 0 c 1,88,89
 108 173 108 173 100 489 c 1,90,-1
 100 530 l 1,91,92
 107 809 107 809 259 976 c 1,93,-1
 262 976 l 1,94,-1
 262 1319 l 1,95,96
 258 1386 258 1386 330 1382 c 1,97,-1
 831 1382 l 1,98,-1
 831 1483 l 1,24,25
1478 1166 m 1,99,-1
 1478 1286 l 2,100,101
 1475 1302 1475 1302 1455 1301 c 2,102,-1
 967 1301 l 1,103,-1
 966 1293 l 1,104,105
 974 1196 974 1196 986 1097 c 1,106,107
 1221 1011 1221 1011 1478 1166 c 1,99,-1
EndSplineSet
EndChar

StartChar: uniE00C
Encoding: 57356 57356 55
Width: 1800
GlyphClass: 1
Flags: W
LayerCount: 2
Fore
SplineSet
422 504 m 1,0,1
 419 734 419 734 299 888 c 1,2,3
 181 734 181 734 175 504 c 1,4,5
 181 275 181 275 299 122 c 1,6,7
 419 275 419 275 422 504 c 1,0,1
831 1302 m 1,8,-1
 359 1302 l 2,9,10
 339 1303 339 1303 336 1287 c 2,11,-1
 336 1083 l 1,12,-1
 831 1083 l 1,13,-1
 831 1302 l 1,8,-1
969 1302 m 1,14,-1
 969 1083 l 1,15,-1
 1466 1083 l 1,16,-1
 1466 1287 l 2,17,18
 1463 1303 1463 1303 1443 1302 c 2,19,-1
 969 1302 l 1,14,-1
1624 504 m 1,20,21
 1621 734 1621 734 1501 888 c 1,22,23
 1383 734 1383 734 1377 504 c 1,24,25
 1383 275 1383 275 1501 122 c 1,26,27
 1621 275 1621 275 1624 504 c 1,20,21
831 1383 m 1,28,-1
 831 1623 l 1,29,30
 839 1700 839 1700 902 1700 c 0,31,32
 951 1700 951 1700 969 1629 c 1,33,-1
 969 1383 l 1,34,-1
 1473 1383 l 1,35,36
 1544 1387 1544 1387 1541 1320 c 2,37,-1
 1541 976 l 1,38,-1
 1544 976 l 1,39,40
 1695 808 1695 808 1700 530 c 1,41,-1
 1700 489 l 1,42,43
 1694 173 1694 173 1501 0 c 1,44,45
 1310 173 1310 173 1302 489 c 1,46,-1
 1302 530 l 1,47,48
 1309 809 1309 809 1459 976 c 1,49,-1
 1466 976 l 1,50,-1
 1466 1002 l 1,51,-1
 969 1002 l 1,52,-1
 969 601 l 1,53,-1
 1285 110 l 1,54,55
 1309 40 1309 40 1268 13 c 0,56,57
 1215 -21 1215 -21 1167 38 c 1,58,-1
 897 448 l 1,59,-1
 716 38 l 1,60,61
 667 -21 667 -21 614 13 c 0,62,63
 574 40 574 40 598 110 c 1,64,-1
 831 601 l 1,65,-1
 831 1002 l 1,66,-1
 336 1002 l 1,67,-1
 336 976 l 1,68,-1
 342 976 l 1,69,70
 493 808 493 808 498 530 c 1,71,-1
 498 489 l 1,72,73
 492 173 492 173 299 0 c 1,74,75
 108 173 108 173 100 489 c 1,76,-1
 100 530 l 1,77,78
 107 809 107 809 257 976 c 1,79,-1
 261 976 l 1,80,-1
 261 1320 l 1,81,82
 257 1387 257 1387 329 1383 c 1,83,-1
 831 1383 l 1,28,-1
EndSplineSet
EndChar

StartChar: uniE00D
Encoding: 57357 57357 56
Width: 1500
GlyphClass: 1
Flags: W
LayerCount: 2
Fore
SplineSet
1222 912 m 1,0,-1
 1220 914 l 1,1,-1
 1220 913 l 1,2,-1
 1222 912 l 1,0,-1
184 525 m 0,3,4
 186 401 186 401 220.5 354.5 c 128,-1,5
 255 308 255 308 279.5 354.5 c 128,-1,6
 304 401 304 401 307 525 c 1,7,8
 304 650 304 650 243 738 c 1,9,10
 186 650 186 650 184 525 c 0,3,4
1313 505 m 0,11,12
 1311 630 1311 630 1255 718 c 1,13,14
 1194 630 1194 630 1191 505 c 1,15,16
 1194 381 1194 381 1218 334.5 c 128,-1,17
 1242 288 1242 288 1276.5 334.5 c 128,-1,18
 1311 381 1311 381 1313 505 c 0,11,12
679 1382 m 1,19,-1
 679 1623 l 1,20,21
 687 1700 687 1700 752 1700 c 0,22,23
 802 1700 802 1700 820 1629 c 1,24,-1
 820 1382 l 1,25,-1
 1151 1382 l 1,26,27
 1223 1386 1223 1386 1220 1319 c 2,28,-1
 1220 972 l 1,29,-1
 1224 966 l 1,30,31
 1405 704 1405 704 1399 529 c 1,32,-1
 1399 503 l 1,33,34
 1404 327 1404 327 1325.5 258 c 128,-1,35
 1247 189 1247 189 1180 258 c 128,-1,36
 1113 327 1113 327 1107 493 c 1,37,-1
 1107 519 l 1,38,39
 1112 691 1112 691 1219 803 c 1,40,41
 1158 986 1158 986 820 1252 c 1,42,-1
 820 901 l 1,43,-1
 1161 105 l 1,44,45
 1180 34 1180 34 1137 10 c 0,46,47
 1081 -21 1081 -21 1036 42 c 1,48,-1
 750 751 l 1,49,-1
 436 42 l 1,50,51
 391 -21 391 -21 336 10 c 0,52,53
 292 34 292 34 311 105 c 1,54,-1
 679 901 l 1,55,-1
 679 1254 l 1,56,57
 339 989 339 989 278 823 c 1,58,59
 385 711 385 711 390 539 c 1,60,-1
 390 513 l 1,61,62
 384 347 384 347 317 278 c 128,-1,63
 250 209 250 209 172 278 c 128,-1,64
 94 347 94 347 99 523 c 1,65,-1
 99 549 l 1,66,67
 93 722 93 722 269 970 c 1,68,-1
 269 1319 l 1,69,70
 265 1386 265 1386 338 1382 c 1,71,-1
 679 1382 l 1,19,-1
602 1301 m 1,72,-1
 369 1301 l 2,73,74
 349 1302 349 1302 346 1286 c 2,75,-1
 346 1071 l 1,76,77
 476 1229 476 1229 602 1301 c 1,72,-1
1143 1075 m 1,78,-1
 1143 1286 l 2,79,80
 1140 1302 1140 1302 1120 1301 c 2,81,-1
 896 1301 l 1,82,83
 1017 1231 1017 1231 1143 1075 c 1,78,-1
EndSplineSet
EndChar

StartChar: uniE00E
Encoding: 57358 57358 57
Width: 1800
GlyphClass: 1
Flags: W
LayerCount: 2
Fore
SplineSet
574 1259 m 1,0,-1
 574 1033 l 1,1,-1
 839 1164 l 1,2,-1
 839 1261 l 1,3,-1
 623 1260 l 1,4,-1
 623 1261 l 1,5,-1
 596 1261 l 2,6,7
 589 1261 589 1261 584 1260 c 2,8,-1
 576 1259 l 1,9,-1
 574 1259 l 1,0,-1
1227 1016 m 1,10,-1
 1227 1246 l 2,11,12
 1225 1262 1225 1262 1204 1261 c 2,13,-1
 982 1261 l 1,14,-1
 982 1163 l 1,15,-1
 1227 1016 l 1,10,-1
512 962 m 1,16,17
 459 852 459 852 307.5 647 c 128,-1,18
 156 442 156 442 227 372 c 128,-1,19
 298 302 298 302 419.5 420.5 c 128,-1,20
 541 539 541 539 512 962 c 1,16,17
1299 962 m 1,21,22
 1300 629 1300 629 1431.5 475.5 c 128,-1,23
 1563 322 1563 322 1618.5 412 c 128,-1,24
 1674 502 1674 502 1533 617 c 128,-1,25
 1392 732 1392 732 1299 962 c 1,21,22
982 549 m 1,26,27
 1161 200 1161 200 1421 104 c 1,28,29
 1439 33 1439 33 1395 9 c 0,30,31
 1349 -14 1349 -14 1301 27 c 1,32,33
 1054 171 1054 171 905 428 c 1,34,35
 854 253 854 253 485 7 c 0,36,37
 456 -8 456 -8 422 9 c 0,38,39
 377 33 377 33 396 104 c 1,40,41
 750 304 750 304 839 552 c 1,42,-1
 839 1060 l 1,43,-1
 574 926 l 1,44,-1
 574 919 l 1,45,46
 620 505 620 505 537 397 c 1,47,48
 386 176 386 176 191.5 279 c 128,-1,49
 -3 382 -3 382 216 635 c 0,50,51
 478 943 478 943 495 1204 c 1,52,-1
 495 1249 l 1,53,54
 491 1346 491 1346 565 1342 c 1,55,-1
 839 1342 l 1,56,-1
 839 1484 l 1,57,58
 833 1492 833 1492 830 1496 c 0,59,60
 798 1531 798 1531 798 1581 c 256,61,62
 798 1631 798 1631 831 1665.5 c 128,-1,63
 864 1700 864 1700 911 1700 c 2,64,-1
 916 1700 l 2,65,66
 954 1700 954 1700 983 1671 c 2,67,-1
 989 1666 l 1,68,69
 1022 1631 1022 1631 1022 1581 c 256,70,71
 1022 1531 1022 1531 989 1496 c 0,72,73
 987 1493 987 1493 982 1486 c 1,74,-1
 982 1342 l 1,75,-1
 1236 1342 l 1,76,77
 1309 1346 1309 1346 1305 1279 c 1,78,-1
 1305 1095 l 1,79,80
 1333 953 1333 953 1565 715 c 1,81,82
 1764 552 1764 552 1670 359 c 128,-1,83
 1576 166 1576 166 1355 427 c 1,84,85
 1222 614 1222 614 1227 915 c 1,86,-1
 982 1064 l 1,87,-1
 982 549 l 1,26,27
EndSplineSet
EndChar

StartChar: uniE00F
Encoding: 57359 57359 58
Width: 1800
GlyphClass: 1
Flags: W
LayerCount: 2
Fore
SplineSet
310 1245 m 1,0,1
 310 1246 310 1246 309 1247 c 1,2,3
 158 999 158 999 183 738 c 0,4,5
 205 507 205 507 311 493 c 1,6,7
 416 507 416 507 437 738 c 0,8,9
 462 999 462 999 311 1247 c 1,10,11
 311 1246 311 1246 310 1245 c 1,0,1
1512 1258 m 1,12,13
 1512 1259 1512 1259 1511 1260 c 1,14,15
 1375 1047 1375 1047 1397 823 c 0,16,17
 1417 624 1417 624 1513 612 c 1,18,19
 1607 624 1607 624 1625 823 c 0,20,21
 1647 1047 1647 1047 1513 1260 c 1,22,23
 1513 1259 1513 1259 1512 1258 c 1,12,13
833 1342 m 1,24,-1
 833 1482 l 1,25,26
 826 1492 826 1492 823 1495 c 0,27,28
 791 1530 791 1530 791 1580 c 256,29,30
 791 1630 791 1630 823 1665 c 128,-1,31
 855 1700 855 1700 902 1700 c 2,32,-1
 907 1700 l 2,33,34
 946 1700 946 1700 974 1671 c 2,35,-1
 980 1665 l 2,36,37
 1012 1630 1012 1630 1012 1580 c 256,38,39
 1012 1530 1012 1530 980 1495 c 0,40,41
 978 1493 978 1493 973 1485 c 1,42,-1
 973 1342 l 1,43,-1
 1512 1342 l 2,44,45
 1560 1344 1560 1344 1569 1312 c 1,46,47
 1712 1062 1712 1062 1698 799 c 1,48,49
 1651 541 1651 541 1512 532 c 1,50,51
 1373 541 1373 541 1325 799 c 1,52,53
 1322 853 1322 853 1326 907 c 1,54,-1
 973 1124 l 1,55,-1
 973 650 l 1,56,-1
 1324 109 l 1,57,58
 1348 39 1348 39 1307 12 c 0,59,60
 1253 -22 1253 -22 1204 37 c 1,61,-1
 900 497 l 1,62,-1
 576 37 l 1,63,64
 527 -22 527 -22 473 12 c 0,65,66
 432 39 432 39 456 109 c 1,67,-1
 833 650 l 1,68,-1
 833 1126 l 1,69,-1
 510 910 l 1,70,71
 524 810 524 810 519 709 c 1,72,73
 466 410 466 410 310 400 c 1,74,75
 155 410 155 410 101 709 c 1,76,77
 86 1017 86 1017 246 1307 c 1,78,79
 256 1345 256 1345 310 1342 c 2,80,-1
 833 1342 l 1,24,-1
1425 1258 m 1,81,-1
 973 1258 l 1,82,-1
 973 1206 l 1,83,-1
 1334 980 l 1,84,85
 1356 1121 1356 1121 1425 1258 c 1,81,-1
833 1258 m 1,86,-1
 400 1258 l 1,87,88
 467 1122 467 1122 497 982 c 1,89,-1
 833 1208 l 1,90,-1
 833 1258 l 1,86,-1
EndSplineSet
EndChar

StartChar: uniE010
Encoding: 57360 57360 59
Width: 1500
GlyphClass: 1
Flags: W
LayerCount: 2
Fore
SplineSet
552 1261 m 1,0,-1
 200 1261 l 2,1,2
 180 1262 180 1262 177 1246 c 2,3,-1
 177 995 l 1,4,-1
 552 1261 l 1,0,-1
1323 995 m 1,5,-1
 1323 1246 l 2,6,7
 1320 1262 1320 1262 1300 1261 c 2,8,-1
 947 1261 l 1,9,-1
 1323 995 l 1,5,-1
818 1342 m 1,10,-1
 1331 1342 l 1,11,12
 1404 1346 1404 1346 1400 1279 c 1,13,-1
 1400 854 l 1,14,-1
 819 1261 l 1,15,-1
 818 1261 l 1,16,-1
 818 901 l 1,17,-1
 1157 105 l 1,18,19
 1176 34 1176 34 1133 10 c 0,20,21
 1078 -21 1078 -21 1033 42 c 1,22,-1
 748 751 l 1,23,-1
 436 42 l 1,24,25
 391 -21 391 -21 336 10 c 0,26,27
 292 34 292 34 311 105 c 1,28,-1
 678 901 l 1,29,-1
 678 1259 l 1,30,-1
 100 854 l 1,31,-1
 100 1279 l 1,32,33
 96 1346 96 1346 169 1342 c 1,34,-1
 678 1342 l 1,35,-1
 678 1623 l 1,36,37
 686 1700 686 1700 750 1700 c 0,38,39
 800 1700 800 1700 818 1629 c 1,40,-1
 818 1342 l 1,10,-1
EndSplineSet
EndChar

StartChar: uniE011
Encoding: 57361 57361 60
Width: 1500
GlyphClass: 1
Flags: W
LayerCount: 2
Fore
SplineSet
552 1261 m 1,0,-1
 200 1261 l 2,1,2
 180 1262 180 1262 177 1246 c 2,3,-1
 177 995 l 1,4,-1
 552 1261 l 1,0,-1
1323 995 m 1,5,-1
 1323 1246 l 2,6,7
 1320 1262 1320 1262 1300 1261 c 2,8,-1
 947 1261 l 1,9,-1
 1323 995 l 1,5,-1
818 1342 m 1,10,-1
 1331 1342 l 1,11,12
 1404 1346 1404 1346 1400 1279 c 1,13,-1
 1400 854 l 1,14,-1
 819 1261 l 1,15,-1
 818 1261 l 1,16,-1
 818 1001 l 1,17,18
 879 651 879 651 1192 105 c 1,19,20
 1211 34 1211 34 1167 10 c 0,21,22
 1113 -21 1113 -21 1068 42 c 1,23,24
 799 533 799 533 748 751 c 1,25,26
 703 533 703 533 434 42 c 1,27,28
 389 -21 389 -21 334 10 c 0,29,30
 290 34 290 34 309 105 c 1,31,32
 622 651 622 651 678 1001 c 1,33,-1
 678 1259 l 1,34,-1
 100 854 l 1,35,-1
 100 1279 l 1,36,37
 96 1346 96 1346 169 1342 c 1,38,-1
 678 1342 l 1,39,-1
 678 1623 l 1,40,41
 686 1700 686 1700 750 1700 c 0,42,43
 800 1700 800 1700 818 1629 c 1,44,-1
 818 1342 l 1,10,-1
EndSplineSet
EndChar

StartChar: uniE012
Encoding: 57362 57362 61
Width: 1501
GlyphClass: 1
Flags: W
LayerCount: 2
Fore
SplineSet
937 1261 m 1,0,1
 1047 1046 1047 1046 1323 962 c 1,2,-1
 1323 1246 l 2,3,4
 1320 1262 1320 1262 1300 1261 c 2,5,-1
 937 1261 l 1,0,1
200 1261 m 2,6,7
 180 1262 180 1262 177 1246 c 2,8,-1
 177 962 l 1,9,10
 453 1046 453 1046 562 1261 c 1,11,-1
 200 1261 l 2,6,7
819 1261 m 1,12,-1
 819 1001 l 1,13,14
 879 651 879 651 1192 105 c 1,15,16
 1211 34 1211 34 1167 10 c 0,17,18
 1113 -21 1113 -21 1068 42 c 1,19,20
 799 533 799 533 748 751 c 1,21,22
 703 533 703 533 434 42 c 1,23,24
 389 -21 389 -21 334 10 c 0,25,26
 290 34 290 34 309 105 c 1,27,28
 622 651 622 651 683 1001 c 1,29,-1
 683 1261 l 1,30,-1
 652 1261 l 1,31,32
 514 944 514 944 100 854 c 1,33,-1
 100 1279 l 1,34,35
 96 1346 96 1346 169 1342 c 1,36,-1
 683 1342 l 1,37,-1
 683 1475 l 1,38,39
 672 1491 672 1491 668 1495 c 0,40,41
 636 1530 636 1530 636 1581 c 0,42,43
 636 1631 636 1631 668.5 1665.5 c 128,-1,44
 701 1700 701 1700 748 1700 c 2,45,-1
 753 1700 l 2,46,47
 791 1700 791 1700 819 1671 c 1,48,-1
 825 1666 l 1,49,50
 858 1631 858 1631 858 1581 c 0,51,52
 858 1530 858 1530 825 1495 c 0,53,54
 823 1493 823 1493 819 1487 c 1,55,-1
 819 1342 l 1,56,-1
 1331 1342 l 1,57,58
 1402 1346 1402 1346 1400 1279 c 2,59,-1
 1400 854 l 1,60,61
 986 944 986 944 848 1261 c 1,62,-1
 819 1261 l 1,12,-1
EndSplineSet
EndChar

StartChar: uniE013
Encoding: 57363 57363 62
Width: 1500
GlyphClass: 1
Flags: W
LayerCount: 2
Fore
SplineSet
826 1122 m 1,0,-1
 826 691 l 1,1,-1
 1169 105 l 1,2,3
 1188 34 1188 34 1145 10 c 0,4,5
 1089 -21 1089 -21 1043 42 c 1,6,-1
 755 537 l 1,7,-1
 440 42 l 1,8,9
 395 -21 395 -21 340 10 c 0,10,11
 295 34 295 34 314 105 c 1,12,-1
 685 691 l 1,13,-1
 685 1123 l 1,14,15
 381 1086 381 1086 232 801 c 1,16,-1
 231 801 l 1,17,-1
 100 1279 l 1,18,19
 96 1346 96 1346 169 1342 c 1,20,-1
 685 1342 l 1,21,-1
 685 1623 l 1,22,23
 693 1700 693 1700 757 1700 c 0,24,25
 808 1700 808 1700 826 1629 c 1,26,-1
 826 1342 l 1,27,-1
 1330 1342 l 1,28,29
 1404 1346 1404 1346 1400 1279 c 1,30,-1
 1269 801 l 1,31,-1
 1268 801 l 1,32,33
 1121 1080 1121 1080 826 1122 c 1,0,-1
685 1205 m 1,34,-1
 685 1261 l 1,35,-1
 201 1261 l 1,36,-1
 270 994 l 1,37,38
 428 1180 428 1180 685 1205 c 1,34,-1
826 1204 m 1,39,40
 1075 1176 1075 1176 1229 994 c 1,41,-1
 1299 1261 l 1,42,-1
 826 1261 l 1,43,-1
 826 1204 l 1,39,40
EndSplineSet
EndChar

StartChar: uniE014
Encoding: 57364 57364 63
Width: 1800
GlyphClass: 1
Flags: W
LayerCount: 2
Fore
SplineSet
294 464 m 0,0,1
 322 465 322 465 351 480 c 0,2,3
 410 510 410 510 414 582 c 1,4,5
 412 673 412 673 286 764 c 1,6,7
 175 673 175 673 171 582 c 1,8,9
 175 510 175 510 235 480 c 0,10,11
 265 465 265 465 294 464 c 0,0,1
1509 464 m 0,12,13
 1537 465 1537 465 1566 480 c 0,14,15
 1626 510 1626 510 1630 582 c 1,16,17
 1628 673 1628 673 1501 764 c 1,18,19
 1391 673 1391 673 1387 582 c 1,20,21
 1391 510 1391 510 1450 480 c 0,22,23
 1480 465 1480 465 1509 464 c 0,12,13
971 250 m 1,24,-1
 971 72 l 1,25,26
 953 1 953 1 903 1 c 0,27,28
 840 1 840 1 832 78 c 1,29,-1
 832 250 l 1,30,-1
 971 250 l 1,24,-1
832 1162 m 1,31,-1
 832 1261 l 1,32,-1
 350 1261 l 2,33,34
 330 1262 330 1262 327 1246 c 2,35,-1
 327 915 l 1,36,-1
 828 1162 l 1,37,-1
 832 1162 l 1,31,-1
971 1261 m 1,38,-1
 971 1160 l 1,39,-1
 1470 914 l 1,40,-1
 1470 1246 l 2,41,42
 1467 1262 1467 1262 1447 1261 c 2,43,-1
 971 1261 l 1,38,-1
832 1342 m 1,44,-1
 832 1623 l 1,45,46
 840 1700 840 1700 903 1700 c 0,47,48
 953 1700 953 1700 971 1629 c 1,49,-1
 971 1342 l 1,50,-1
 1478 1342 l 1,51,52
 1550 1346 1550 1346 1547 1279 c 2,53,-1
 1547 830 l 1,54,-1
 1549 830 l 1,55,-1
 1549 827 l 1,56,57
 1679 726 1679 726 1700 606 c 1,58,-1
 1699 579 l 1,59,60
 1677 392 1677 392 1508 395 c 1,61,62
 1340 392 1340 392 1316 569 c 1,63,-1
 1317 606 l 1,64,65
 1337 722 1337 722 1459 820 c 1,66,-1
 971 1069 l 1,67,-1
 971 701 l 1,68,-1
 832 701 l 1,69,-1
 832 1071 l 1,70,-1
 828 1071 l 1,71,-1
 340 822 l 1,72,73
 464 723 464 723 484 606 c 1,74,-1
 483 579 l 1,75,76
 461 392 461 392 293 395 c 1,77,78
 124 392 124 392 100 569 c 1,79,-1
 101 606 l 1,80,81
 122 725 122 725 250 825 c 1,82,-1
 250 1279 l 1,83,84
 246 1346 246 1346 319 1342 c 1,85,-1
 832 1342 l 1,44,-1
971 619 m 1,86,-1
 971 550 l 1,87,-1
 1312 105 l 1,88,89
 1331 34 1331 34 1288 10 c 0,90,91
 1232 -21 1232 -21 1187 42 c 2,92,-1
 901 437 l 1,93,-1
 589 42 l 2,94,95
 544 -21 544 -21 489 10 c 0,96,97
 445 34 445 34 464 105 c 1,98,-1
 832 550 l 1,99,-1
 832 619 l 1,100,-1
 971 619 l 1,86,-1
EndSplineSet
EndChar

StartChar: uniE015
Encoding: 57365 57365 64
Width: 1800
GlyphClass: 1
Flags: W
LayerCount: 2
Fore
SplineSet
438 867 m 1,0,1
 434 1087 434 1087 309 1234 c 1,2,3
 184 1087 184 1087 179 867 c 1,4,5
 184 648 184 648 309 501 c 1,6,7
 434 648 434 648 438 867 c 1,0,1
706 1344 m 1,8,-1
 1094 1344 l 1,9,-1
 899 1561 l 1,10,-1
 706 1344 l 1,8,-1
1491 501 m 1,11,12
 1616 648 1616 648 1621 867 c 1,13,14
 1616 1087 1616 1087 1491 1234 c 1,15,16
 1366 1087 1366 1087 1362 867 c 1,17,18
 1366 648 1366 648 1491 501 c 1,11,12
969 907 m 1,19,-1
 969 692 l 1,20,-1
 1310 105 l 1,21,22
 1329 34 1329 34 1286 10 c 0,23,24
 1230 -21 1230 -21 1185 42 c 1,25,-1
 899 538 l 1,26,-1
 586 42 l 1,27,28
 541 -21 541 -21 486 10 c 0,29,30
 442 34 442 34 461 105 c 1,31,-1
 829 692 l 1,32,-1
 829 907 l 1,33,34
 634 928 634 928 497 1043 c 1,35,-1
 515 942 l 1,36,-1
 517 893 l 1,37,-1
 517 853 l 1,38,39
 511 550 511 550 309 384 c 1,40,41
 108 550 108 550 100 853 c 1,42,-1
 100 893 l 1,43,44
 107 1163 107 1163 267 1327 c 0,45,46
 289 1345 289 1345 314 1344 c 2,47,-1
 585 1344 l 1,48,-1
 899 1700 l 1,49,-1
 900 1699 l 1,50,-1
 901 1700 l 1,51,-1
 1215 1344 l 1,52,-1
 1486 1344 l 2,53,54
 1511 1345 1511 1345 1533 1323 c 0,55,56
 1693 1163 1693 1163 1700 893 c 1,57,-1
 1700 853 l 1,58,59
 1692 550 1692 550 1491 384 c 1,60,61
 1289 550 1289 550 1283 853 c 1,62,-1
 1283 893 l 2,63,64
 1284 917 1284 917 1285 939 c 2,65,-1
 1299 1033 l 1,66,67
 1156 927 1156 927 969 907 c 1,19,-1
829 989 m 1,68,-1
 829 1263 l 1,69,-1
 414 1263 l 1,70,71
 416 1258 416 1258 418 1254 c 0,72,73
 564 1024 564 1024 829 989 c 1,68,-1
1384 1259 m 1,74,-1
 1386 1263 l 1,75,-1
 969 1263 l 1,76,-1
 969 989 l 1,77,78
 1238 1024 1238 1024 1384 1259 c 1,74,-1
EndSplineSet
EndChar

StartChar: uniE016
Encoding: 57366 57366 65
Width: 1800
GlyphClass: 1
Flags: W
LayerCount: 2
Fore
SplineSet
438 867 m 1,0,1
 434 1087 434 1087 309 1234 c 1,2,3
 184 1087 184 1087 179 867 c 1,4,5
 184 648 184 648 309 501 c 1,6,7
 434 648 434 648 438 867 c 1,0,1
706 1344 m 1,8,-1
 1094 1344 l 1,9,-1
 899 1561 l 1,10,-1
 706 1344 l 1,8,-1
1491 501 m 1,11,12
 1616 648 1616 648 1621 867 c 1,13,14
 1616 1087 1616 1087 1491 1234 c 1,15,16
 1366 1087 1366 1087 1362 867 c 1,17,18
 1366 648 1366 648 1491 501 c 1,11,12
1319 1084 m 1,19,20
 1346 1158 1346 1158 1406 1263 c 1,21,-1
 969 1263 l 1,22,-1
 969 1084 l 1,23,-1
 1319 1084 l 1,19,20
394 1263 m 1,24,25
 458 1175 458 1175 484 1084 c 1,26,-1
 829 1084 l 1,27,-1
 829 1263 l 1,28,-1
 394 1263 l 1,24,25
502 1003 m 1,29,30
 516 926 516 926 517 893 c 2,31,-1
 517 853 l 1,32,33
 511 550 511 550 309 384 c 1,34,35
 108 550 108 550 100 853 c 1,36,-1
 100 893 l 1,37,38
 107 1163 107 1163 267 1327 c 0,39,40
 289 1345 289 1345 314 1344 c 2,41,-1
 585 1344 l 1,42,-1
 899 1700 l 1,43,-1
 900 1699 l 1,44,-1
 901 1700 l 1,45,-1
 1215 1344 l 1,46,-1
 1486 1344 l 2,47,48
 1511 1345 1511 1345 1533 1323 c 0,49,50
 1693 1163 1693 1163 1700 893 c 1,51,-1
 1700 853 l 1,52,53
 1692 550 1692 550 1491 384 c 1,54,55
 1289 550 1289 550 1283 853 c 1,56,-1
 1283 893 l 2,57,58
 1284 930 1284 930 1297 1003 c 1,59,-1
 969 1003 l 1,60,-1
 969 692 l 1,61,-1
 1310 105 l 1,62,63
 1329 34 1329 34 1286 10 c 0,64,65
 1230 -21 1230 -21 1185 42 c 1,66,-1
 899 538 l 1,67,-1
 586 42 l 1,68,69
 541 -21 541 -21 486 10 c 0,70,71
 442 34 442 34 461 105 c 1,72,-1
 829 692 l 1,73,-1
 829 1003 l 1,74,-1
 502 1003 l 1,29,30
EndSplineSet
EndChar

StartChar: uniE017
Encoding: 57367 57367 66
Width: 1800
GlyphClass: 1
Flags: W
LayerCount: 2
Fore
SplineSet
1629 563 m 1,0,1
 1626 729 1626 729 1514 839 c 1,2,3
 1403 729 1403 729 1398 563 c 1,4,5
 1403 399 1403 399 1514 288 c 1,6,7
 1626 399 1626 399 1629 563 c 1,0,1
401 563 m 1,8,9
 398 729 398 729 286 839 c 1,10,11
 175 729 175 729 170 563 c 1,12,13
 175 399 175 399 286 288 c 1,14,15
 398 399 398 399 401 563 c 1,8,9
970 1263 m 1,16,-1
 970 1163 l 1,17,-1
 1474 913 l 1,18,-1
 1474 1248 l 2,19,20
 1471 1264 1471 1264 1451 1263 c 2,21,-1
 970 1263 l 1,16,-1
1095 1344 m 1,22,-1
 900 1561 l 1,23,-1
 707 1344 l 1,24,-1
 1095 1344 l 1,22,-1
349 1263 m 2,25,26
 329 1264 329 1264 326 1248 c 2,27,-1
 326 913 l 1,28,-1
 829 1164 l 1,29,-1
 830 1164 l 1,30,-1
 830 1263 l 1,31,-1
 349 1263 l 2,25,26
249 1281 m 1,32,33
 245 1348 245 1348 318 1344 c 1,34,-1
 586 1344 l 1,35,-1
 900 1700 l 1,36,-1
 901 1699 l 1,37,-1
 902 1700 l 1,38,-1
 1216 1344 l 1,39,-1
 1482 1344 l 1,40,41
 1554 1348 1554 1348 1551 1281 c 2,42,-1
 1551 907 l 1,43,44
 1695 785 1695 785 1700 582 c 1,45,-1
 1700 552 l 1,46,47
 1694 324 1694 324 1514 200 c 1,48,49
 1335 324 1335 324 1328 552 c 1,50,-1
 1328 582 l 1,51,52
 1332 735 1332 735 1414 841 c 1,53,-1
 970 1072 l 1,54,-1
 970 692 l 1,55,-1
 1312 105 l 1,56,57
 1331 34 1331 34 1287 10 c 0,58,59
 1231 -21 1231 -21 1186 42 c 1,60,-1
 900 538 l 1,61,-1
 587 42 l 1,62,63
 542 -21 542 -21 486 10 c 0,64,65
 442 34 442 34 461 105 c 1,66,-1
 830 692 l 1,67,-1
 830 1073 l 1,68,-1
 829 1073 l 1,69,-1
 385 842 l 1,70,71
 469 736 469 736 472 582 c 2,72,-1
 472 552 l 1,73,74
 466 324 466 324 286 200 c 1,75,76
 107 324 107 324 100 552 c 1,77,-1
 100 582 l 1,78,79
 106 785 106 785 249 907 c 1,80,-1
 249 1281 l 1,32,33
EndSplineSet
EndChar

StartChar: uniE018
Encoding: 57368 57368 67
Width: 1800
GlyphClass: 1
Flags: W
LayerCount: 2
Fore
SplineSet
417 1263 m 1,0,-1
 267 1263 l 1,1,2
 196 1094 196 1094 191 774 c 1,3,4
 198 447 198 447 342 235 c 1,5,6
 487 447 487 447 491 774 c 1,7,8
 488 1094 488 1094 417 1263 c 1,0,-1
1094 1345 m 1,9,-1
 899 1562 l 1,10,-1
 706 1345 l 1,11,-1
 1094 1345 l 1,9,-1
1384 1263 m 1,12,13
 1313 1094 1313 1094 1308 774 c 1,14,15
 1315 447 1315 447 1459 235 c 1,16,17
 1604 447 1604 447 1608 774 c 1,18,19
 1605 1094 1605 1094 1534 1263 c 1,20,-1
 1384 1263 l 1,12,13
528 1263 m 1,21,22
 578 1106 578 1106 582 810 c 1,23,-1
 582 754 l 1,24,25
 574 306 574 306 342 100 c 1,26,27
 109 306 109 306 100 754 c 1,28,-1
 100 810 l 1,29,30
 104 1108 104 1108 154 1264 c 1,31,32
 176 1349 176 1349 229 1345 c 1,33,-1
 585 1345 l 1,34,-1
 899 1700 l 1,35,-1
 900 1699 l 1,36,-1
 901 1700 l 1,37,-1
 1215 1345 l 1,38,-1
 1569 1345 l 1,39,40
 1621 1349 1621 1349 1646 1264 c 0,41,42
 1696 1107 1696 1107 1700 810 c 1,43,-1
 1700 754 l 1,44,45
 1692 306 1692 306 1459 100 c 1,46,47
 1227 306 1227 306 1218 754 c 1,48,-1
 1218 810 l 1,49,50
 1222 1107 1222 1107 1272 1263 c 1,51,-1
 1071 1263 l 1,52,-1
 1251 70 l 1,53,54
 1243 0 1243 0 1196 0 c 0,55,56
 1145 0 1145 0 1139 70 c 1,57,-1
 951 1262 l 1,58,-1
 849 1262 l 1,59,-1
 661 70 l 2,60,61
 653 0 653 0 606 0 c 0,62,63
 555 0 555 0 549 70 c 1,64,-1
 729 1263 l 1,65,-1
 528 1263 l 1,21,22
EndSplineSet
EndChar

StartChar: uniE019
Encoding: 57369 57369 68
Width: 1800
GlyphClass: 1
Flags: W
LayerCount: 2
Fore
SplineSet
1093 1345 m 1,0,-1
 899 1562 l 1,1,-1
 706 1345 l 1,2,-1
 1093 1345 l 1,0,-1
1148 70 m 1,3,4
 1139 0 1139 0 1088 0 c 0,5,6
 1034 0 1034 0 1027 70 c 1,7,-1
 1027 1263 l 1,8,-1
 773 1263 l 1,9,-1
 773 70 l 1,10,11
 764 0 764 0 710 0 c 256,12,13
 656 0 656 0 649 70 c 1,14,-1
 649 1263 l 1,15,-1
 337 1263 l 1,16,17
 328 1258 328 1258 326 1247 c 2,18,-1
 326 479 l 1,19,-1
 459 267 l 1,20,21
 474 217 474 217 448 201 c 1,22,23
 409 184 409 184 383 229 c 2,24,-1
 282 391 l 1,25,-1
 181 229 l 2,26,27
 155 184 155 184 116 201 c 1,28,29
 90 217 90 217 105 267 c 1,30,-1
 242 479 l 1,31,-1
 242 1267 l 1,32,33
 257 1349 257 1349 319 1345 c 1,34,-1
 585 1345 l 1,35,-1
 899 1700 l 1,36,-1
 900 1699 l 1,37,-1
 901 1700 l 1,38,-1
 1214 1345 l 1,39,-1
 1488 1345 l 1,40,41
 1550 1349 1550 1349 1558 1264 c 1,42,-1
 1558 479 l 1,43,-1
 1694 267 l 1,44,45
 1709 217 1709 217 1683 201 c 1,46,47
 1644 184 1644 184 1618 229 c 2,48,-1
 1512 391 l 1,49,-1
 1412 229 l 2,50,51
 1386 184 1386 184 1347 201 c 1,52,53
 1321 217 1321 217 1336 267 c 1,54,-1
 1474 479 l 1,55,-1
 1474 1248 l 2,56,57
 1476 1263 1476 1263 1463 1263 c 2,58,-1
 1148 1263 l 1,59,-1
 1148 70 l 1,3,4
EndSplineSet
EndChar

StartChar: uniE01A
Encoding: 57370 57370 69
Width: 1800
GlyphClass: 1
Flags: W
LayerCount: 2
Fore
SplineSet
1629 564 m 1,0,1
 1626 776 1626 776 1514 918 c 1,2,3
 1403 776 1403 776 1398 564 c 1,4,5
 1403 353 1403 353 1514 212 c 1,6,7
 1626 353 1626 353 1629 564 c 1,0,1
401 564 m 1,8,9
 398 776 398 776 286 918 c 1,10,11
 175 776 175 776 170 564 c 1,12,13
 175 353 175 353 286 212 c 1,14,15
 398 353 398 353 401 564 c 1,8,9
1551 999 m 1,16,-1
 1554 999 l 1,17,18
 1695 844 1695 844 1700 588 c 1,19,-1
 1700 550 l 1,20,21
 1694 259 1694 259 1514 99 c 1,22,23
 1335 259 1335 259 1328 550 c 1,24,-1
 1328 588 l 1,25,26
 1334 845 1334 845 1474 999 c 1,27,-1
 1474 1248 l 2,28,29
 1471 1264 1471 1264 1451 1263 c 2,30,-1
 970 1263 l 1,31,-1
 970 692 l 1,32,-1
 1312 105 l 1,33,34
 1331 34 1331 34 1287 10 c 0,35,36
 1231 -21 1231 -21 1186 42 c 1,37,-1
 900 538 l 1,38,-1
 587 42 l 1,39,40
 542 -21 542 -21 486 10 c 0,41,42
 442 34 442 34 461 105 c 1,43,-1
 830 692 l 1,44,-1
 830 1263 l 1,45,-1
 349 1263 l 2,46,47
 329 1264 329 1264 326 1248 c 2,48,-1
 326 999 l 1,49,50
 467 845 467 845 472 588 c 1,51,-1
 472 550 l 1,52,53
 466 259 466 259 286 99 c 1,54,55
 107 259 107 259 100 550 c 1,56,-1
 100 588 l 1,57,58
 106 848 106 848 249 1003 c 1,59,-1
 249 1281 l 1,60,61
 245 1348 245 1348 318 1344 c 1,62,-1
 586 1344 l 1,63,-1
 900 1700 l 1,64,-1
 901 1699 l 1,65,-1
 902 1700 l 1,66,-1
 1216 1344 l 1,67,-1
 1482 1344 l 1,68,69
 1554 1348 1554 1348 1551 1281 c 2,70,-1
 1551 999 l 1,16,-1
1095 1344 m 1,71,-1
 900 1561 l 1,72,-1
 707 1344 l 1,73,-1
 1095 1344 l 1,71,-1
EndSplineSet
EndChar

StartChar: uniE01B
Encoding: 57371 57371 70
Width: 1800
GlyphClass: 1
Flags: W
LayerCount: 2
Fore
SplineSet
1254 1263 m 1,0,1
 1244 1003 1244 1003 1279 773 c 0,2,3
 1315 556 1315 556 1387 495.5 c 128,-1,4
 1459 435 1459 435 1531.5 495.5 c 128,-1,5
 1604 556 1604 556 1608 773 c 1,6,7
 1605 1093 1605 1093 1534 1263 c 1,8,-1
 1254 1263 l 1,0,1
706 1344 m 1,9,-1
 1094 1344 l 1,10,-1
 899 1561 l 1,11,-1
 706 1344 l 1,9,-1
576 1263 m 1,12,-1
 267 1263 l 1,13,14
 196 1093 196 1093 191 773 c 1,15,16
 198 476 198 476 270 405 c 128,-1,17
 342 334 342 334 424 405 c 128,-1,18
 506 476 506 476 550 773 c 1,19,20
 587 1093 587 1093 576 1263 c 1,12,-1
1569 1344 m 1,21,22
 1621 1348 1621 1348 1646 1264 c 0,23,24
 1696 1106 1696 1106 1700 809 c 1,25,-1
 1700 753 l 1,26,27
 1692 506 1692 506 1575.5 403 c 128,-1,28
 1459 300 1459 300 1343 403 c 128,-1,29
 1227 506 1227 506 1188 753 c 1,30,-1
 1178 809 l 1,31,32
 1152 1016 1152 1016 1161 1263 c 1,33,-1
 969 1263 l 1,34,-1
 969 692 l 1,35,-1
 1309 105 l 1,36,37
 1328 34 1328 34 1286 10 c 0,38,39
 1230 -21 1230 -21 1185 42 c 1,40,-1
 899 538 l 1,41,-1
 586 42 l 1,42,43
 541 -21 541 -21 487 10 c 0,44,45
 443 34 443 34 462 105 c 1,46,-1
 829 692 l 1,47,-1
 829 1263 l 1,48,-1
 668 1263 l 1,49,50
 678 1105 678 1105 642 809 c 1,51,-1
 642 753 l 1,52,53
 594 426 594 426 468 333 c 128,-1,54
 342 240 342 240 225.5 323 c 128,-1,55
 109 406 109 406 100 753 c 1,56,-1
 100 809 l 1,57,58
 104 1107 104 1107 154 1264 c 1,59,60
 176 1348 176 1348 229 1344 c 1,61,-1
 585 1344 l 1,62,-1
 899 1700 l 1,63,-1
 900 1699 l 1,64,-1
 901 1700 l 1,65,-1
 1215 1344 l 1,66,-1
 1569 1344 l 1,21,22
EndSplineSet
EndChar

StartChar: uniE01C
Encoding: 57372 57372 71
Width: 1750
GlyphClass: 1
Flags: W
LayerCount: 2
Fore
SplineSet
234 191 m 1,0,1
 378 246 378 246 455.5 442 c 128,-1,2
 533 638 533 638 459 953 c 1,3,4
 228 769 228 769 184 560 c 0,5,6
 144 369 144 369 214 196 c 1,7,8
 223 193 223 193 234 191 c 1,0,1
1522 240 m 0,9,10
 1592 410 1592 410 1542 589 c 0,11,12
 1493 764 1493 764 1307 938 c 1,13,-1
 1297 936 l 1,14,15
 1229 714 1229 714 1305 518 c 0,16,17
 1380 327 1380 327 1515 237 c 0,18,19
 1518 238 1518 238 1522 240 c 0,9,10
515 1006 m 1,20,-1
 1228 1006 l 1,21,-1
 883 1527 l 1,22,-1
 515 1006 l 1,20,-1
813 907 m 1,23,-1
 566 907 l 1,24,25
 591 790 591 790 583 665 c 1,26,-1
 552 459 l 1,27,28
 483 212 483 212 241 97 c 1,29,30
 211 98 211 98 185 106 c 1,31,32
 62 295 62 295 116 564 c 1,33,34
 160 807 160 807 406 1025 c 1,35,-1
 883 1700 l 1,36,-1
 1333 1033 l 1,37,38
 1511 874 1511 874 1597 652 c 1,39,40
 1711 379 1711 379 1578 158 c 1,41,42
 1563 148 1563 148 1548 143 c 1,43,44
 1362 214 1362 214 1240 465 c 1,45,46
 1226 504 1226 504 1212 560 c 1,47,-1
 1209 560 l 1,48,-1
 1196 660 l 1,49,50
 1186 774 1186 774 1210 907 c 1,51,-1
 954 907 l 1,52,-1
 954 692 l 1,53,-1
 1298 105 l 1,54,55
 1317 34 1317 34 1273 10 c 0,56,57
 1217 -21 1217 -21 1172 42 c 1,58,-1
 883 538 l 1,59,-1
 568 42 l 1,60,61
 522 -21 522 -21 467 10 c 0,62,63
 422 34 422 34 442 105 c 1,64,-1
 813 692 l 1,65,-1
 813 907 l 1,23,-1
EndSplineSet
EndChar

StartChar: uniE01D
Encoding: 57373 57373 72
Width: 1650
GlyphClass: 1
Flags: W
LayerCount: 2
Fore
SplineSet
1297 808 m 1,0,-1
 1450 1114 l 1,1,2
 1447 1129 1447 1129 1429 1128 c 2,3,-1
 1129 1128 l 1,4,-1
 1297 808 l 1,0,-1
359 812 m 1,5,-1
 529 1128 l 1,6,-1
 221 1128 l 2,7,8
 203 1129 203 1129 200 1114 c 1,9,-1
 359 812 l 1,5,-1
1009 1200 m 1,10,-1
 829 1586 l 1,11,-1
 649 1200 l 1,12,-1
 1009 1200 l 1,10,-1
898 1128 m 1,13,-1
 898 1127 l 1,14,-1
 888 1127 l 1,15,-1
 888 618 l 1,16,-1
 1195 94 l 1,17,18
 1212 30 1212 30 1173 9 c 0,19,20
 1122 -19 1122 -19 1081 38 c 1,21,-1
 822 480 l 1,22,-1
 539 38 l 2,23,24
 498 -19 498 -19 448 9 c 0,25,26
 408 30 408 30 426 94 c 1,27,-1
 759 618 l 1,28,-1
 759 1127 l 1,29,-1
 744 1127 l 1,30,-1
 744 1128 l 1,31,-1
 611 1128 l 1,32,-1
 397 718 l 2,33,34
 362 650 362 650 321 727 c 2,35,-1
 100 1144 l 1,36,37
 98 1204 98 1204 163 1200 c 1,38,-1
 566 1200 l 1,39,-1
 787 1664 l 1,40,41
 831 1740 831 1740 871 1663 c 2,42,-1
 1091 1200 l 1,43,-1
 1487 1200 l 1,44,45
 1553 1204 1553 1204 1550 1144 c 1,46,-1
 1340 723 l 2,47,48
 1300 643 1300 643 1259 721 c 2,49,-1
 1047 1128 l 1,50,-1
 898 1128 l 1,13,-1
EndSplineSet
EndChar

StartChar: uniE01E
Encoding: 57374 57374 73
Width: 1800
GlyphClass: 1
Flags: W
LayerCount: 2
Fore
SplineSet
782 872 m 0,0,1
 758 725 758 725 793 597 c 1,2,3
 819 484 819 484 899 378 c 1,4,5
 974 484 974 484 1000 597 c 1,6,7
 1037 725 1037 725 1012.5 871.5 c 128,-1,8
 988 1018 988 1018 899 1157 c 1,9,10
 803 999 803 999 782 872 c 0,0,1
1390 425 m 1,11,12
 1402 351 1402 351 1451 317 c 0,13,14
 1481 296 1481 296 1510 294 c 0,15,16
 1538 296 1538 296 1567 317 c 0,17,18
 1573 321 1573 321 1578 325 c 1,19,-1
 1390 425 l 1,11,12
1621 527 m 1,20,21
 1594 618 1594 618 1502 709 c 1,22,23
 1464 666 1464 666 1438 623 c 1,24,-1
 1621 527 l 1,20,21
1614 374 m 1,25,26
 1628 408 1628 408 1631 454 c 1,27,-1
 1411 570 l 1,28,29
 1396 531 1396 531 1390 492 c 1,30,-1
 1614 374 l 1,25,26
294 294 m 0,31,32
 362 296 362 296 365 459 c 1,33,34
 353 644 353 644 286 709 c 1,35,36
 225 584 225 584 221 459 c 1,37,38
 225 288 225 288 294 294 c 0,31,32
1242 985 m 1,39,-1
 1270 1260 l 1,40,-1
 935 1260 l 1,41,-1
 1242 985 l 1,39,-1
859 1260 m 1,42,-1
 489 1260 l 1,43,-1
 564 985 l 1,44,-1
 859 1260 l 1,42,-1
1428 1261 m 1,45,-1
 1428 1260 l 1,46,-1
 1350 1260 l 1,47,-1
 1311 879 l 1,48,49
 1295 809 1295 809 1225 880 c 1,50,-1
 1052 1039 l 1,51,52
 1092 958 1092 958 1098 925 c 0,53,54
 1135 717 1135 717 1101 602 c 0,55,56
 1058 444 1058 444 958 305 c 1,57,-1
 1161 70 l 2,58,59
 1181 52 1181 52 1164 9 c 1,60,61
 1128 -8 1128 -8 1104 6 c 1,62,-1
 899 229 l 1,63,-1
 690 6 l 1,64,65
 665 -8 665 -8 631 9 c 1,66,67
 611 52 611 52 633 70 c 1,68,-1
 836 305 l 1,69,70
 735 445 735 445 694 602 c 0,71,72
 661 717 661 717 699 925 c 0,73,74
 704 953 704 953 741 1039 c 1,75,-1
 581 880 l 2,76,77
 511 809 511 809 495 882 c 2,78,-1
 400 1260 l 1,79,-1
 348 1260 l 1,80,-1
 348 1261 l 1,81,82
 330 1261 330 1261 327 1246 c 2,83,-1
 327 800 l 1,84,-1
 334 800 l 1,85,-1
 334 796 l 1,86,87
 464 656 464 656 485 492 c 1,88,-1
 484 454 l 1,89,90
 462 195 462 195 293 199 c 1,91,92
 124 195 124 195 100 441 c 1,93,-1
 103 492 l 1,94,95
 122 655 122 655 250 794 c 1,96,-1
 250 1279 l 1,97,98
 246 1346 246 1346 319 1342 c 1,99,-1
 813 1342 l 1,100,-1
 736 1483 l 1,101,-1
 605 1412 l 1,102,103
 573 1411 573 1411 570 1438 c 0,104,105
 570 1456 570 1456 597 1469 c 2,106,-1
 708 1531 l 1,107,-1
 655 1630 l 1,108,-1
 487 1536 l 1,109,110
 454 1536 454 1536 451 1564 c 0,111,112
 451 1581 451 1581 478 1594 c 2,113,-1
 669 1699 l 1,114,115
 700 1708 700 1708 721 1661 c 1,116,-1
 899 1342 l 1,117,-1
 1074 1661 l 1,118,119
 1095 1708 1095 1708 1126 1699 c 1,120,-1
 1317 1594 l 2,121,122
 1344 1581 1344 1581 1344 1564 c 0,123,124
 1341 1536 1341 1536 1308 1536 c 1,125,-1
 1140 1630 l 1,126,-1
 1087 1531 l 1,127,-1
 1198 1469 l 2,128,129
 1226 1456 1226 1456 1225 1438 c 0,130,131
 1222 1411 1222 1411 1190 1412 c 1,132,-1
 1059 1483 l 1,133,-1
 982 1342 l 1,134,-1
 1479 1342 l 1,135,136
 1551 1346 1551 1346 1548 1279 c 2,137,-1
 1548 800 l 1,138,-1
 1550 800 l 1,139,-1
 1550 796 l 1,140,141
 1680 656 1680 656 1699 492 c 1,142,-1
 1700 454 l 1,143,144
 1678 195 1678 195 1509 199 c 1,145,146
 1340 195 1340 195 1316 441 c 1,147,-1
 1317 492 l 1,148,149
 1338 656 1338 656 1468 796 c 1,150,-1
 1468 800 l 1,151,-1
 1471 800 l 1,152,-1
 1471 1246 l 2,153,154
 1468 1262 1468 1262 1448 1261 c 2,155,-1
 1428 1261 l 1,45,-1
EndSplineSet
EndChar

StartChar: uniE01F
Encoding: 57375 57375 74
Width: 1700
GlyphClass: 1
Flags: W
LayerCount: 2
Fore
SplineSet
337 1161 m 1,0,1
 559 1197 559 1197 832 1039 c 1,2,-1
 832 1258 l 1,3,-1
 337 1258 l 1,4,-1
 337 1161 l 1,0,1
291 973 m 1,5,6
 174 809 174 809 182 595 c 0,7,8
 189 380 189 380 290 277 c 1,9,10
 392 380 392 380 400 595 c 0,11,12
 407 809 407 809 291 973 c 1,5,6
1510 973 m 1,13,14
 1393 809 1393 809 1401 595 c 0,15,16
 1408 380 1408 380 1509 277 c 1,17,18
 1611 380 1611 380 1619 595 c 0,19,20
 1626 809 1626 809 1510 973 c 1,13,14
973 1258 m 1,21,-1
 973 1039 l 1,22,23
 1255 1189 1255 1189 1472 1161 c 1,24,-1
 1472 1258 l 1,25,-1
 973 1258 l 1,21,-1
832 939 m 1,26,27
 568 1135 568 1135 337 1089 c 1,28,-1
 337 1039 l 1,29,30
 449 895 449 895 476 693 c 1,31,32
 511 353 511 353 300 151 c 1,33,-1
 296 151 l 1,34,-1
 296 150 l 1,35,-1
 285 150 l 1,36,-1
 285 151 l 1,37,-1
 281 151 l 1,38,39
 70 353 70 353 105 693 c 1,40,41
 133 904 133 904 253 1039 c 1,42,-1
 253 1291 l 1,43,44
 276 1344 276 1344 341 1340 c 1,45,-1
 659 1340 l 1,46,-1
 659 1473 l 1,47,-1
 484 1473 l 1,48,49
 455 1485 455 1485 465 1523 c 1,50,51
 475 1541 475 1541 503 1539 c 2,52,-1
 659 1539 l 1,53,-1
 659 1639 l 1,54,-1
 466 1639 l 1,55,56
 436 1656 436 1656 446 1682 c 0,57,58
 454 1701 454 1701 484 1700 c 2,59,-1
 703 1700 l 1,60,61
 735 1692 735 1692 732 1641 c 2,62,-1
 732 1340 l 1,63,-1
 1073 1340 l 1,64,-1
 1073 1641 l 2,65,66
 1070 1692 1070 1692 1102 1700 c 1,67,-1
 1321 1700 l 2,68,69
 1351 1701 1351 1701 1359 1682 c 0,70,71
 1369 1656 1369 1656 1340 1639 c 1,72,-1
 1146 1639 l 1,73,-1
 1146 1539 l 1,74,-1
 1302 1539 l 2,75,76
 1330 1541 1330 1541 1340 1523 c 1,77,78
 1350 1485 1350 1485 1321 1473 c 1,79,-1
 1146 1473 l 1,80,-1
 1146 1340 l 1,81,-1
 1468 1340 l 1,82,83
 1553 1344 1553 1344 1556 1291 c 2,84,-1
 1556 1034 l 1,85,86
 1668 901 1668 901 1695 693 c 1,87,88
 1730 353 1730 353 1519 151 c 1,89,-1
 1515 151 l 1,90,-1
 1515 150 l 1,91,-1
 1504 150 l 1,92,-1
 1504 151 l 1,93,-1
 1500 151 l 1,94,95
 1289 353 1289 353 1324 693 c 1,96,97
 1352 904 1352 904 1472 1038 c 1,98,-1
 1472 1089 l 1,99,100
 1263 1126 1263 1126 973 939 c 1,101,-1
 973 899 l 1,102,103
 1194 599 1194 599 1314 105 c 0,104,105
 1333 34 1333 34 1290 10 c 0,106,107
 1234 -21 1234 -21 1189 42 c 1,108,109
 1067 557 1067 557 903 749 c 1,110,111
 729 557 729 557 589 42 c 1,112,113
 544 -21 544 -21 489 10 c 0,114,115
 445 34 445 34 464 105 c 0,116,117
 608 599 608 599 832 899 c 1,118,-1
 832 939 l 1,26,27
EndSplineSet
EndChar

StartChar: uniE020
Encoding: 57376 57376 75
Width: 1800
GlyphClass: 1
Flags: W
LayerCount: 2
Fore
SplineSet
1627 561 m 1,0,1
 1624 726 1624 726 1512 836 c 1,2,3
 1401 726 1401 726 1396 561 c 1,4,5
 1401 397 1401 397 1512 287 c 1,6,7
 1624 397 1624 397 1627 561 c 1,0,1
401 561 m 1,8,9
 398 726 398 726 286 836 c 1,10,11
 175 726 175 726 170 561 c 1,12,13
 175 397 175 397 286 287 c 1,14,15
 398 397 398 397 401 561 c 1,8,9
1069 1339 m 1,16,-1
 1069 1640 l 2,17,18
 1066 1691 1066 1691 1098 1699 c 1,19,-1
 1317 1699 l 2,20,21
 1347 1700 1347 1700 1355 1681 c 0,22,23
 1365 1655 1365 1655 1336 1638 c 1,24,-1
 1142 1638 l 1,25,-1
 1142 1538 l 1,26,-1
 1298 1538 l 2,27,28
 1326 1540 1326 1540 1336 1522 c 1,29,30
 1346 1484 1346 1484 1317 1472 c 1,31,-1
 1142 1472 l 1,32,-1
 1142 1339 l 1,33,-1
 1480 1339 l 1,34,35
 1552 1343 1552 1343 1549 1276 c 2,36,-1
 1549 903 l 1,37,38
 1693 782 1693 782 1698 580 c 1,39,-1
 1698 550 l 1,40,41
 1692 323 1692 323 1512 199 c 1,42,43
 1333 323 1333 323 1326 550 c 1,44,-1
 1326 580 l 1,45,46
 1332 780 1332 780 1472 900 c 1,47,-1
 1472 999 l 1,48,-1
 969 999 l 1,49,-1
 969 689 l 1,50,-1
 1310 105 l 1,51,52
 1329 34 1329 34 1286 10 c 0,53,54
 1230 -21 1230 -21 1185 42 c 1,55,-1
 899 536 l 1,56,-1
 586 42 l 1,57,58
 541 -21 541 -21 486 10 c 0,59,60
 442 34 442 34 461 105 c 1,61,-1
 829 689 l 1,62,-1
 829 999 l 1,63,-1
 326 999 l 1,64,-1
 326 900 l 1,65,66
 467 780 467 780 472 580 c 1,67,-1
 472 550 l 1,68,69
 466 323 466 323 286 199 c 1,70,71
 107 323 107 323 100 550 c 1,72,-1
 100 580 l 1,73,74
 106 782 106 782 249 903 c 1,75,-1
 249 1276 l 1,76,77
 245 1343 245 1343 318 1339 c 1,78,-1
 656 1339 l 1,79,-1
 656 1472 l 1,80,-1
 481 1472 l 1,81,82
 452 1484 452 1484 462 1522 c 1,83,84
 472 1540 472 1540 500 1538 c 2,85,-1
 656 1538 l 1,86,-1
 656 1638 l 1,87,-1
 463 1638 l 1,88,89
 433 1655 433 1655 443 1681 c 0,90,91
 451 1700 451 1700 481 1699 c 2,92,-1
 700 1699 l 1,93,94
 732 1691 732 1691 729 1640 c 2,95,-1
 729 1339 l 1,96,-1
 1069 1339 l 1,16,-1
1205 1258 m 1,97,-1
 1205 1257 l 1,98,-1
 969 1257 l 1,99,-1
 969 1080 l 1,100,-1
 1472 1080 l 1,101,-1
 1472 1243 l 2,102,103
 1469 1259 1469 1259 1449 1258 c 2,104,-1
 1205 1258 l 1,97,-1
829 1257 m 1,105,-1
 621 1257 l 1,106,-1
 621 1258 l 1,107,-1
 349 1258 l 2,108,109
 329 1259 329 1259 326 1243 c 2,110,-1
 326 1080 l 1,111,-1
 829 1080 l 1,112,-1
 829 1257 l 1,105,-1
EndSplineSet
EndChar

StartChar: uniE021
Encoding: 57377 57377 76
Width: 1800
GlyphClass: 1
Flags: W
LayerCount: 2
Fore
SplineSet
1629 561 m 1,0,1
 1626 726 1626 726 1514 836 c 1,2,3
 1403 726 1403 726 1398 561 c 1,4,5
 1403 397 1403 397 1514 287 c 1,6,7
 1626 397 1626 397 1629 561 c 1,0,1
401 561 m 1,8,9
 398 726 398 726 286 836 c 1,10,11
 175 726 175 726 170 561 c 1,12,13
 175 397 175 397 286 287 c 1,14,15
 398 397 398 397 401 561 c 1,8,9
830 1018 m 1,16,17
 610 1018 610 1018 390 833 c 1,18,19
 469 728 469 728 472 580 c 2,20,-1
 472 550 l 1,21,22
 466 323 466 323 286 199 c 1,23,24
 107 323 107 323 100 550 c 1,25,-1
 100 580 l 1,26,27
 106 782 106 782 249 903 c 1,28,-1
 249 1277 l 1,29,30
 245 1344 245 1344 318 1340 c 1,31,-1
 779 1340 l 1,32,33
 732 1386 732 1386 702 1473 c 1,34,-1
 527 1473 l 1,35,36
 497 1485 497 1485 508 1523 c 1,37,38
 518 1541 518 1541 546 1539 c 2,39,-1
 692 1539 l 1,40,-1
 682 1639 l 1,41,-1
 509 1639 l 1,42,43
 478 1656 478 1656 468 1682 c 1,44,45
 476 1701 476 1701 507 1700 c 2,46,-1
 726 1700 l 1,47,48
 758 1692 758 1692 755 1641 c 1,49,50
 759 1470 759 1470 829.5 1390 c 128,-1,51
 900 1310 900 1310 967.5 1390 c 128,-1,52
 1035 1470 1035 1470 1035 1641 c 0,53,54
 1032 1692 1032 1692 1064 1700 c 1,55,-1
 1283 1700 l 2,56,57
 1314 1701 1314 1701 1322 1682 c 0,58,59
 1332 1656 1332 1656 1303 1639 c 1,60,-1
 1108 1639 l 1,61,-1
 1098 1539 l 1,62,-1
 1264 1539 l 2,63,64
 1292 1541 1292 1541 1303 1523 c 0,65,66
 1321 1485 1321 1485 1283 1473 c 1,67,-1
 1088 1473 l 1,68,69
 1067 1368 1067 1368 1018 1340 c 1,70,-1
 1482 1340 l 1,71,72
 1554 1344 1554 1344 1551 1277 c 2,73,-1
 1551 903 l 1,74,75
 1695 782 1695 782 1700 580 c 1,76,-1
 1700 550 l 1,77,78
 1694 323 1694 323 1514 199 c 1,79,80
 1335 323 1335 323 1328 550 c 1,81,-1
 1328 580 l 1,82,83
 1332 727 1332 727 1409 831 c 1,84,85
 1192 1013 1192 1013 970 1018 c 1,86,-1
 970 689 l 1,87,-1
 1312 105 l 1,88,89
 1331 34 1331 34 1287 10 c 0,90,91
 1231 -21 1231 -21 1186 42 c 1,92,-1
 900 536 l 1,93,-1
 587 42 l 1,94,95
 542 -21 542 -21 486 10 c 0,96,97
 442 34 442 34 461 105 c 1,98,-1
 830 689 l 1,99,-1
 830 1018 l 1,16,17
970 1108 m 1,100,101
 1267 1085 1267 1085 1463 891 c 1,102,-1
 1474 900 l 1,103,-1
 1474 1244 l 2,104,105
 1471 1260 1471 1260 1451 1259 c 2,106,-1
 1250 1259 l 1,107,-1
 1250 1258 l 1,108,-1
 970 1258 l 1,109,-1
 970 1108 l 1,100,101
342 886 m 1,110,111
 514 1088 514 1088 830 1108 c 1,112,-1
 830 1258 l 1,113,-1
 551 1258 l 1,114,-1
 551 1259 l 1,115,-1
 349 1259 l 2,116,117
 329 1260 329 1260 326 1244 c 2,118,-1
 326 900 l 1,119,-1
 342 886 l 1,110,111
EndSplineSet
EndChar

StartChar: uniE022
Encoding: 57378 57378 77
Width: 1800
GlyphClass: 1
Flags: W
LayerCount: 2
Fore
SplineSet
1629 561 m 1,0,1
 1626 726 1626 726 1514 836 c 1,2,3
 1403 726 1403 726 1398 561 c 1,4,5
 1403 397 1403 397 1514 287 c 1,6,7
 1626 397 1626 397 1629 561 c 1,0,1
401 561 m 1,8,9
 398 726 398 726 286 836 c 1,10,11
 175 726 175 726 170 561 c 1,12,13
 175 397 175 397 286 287 c 1,14,15
 398 397 398 397 401 561 c 1,8,9
1474 900 m 1,16,-1
 1474 1244 l 2,17,18
 1471 1260 1471 1260 1451 1259 c 2,19,-1
 970 1259 l 1,20,-1
 970 1108 l 1,21,22
 1297 1085 1297 1085 1463 891 c 1,23,-1
 1462 889 l 1,24,25
 1468 895 1468 895 1474 900 c 1,16,-1
326 900 m 1,26,-1
 342 886 l 1,27,28
 514 1097 514 1097 830 1108 c 1,29,-1
 830 1259 l 1,30,-1
 349 1259 l 2,31,32
 329 1260 329 1260 326 1244 c 2,33,-1
 326 900 l 1,26,-1
249 903 m 1,34,-1
 249 1277 l 1,35,36
 245 1344 245 1344 318 1340 c 1,37,-1
 657 1340 l 1,38,-1
 657 1473 l 1,39,-1
 441 1473 l 1,40,41
 412 1485 412 1485 422 1523 c 1,42,43
 432 1541 432 1541 460 1539 c 2,44,-1
 657 1539 l 1,45,-1
 657 1639 l 1,46,-1
 393 1639 l 1,47,48
 363 1656 363 1656 373 1682 c 0,49,50
 381 1701 381 1701 411 1700 c 2,51,-1
 701 1700 l 1,52,53
 733 1692 733 1692 730 1641 c 2,54,-1
 730 1340 l 1,55,-1
 1070 1340 l 1,56,-1
 1070 1641 l 2,57,58
 1067 1692 1067 1692 1099 1700 c 1,59,-1
 1389 1700 l 2,60,61
 1419 1701 1419 1701 1427 1682 c 0,62,63
 1437 1656 1437 1656 1407 1639 c 1,64,-1
 1143 1639 l 1,65,-1
 1143 1539 l 1,66,-1
 1340 1539 l 2,67,68
 1368 1541 1368 1541 1378 1523 c 1,69,70
 1388 1485 1388 1485 1359 1473 c 1,71,-1
 1143 1473 l 1,72,-1
 1143 1340 l 1,73,-1
 1482 1340 l 1,74,75
 1554 1344 1554 1344 1551 1277 c 2,76,-1
 1551 903 l 1,77,78
 1695 782 1695 782 1700 580 c 1,79,-1
 1700 550 l 1,80,81
 1694 323 1694 323 1514 199 c 1,82,83
 1335 323 1335 323 1328 550 c 1,84,-1
 1328 580 l 1,85,86
 1332 727 1332 727 1410 831 c 1,87,88
 1220 1012 1220 1012 970 1018 c 1,89,-1
 970 689 l 1,90,-1
 1312 105 l 1,91,92
 1331 34 1331 34 1287 10 c 0,93,94
 1231 -21 1231 -21 1186 42 c 1,95,-1
 900 536 l 1,96,-1
 587 42 l 1,97,98
 542 -21 542 -21 486 10 c 0,99,100
 442 34 442 34 461 105 c 1,101,-1
 830 689 l 1,102,-1
 830 1018 l 1,103,104
 610 1028 610 1028 390 833 c 1,105,106
 468 728 468 728 472 580 c 1,107,-1
 472 550 l 1,108,109
 466 323 466 323 286 199 c 1,110,111
 107 323 107 323 100 550 c 1,112,-1
 100 580 l 1,113,114
 106 782 106 782 249 903 c 1,34,-1
EndSplineSet
EndChar

StartChar: uniE023
Encoding: 57379 57379 78
Width: 1800
GlyphClass: 1
Flags: W
LayerCount: 2
Fore
SplineSet
1627 562 m 1,0,1
 1624 773 1624 773 1512 914 c 1,2,3
 1401 773 1401 773 1396 562 c 1,4,5
 1401 352 1401 352 1512 211 c 1,6,7
 1624 352 1624 352 1627 562 c 1,0,1
401 562 m 1,8,9
 398 773 398 773 286 914 c 1,10,11
 175 773 175 773 170 562 c 1,12,13
 175 352 175 352 286 211 c 1,14,15
 398 352 398 352 401 562 c 1,8,9
816 1339 m 1,16,-1
 739 1480 l 1,17,-1
 608 1409 l 1,18,19
 576 1408 576 1408 573 1435 c 0,20,21
 573 1453 573 1453 600 1466 c 2,22,-1
 711 1528 l 1,23,-1
 658 1627 l 1,24,-1
 489 1533 l 1,25,26
 456 1533 456 1533 453 1561 c 0,27,28
 453 1578 453 1578 480 1591 c 2,29,-1
 672 1696 l 1,30,31
 703 1705 703 1705 724 1658 c 1,32,-1
 899 1349 l 1,33,-1
 1073 1658 l 1,34,35
 1094 1705 1094 1705 1125 1696 c 1,36,-1
 1317 1591 l 2,37,38
 1344 1578 1344 1578 1344 1561 c 0,39,40
 1341 1533 1341 1533 1308 1533 c 1,41,-1
 1139 1627 l 1,42,-1
 1086 1528 l 1,43,-1
 1197 1466 l 2,44,45
 1224 1453 1224 1453 1224 1435 c 0,46,47
 1221 1408 1221 1408 1189 1409 c 1,48,-1
 1058 1480 l 1,49,-1
 981 1339 l 1,50,-1
 1480 1339 l 1,51,52
 1552 1343 1552 1343 1549 1276 c 2,53,-1
 1549 995 l 1,54,-1
 1552 995 l 1,55,56
 1693 841 1693 841 1698 586 c 1,57,-1
 1698 548 l 1,58,59
 1692 258 1692 258 1512 99 c 1,60,61
 1333 258 1333 258 1326 548 c 1,62,-1
 1326 586 l 2,63,64
 1329 699 1329 699 1357 792 c 1,65,-1
 972 1006 l 1,66,-1
 969 1006 l 1,67,-1
 969 689 l 1,68,-1
 1310 105 l 1,69,70
 1329 34 1329 34 1286 10 c 0,71,72
 1230 -21 1230 -21 1185 42 c 1,73,-1
 899 536 l 1,74,-1
 586 42 l 1,75,76
 541 -21 541 -21 486 10 c 0,77,78
 442 34 442 34 461 105 c 1,79,-1
 829 689 l 1,80,-1
 829 1004 l 1,81,-1
 440 797 l 1,82,83
 470 702 470 702 472 586 c 2,84,-1
 472 548 l 1,85,86
 466 258 466 258 286 99 c 1,87,88
 107 258 107 258 100 548 c 1,89,-1
 100 586 l 1,90,91
 106 845 106 845 249 999 c 1,92,-1
 249 1276 l 1,93,94
 245 1343 245 1343 318 1339 c 1,95,-1
 816 1339 l 1,16,-1
1472 995 m 1,96,-1
 1472 1243 l 2,97,98
 1469 1259 1469 1259 1449 1258 c 2,99,-1
 969 1258 l 1,100,-1
 969 1097 l 1,101,-1
 972 1097 l 1,102,-1
 1389 873 l 1,103,104
 1422 940 1422 940 1472 995 c 1,96,-1
829 1258 m 1,105,-1
 349 1258 l 2,106,107
 329 1259 329 1259 326 1243 c 2,108,-1
 326 995 l 1,109,110
 377 939 377 939 411 870 c 1,111,-1
 829 1095 l 1,112,-1
 829 1258 l 1,105,-1
EndSplineSet
EndChar

StartChar: uniE024
Encoding: 57380 57380 79
Width: 1800
GlyphClass: 1
Flags: W
LayerCount: 2
Fore
SplineSet
438 864 m 1,0,1
 434 1083 434 1083 309 1230 c 1,2,3
 184 1083 184 1083 179 864 c 1,4,5
 184 645 184 645 309 499 c 1,6,7
 434 645 434 645 438 864 c 1,0,1
1491 499 m 1,8,9
 1616 645 1616 645 1621 864 c 1,10,11
 1616 1083 1616 1083 1491 1230 c 1,12,13
 1366 1083 1366 1083 1362 864 c 1,14,15
 1366 645 1366 645 1491 499 c 1,8,9
321 1340 m 2,16,17
 329 1340 329 1340 338 1340 c 2,18,-1
 656 1340 l 1,19,-1
 656 1473 l 1,20,-1
 441 1473 l 1,21,22
 412 1485 412 1485 422 1523 c 1,23,24
 432 1541 432 1541 460 1539 c 2,25,-1
 656 1539 l 1,26,-1
 656 1639 l 1,27,-1
 393 1639 l 1,28,29
 363 1656 363 1656 373 1682 c 0,30,31
 381 1701 381 1701 411 1700 c 2,32,-1
 700 1700 l 1,33,34
 732 1692 732 1692 729 1641 c 2,35,-1
 729 1340 l 1,36,-1
 1069 1340 l 1,37,-1
 1069 1641 l 2,38,39
 1066 1692 1066 1692 1098 1700 c 1,40,-1
 1387 1700 l 2,41,42
 1417 1701 1417 1701 1425 1682 c 0,43,44
 1435 1656 1435 1656 1405 1639 c 1,45,-1
 1142 1639 l 1,46,-1
 1142 1539 l 1,47,-1
 1338 1539 l 2,48,49
 1366 1541 1366 1541 1376 1523 c 1,50,51
 1386 1485 1386 1485 1357 1473 c 1,52,-1
 1142 1473 l 1,53,-1
 1142 1340 l 1,54,-1
 1453 1340 l 2,55,56
 1462 1340 1462 1340 1470 1340 c 2,57,-1
 1486 1340 l 2,58,59
 1511 1341 1511 1341 1533 1319 c 0,60,61
 1693 1158 1693 1158 1700 889 c 1,62,-1
 1700 850 l 1,63,64
 1692 548 1692 548 1491 382 c 1,65,66
 1295 543 1295 543 1284 833 c 1,67,-1
 972 1006 l 1,68,-1
 969 1006 l 1,69,-1
 969 689 l 1,70,-1
 1310 105 l 1,71,72
 1329 34 1329 34 1286 10 c 0,73,74
 1230 -21 1230 -21 1185 42 c 1,75,-1
 899 536 l 1,76,-1
 586 42 l 1,77,78
 541 -21 541 -21 486 10 c 0,79,80
 442 34 442 34 461 105 c 1,81,-1
 829 689 l 1,82,-1
 829 1005 l 1,83,-1
 517 838 l 1,84,85
 507 545 507 545 309 382 c 1,86,87
 108 548 108 548 100 850 c 1,88,-1
 100 889 l 1,89,90
 107 1158 107 1158 267 1323 c 0,91,92
 289 1341 289 1341 314 1340 c 2,93,-1
 321 1340 l 2,16,17
969 1258 m 1,94,-1
 969 1097 l 1,95,-1
 972 1097 l 1,96,-1
 1286 929 l 1,97,98
 1290 965 1290 965 1301 1018 c 0,99,100
 1317 1104 1317 1104 1405 1258 c 1,101,-1
 969 1258 l 1,94,-1
829 1258 m 1,102,-1
 395 1258 l 1,103,104
 472 1151 472 1151 494 1041 c 0,105,106
 509 969 509 969 514 926 c 1,107,-1
 829 1096 l 1,108,-1
 829 1258 l 1,102,-1
EndSplineSet
EndChar

StartChar: uniE025
Encoding: 57381 57381 80
Width: 1800
GlyphClass: 1
Flags: W
LayerCount: 2
Fore
SplineSet
1271 1258 m 1,0,-1
 969 1258 l 1,1,-1
 969 1099 l 1,2,-1
 972 1099 l 1,3,-1
 1223 955 l 1,4,5
 1235 1144 1235 1144 1271 1258 c 1,0,-1
529 1258 m 1,6,7
 565 1142 565 1142 577 953 c 1,8,-1
 829 1098 l 1,9,-1
 829 1258 l 1,10,-1
 529 1258 l 1,6,7
417 1258 m 1,11,-1
 266 1258 l 1,12,13
 196 1089 196 1089 191 770 c 1,14,15
 198 444 198 444 342 233 c 1,16,17
 487 444 487 444 491 770 c 0,18,19
 490 793 490 793 490 814 c 1,20,-1
 489 813 l 1,21,-1
 489 853 l 1,22,23
 478 1111 478 1111 417 1258 c 1,11,-1
1535 1258 m 1,24,-1
 1384 1258 l 1,25,26
 1313 1089 1313 1089 1308 770 c 1,27,28
 1315 444 1315 444 1459 233 c 1,29,30
 1604 444 1604 444 1608 770 c 1,31,32
 1605 1089 1605 1089 1535 1258 c 1,24,-1
656 1340 m 1,33,-1
 656 1473 l 1,34,-1
 442 1473 l 1,35,36
 413 1485 413 1485 423 1523 c 1,37,38
 433 1541 433 1541 461 1539 c 2,39,-1
 656 1539 l 1,40,-1
 656 1639 l 1,41,-1
 394 1639 l 1,42,43
 364 1656 364 1656 374 1682 c 0,44,45
 382 1701 382 1701 412 1700 c 2,46,-1
 700 1700 l 1,47,48
 732 1692 732 1692 729 1641 c 2,49,-1
 729 1340 l 1,50,-1
 1069 1340 l 1,51,-1
 1069 1641 l 2,52,53
 1066 1692 1066 1692 1098 1700 c 1,54,-1
 1386 1700 l 2,55,56
 1416 1701 1416 1701 1424 1682 c 0,57,58
 1434 1656 1434 1656 1404 1639 c 1,59,-1
 1142 1639 l 1,60,-1
 1142 1539 l 1,61,-1
 1337 1539 l 2,62,63
 1365 1541 1365 1541 1375 1523 c 1,64,65
 1385 1485 1385 1485 1356 1473 c 1,66,-1
 1142 1473 l 1,67,-1
 1142 1340 l 1,68,-1
 1452 1340 l 2,69,70
 1461 1340 1461 1340 1470 1340 c 2,71,-1
 1569 1340 l 1,72,73
 1621 1344 1621 1344 1646 1260 c 0,74,75
 1696 1102 1696 1102 1700 806 c 1,76,-1
 1700 750 l 1,77,78
 1692 304 1692 304 1459 99 c 1,79,80
 1227 304 1227 304 1218 750 c 1,81,-1
 1218 806 l 2,82,83
 1218 835 1218 835 1219 862 c 1,84,-1
 972 1008 l 1,85,-1
 969 1008 l 1,86,-1
 969 689 l 1,87,-1
 1309 105 l 1,88,89
 1328 34 1328 34 1286 10 c 0,90,91
 1230 -21 1230 -21 1185 42 c 1,92,-1
 899 536 l 1,93,-1
 586 42 l 1,94,95
 541 -21 541 -21 487 10 c 0,96,97
 443 34 443 34 462 105 c 1,98,-1
 829 689 l 1,99,-1
 829 1007 l 1,100,-1
 581 866 l 1,101,102
 582 837 582 837 582 806 c 2,103,-1
 582 750 l 1,104,105
 574 304 574 304 342 99 c 1,106,107
 109 304 109 304 100 750 c 1,108,-1
 100 806 l 1,109,110
 104 1103 104 1103 154 1260 c 1,111,112
 176 1344 176 1344 229 1340 c 1,113,-1
 321 1340 l 2,114,115
 330 1340 330 1340 339 1340 c 2,116,-1
 656 1340 l 1,33,-1
EndSplineSet
EndChar

StartChar: uniE026
Encoding: 57382 57382 81
Width: 1800
GlyphClass: 1
Flags: W
LayerCount: 2
Fore
SplineSet
1512 1247 m 1,0,1
 1512 1248 1512 1248 1511 1249 c 1,2,3
 1375 1037 1375 1037 1397 812 c 0,4,5
 1417 614 1417 614 1513 602 c 1,6,7
 1607 614 1607 614 1626 812 c 0,8,9
 1648 1037 1648 1037 1513 1249 c 1,10,11
 1513 1248 1513 1248 1512 1247 c 1,0,1
288 1247 m 1,12,13
 288 1248 288 1248 287 1249 c 1,14,15
 151 1037 151 1037 173 812 c 0,16,17
 193 614 193 614 289 602 c 1,18,19
 383 614 383 614 402 812 c 0,20,21
 424 1037 424 1037 289 1249 c 1,22,23
 289 1248 289 1248 288 1247 c 1,12,13
970 1260 m 1,24,-1
 970 690 l 1,25,-1
 1311 105 l 1,26,27
 1330 34 1330 34 1287 10 c 0,28,29
 1231 -21 1231 -21 1186 42 c 1,30,-1
 900 537 l 1,31,-1
 587 42 l 1,32,33
 542 -21 542 -21 487 10 c 0,34,35
 443 34 443 34 462 105 c 1,36,-1
 830 690 l 1,37,-1
 830 1260 l 1,38,-1
 368 1260 l 1,39,40
 488 1030 488 1030 475 788 c 1,41,42
 428 531 428 531 288 522 c 1,43,44
 149 531 149 531 101 788 c 1,45,46
 87 1052 87 1052 230 1301 c 1,47,48
 250 1344 250 1344 319 1341 c 2,49,-1
 790 1341 l 1,50,51
 742 1390 742 1390 700 1482 c 1,52,-1
 520 1387 l 1,53,54
 488 1386 488 1386 485 1413 c 0,55,56
 485 1431 485 1431 512 1444 c 2,57,-1
 672 1530 l 1,58,-1
 629 1630 l 1,59,-1
 401 1511 l 1,60,61
 368 1511 368 1511 365 1539 c 0,62,63
 365 1556 365 1556 392 1569 c 2,64,-1
 643 1699 l 1,65,66
 674 1708 674 1708 695 1661 c 1,67,68
 751 1434 751 1434 900 1342 c 1,69,70
 1048 1428 1048 1428 1104 1661 c 1,71,72
 1125 1708 1125 1708 1156 1699 c 1,73,-1
 1399 1562 l 2,74,75
 1426 1549 1426 1549 1426 1532 c 0,76,77
 1423 1504 1423 1504 1390 1504 c 1,78,-1
 1170 1630 l 1,79,-1
 1127 1530 l 1,80,-1
 1279 1437 l 2,81,82
 1306 1424 1306 1424 1306 1406 c 0,83,84
 1303 1379 1303 1379 1271 1380 c 1,85,-1
 1099 1482 l 1,86,87
 1059 1390 1059 1390 1011 1341 c 1,88,-1
 1481 1341 l 2,89,90
 1550 1344 1550 1344 1569 1301 c 1,91,92
 1713 1052 1713 1052 1699 788 c 1,93,94
 1652 531 1652 531 1512 522 c 1,95,96
 1373 531 1373 531 1325 788 c 1,97,98
 1312 1030 1312 1030 1431 1260 c 1,99,-1
 970 1260 l 1,24,-1
EndSplineSet
EndChar

StartChar: uniE027
Encoding: 57383 57383 82
Width: 1800
GlyphClass: 1
Flags: W
LayerCount: 2
Fore
SplineSet
1512 1247 m 1,0,1
 1512 1248 1512 1248 1511 1249 c 1,2,3
 1375 1037 1375 1037 1397 812 c 0,4,5
 1417 614 1417 614 1513 602 c 1,6,7
 1607 614 1607 614 1626 812 c 0,8,9
 1648 1037 1648 1037 1513 1249 c 1,10,11
 1513 1248 1513 1248 1512 1247 c 1,0,1
288 1247 m 1,12,13
 288 1248 288 1248 287 1249 c 1,14,15
 151 1037 151 1037 173 812 c 0,16,17
 193 614 193 614 289 602 c 1,18,19
 383 614 383 614 402 812 c 0,20,21
 424 1037 424 1037 289 1249 c 1,22,23
 289 1248 289 1248 288 1247 c 1,12,13
1481 1341 m 2,24,25
 1513 1343 1513 1343 1530 1330 c 1,26,27
 1561 1326 1561 1326 1569 1301 c 1,28,29
 1713 1052 1713 1052 1699 788 c 1,30,31
 1652 531 1652 531 1512 522 c 1,32,33
 1373 531 1373 531 1325 788 c 1,34,35
 1312 1030 1312 1030 1431 1260 c 1,36,-1
 970 1260 l 1,37,-1
 970 690 l 1,38,-1
 1311 105 l 1,39,40
 1330 34 1330 34 1287 10 c 0,41,42
 1231 -21 1231 -21 1186 42 c 1,43,-1
 900 537 l 1,44,-1
 587 42 l 1,45,46
 542 -21 542 -21 487 10 c 0,47,48
 443 34 443 34 462 105 c 1,49,-1
 830 690 l 1,50,-1
 830 1260 l 1,51,-1
 368 1260 l 1,52,53
 488 1030 488 1030 475 788 c 1,54,55
 428 531 428 531 288 522 c 1,56,57
 149 531 149 531 101 788 c 1,58,59
 87 1052 87 1052 230 1301 c 1,60,61
 238 1326 238 1326 269 1330 c 1,62,63
 286 1343 286 1343 319 1341 c 2,64,-1
 827 1341 l 1,65,66
 804 1421 804 1421 760 1492 c 1,67,-1
 540 1387 l 1,68,69
 508 1386 508 1386 505 1413 c 0,70,71
 505 1431 505 1431 532 1444 c 2,72,-1
 732 1540 l 1,73,74
 671 1620 671 1620 619 1630 c 1,75,-1
 391 1511 l 1,76,77
 358 1511 358 1511 355 1539 c 0,78,79
 355 1556 355 1556 382 1569 c 2,80,-1
 633 1699 l 1,81,82
 664 1708 664 1708 734 1645 c 0,83,84
 802 1582 802 1582 896 1341 c 1,85,-1
 904 1341 l 1,86,87
 998 1582 998 1582 1067 1645 c 256,88,89
 1136 1708 1136 1708 1167 1699 c 1,90,-1
 1418 1569 l 2,91,92
 1445 1556 1445 1556 1445 1539 c 0,93,94
 1442 1511 1442 1511 1409 1511 c 1,95,-1
 1181 1630 l 1,96,97
 1129 1620 1129 1620 1068 1540 c 1,98,-1
 1268 1444 l 2,99,100
 1295 1431 1295 1431 1295 1413 c 0,101,102
 1292 1386 1292 1386 1260 1387 c 1,103,-1
 1040 1492 l 1,104,105
 996 1421 996 1421 973 1341 c 1,106,-1
 1481 1341 l 2,24,25
EndSplineSet
EndChar

StartChar: uniE028
Encoding: 57384 57384 83
Width: 1800
GlyphClass: 1
Flags: W
LayerCount: 2
Fore
SplineSet
576 1260 m 1,0,-1
 267 1260 l 1,1,2
 196 1090 196 1090 191 771 c 1,3,4
 198 475 198 475 270 404.5 c 128,-1,5
 342 334 342 334 424 404.5 c 128,-1,6
 506 475 506 475 550 771 c 1,7,8
 587 1090 587 1090 576 1260 c 1,0,-1
1254 1260 m 1,9,10
 1244 1000 1244 1000 1279 771 c 0,11,12
 1315 555 1315 555 1387 494.5 c 128,-1,13
 1459 434 1459 434 1531.5 494.5 c 128,-1,14
 1604 555 1604 555 1608 771 c 1,15,16
 1605 1090 1605 1090 1534 1260 c 1,17,-1
 1254 1260 l 1,9,10
778 1341 m 1,18,19
 731 1387 731 1387 701 1474 c 1,20,-1
 526 1474 l 1,21,22
 498 1486 498 1486 507 1524 c 1,23,24
 517 1542 517 1542 545 1540 c 2,25,-1
 691 1540 l 1,26,-1
 681 1640 l 1,27,-1
 508 1640 l 1,28,29
 479 1657 479 1657 469 1683 c 1,30,31
 477 1702 477 1702 506 1701 c 2,32,-1
 725 1701 l 1,33,34
 757 1693 757 1693 754 1642 c 1,35,36
 758 1471 758 1471 828.5 1391 c 128,-1,37
 899 1311 899 1311 966.5 1391 c 128,-1,38
 1034 1471 1034 1471 1034 1642 c 0,39,40
 1031 1693 1031 1693 1063 1701 c 1,41,-1
 1282 1701 l 2,42,43
 1311 1702 1311 1702 1319 1683 c 0,44,45
 1329 1657 1329 1657 1300 1640 c 1,46,-1
 1107 1640 l 1,47,-1
 1097 1540 l 1,48,-1
 1263 1540 l 2,49,50
 1291 1542 1291 1542 1300 1524 c 0,51,52
 1318 1486 1318 1486 1282 1474 c 1,53,-1
 1087 1474 l 1,54,55
 1066 1369 1066 1369 1017 1341 c 1,56,-1
 1569 1341 l 1,57,58
 1621 1345 1621 1345 1646 1261 c 0,59,60
 1696 1103 1696 1103 1700 807 c 1,61,-1
 1700 751 l 1,62,63
 1692 505 1692 505 1575.5 402.5 c 128,-1,64
 1459 300 1459 300 1343 402.5 c 128,-1,65
 1227 505 1227 505 1188 751 c 1,66,-1
 1178 807 l 1,67,68
 1152 1013 1152 1013 1161 1260 c 1,69,-1
 969 1260 l 1,70,-1
 969 690 l 1,71,-1
 1309 106 l 1,72,73
 1328 35 1328 35 1286 11 c 0,74,75
 1230 -20 1230 -20 1185 43 c 1,76,-1
 899 537 l 1,77,-1
 586 43 l 1,78,79
 541 -20 541 -20 487 11 c 0,80,81
 443 35 443 35 462 106 c 1,82,-1
 829 690 l 1,83,-1
 829 1260 l 1,84,-1
 668 1260 l 1,85,86
 678 1102 678 1102 642 807 c 1,87,-1
 642 751 l 1,88,89
 594 425 594 425 468 332.5 c 128,-1,90
 342 240 342 240 225.5 322.5 c 128,-1,91
 109 405 109 405 100 751 c 1,92,-1
 100 807 l 1,93,94
 104 1104 104 1104 154 1261 c 1,95,96
 176 1345 176 1345 229 1341 c 1,97,-1
 778 1341 l 1,18,19
EndSplineSet
EndChar

StartChar: uniE029
Encoding: 57385 57385 84
Width: 1800
GlyphClass: 1
Flags: W
LayerCount: 2
Fore
SplineSet
1460 578 m 0,0,1
 1497 580 1497 580 1536 600 c 0,2,3
 1614 640 1614 640 1620 737 c 1,4,5
 1617 859 1617 859 1469 1000 c 1,6,7
 1301 859 1301 859 1296 737 c 1,8,9
 1301 640 1301 640 1381 600 c 0,10,11
 1421 580 1421 580 1460 578 c 0,0,1
345 578 m 0,12,13
 382 580 382 580 421 600 c 0,14,15
 500 640 500 640 506 737 c 1,16,17
 503 859 503 859 324 990 c 1,18,19
 187 859 187 859 182 737 c 1,20,21
 187 640 187 640 266 600 c 0,22,23
 306 580 306 580 345 578 c 0,12,13
967 692 m 1,24,-1
 1307 105 l 1,25,26
 1326 34 1326 34 1283 10 c 0,27,28
 1227 -21 1227 -21 1183 42 c 1,29,-1
 898 538 l 1,30,-1
 585 42 l 2,31,32
 541 -21 541 -21 486 10 c 0,33,34
 442 34 442 34 461 105 c 1,35,-1
 828 692 l 1,36,-1
 828 1243 l 1,37,38
 606 1253 606 1253 395 1049 c 1,39,40
 559 920 559 920 585 769 c 1,41,-1
 584 735 l 1,42,43
 557 497 557 497 343 501 c 1,44,45
 130 497 130 497 100 722 c 1,46,-1
 101 769 l 1,47,48
 128 920 128 920 269 1057 c 1,49,50
 500 1310 500 1310 800 1331 c 1,51,-1
 719 1482 l 1,52,-1
 483 1355 l 1,53,54
 451 1354 451 1354 448 1381 c 0,55,56
 448 1399 448 1399 475 1412 c 2,57,-1
 691 1530 l 1,58,-1
 638 1629 l 1,59,-1
 329 1459 l 1,60,61
 296 1459 296 1459 293 1488 c 0,62,63
 293 1505 293 1505 320 1518 c 2,64,-1
 652 1698 l 1,65,66
 683 1707 683 1707 704 1660 c 1,67,-1
 886 1333 l 1,68,-1
 889 1333 l 1,69,-1
 1071 1660 l 1,70,71
 1092 1707 1092 1707 1123 1698 c 1,72,-1
 1455 1518 l 2,73,74
 1482 1505 1482 1505 1482 1488 c 0,75,76
 1479 1459 1479 1459 1446 1459 c 1,77,-1
 1137 1629 l 1,78,-1
 1084 1530 l 1,79,-1
 1300 1412 l 2,80,81
 1327 1399 1327 1399 1327 1381 c 0,82,83
 1324 1354 1324 1354 1292 1355 c 1,84,-1
 1056 1482 l 1,85,-1
 976 1332 l 1,86,87
 1296 1307 1296 1307 1531 1061 c 1,88,89
 1673 920 1673 920 1700 769 c 1,90,-1
 1699 735 l 1,91,92
 1671 497 1671 497 1458 501 c 1,93,94
 1244 497 1244 497 1215 722 c 1,95,-1
 1216 769 l 1,96,97
 1242 920 1242 920 1406 1053 c 1,98,-1
 1407 1053 l 1,99,100
 1219 1237 1219 1237 967 1243 c 1,101,-1
 967 692 l 1,24,-1
EndSplineSet
EndChar

StartChar: uniE02A
Encoding: 57386 57386 85
Width: 1800
GlyphClass: 1
Flags: W
LayerCount: 2
Fore
SplineSet
493 771 m 1,0,1
 489 995 489 995 337 1083 c 1,2,3
 188 995 188 995 181 771 c 1,4,5
 188 549 188 549 337 401 c 1,6,7
 489 549 489 549 493 771 c 1,0,1
1616 771 m 1,8,9
 1612 995 1612 995 1460 1083 c 1,10,11
 1311 995 1311 995 1304 771 c 1,12,13
 1311 549 1311 549 1460 401 c 1,14,15
 1612 549 1612 549 1616 771 c 1,8,9
893 1131 m 1,16,-1
 906 1131 l 1,17,-1
 1175 1661 l 2,18,19
 1196 1708 1196 1708 1227 1699 c 1,20,-1
 1458 1573 l 2,21,22
 1485 1560 1485 1560 1485 1543 c 0,23,24
 1482 1515 1482 1515 1449 1515 c 1,25,-1
 1241 1629 l 1,26,-1
 1188 1530 l 1,27,-1
 1338 1448 l 2,28,29
 1365 1435 1365 1435 1365 1417 c 0,30,31
 1362 1389 1362 1389 1330 1390 c 1,32,-1
 1160 1482 l 1,33,-1
 973 1093 l 1,34,-1
 1246 931 l 1,35,36
 1298 1094 1298 1094 1464 1204 c 1,37,38
 1694 1046 1694 1046 1700 789 c 1,39,-1
 1700 751 l 1,40,41
 1692 460 1692 460 1462 300 c 1,42,43
 1232 460 1232 460 1223 751 c 1,44,-1
 1223 789 l 2,45,46
 1224 818 1224 818 1227 846 c 1,47,-1
 973 1002 l 1,48,-1
 970 1002 l 1,49,-1
 970 692 l 1,50,-1
 1311 105 l 1,51,52
 1330 34 1330 34 1287 10 c 0,53,54
 1231 -21 1231 -21 1186 42 c 1,55,-1
 899 538 l 1,56,-1
 586 42 l 1,57,58
 541 -21 541 -21 486 10 c 0,59,60
 442 34 442 34 461 105 c 1,61,-1
 829 692 l 1,62,-1
 829 1000 l 1,63,-1
 573 850 l 1,64,65
 577 820 577 820 577 789 c 2,66,-1
 577 751 l 1,67,68
 569 460 569 460 339 300 c 1,69,70
 109 460 109 460 100 751 c 1,71,-1
 100 789 l 1,72,73
 108 1049 108 1049 341 1204 c 1,74,75
 505 1092 505 1092 555 929 c 1,76,-1
 829 1092 l 1,77,-1
 639 1482 l 1,78,-1
 469 1390 l 1,79,80
 437 1389 437 1389 434 1417 c 0,81,82
 434 1435 434 1435 461 1448 c 2,83,-1
 611 1530 l 1,84,-1
 558 1629 l 1,85,-1
 350 1515 l 1,86,87
 317 1515 317 1515 314 1543 c 0,88,89
 314 1560 314 1560 341 1573 c 2,90,-1
 572 1699 l 1,91,92
 603 1708 603 1708 624 1661 c 2,93,-1
 893 1131 l 1,16,-1
EndSplineSet
EndChar

StartChar: uniE02B
Encoding: 57387 57387 86
Width: 1800
GlyphClass: 1
Flags: W
LayerCount: 2
Fore
SplineSet
1159 1076 m 1,0,-1
 1159 1075 l 1,1,2
 1158 1076 1158 1076 1157 1076 c 1,3,4
 1173 800 1173 800 1345 641 c 0,5,6
 1497 500 1497 500 1594 567 c 1,7,8
 1673 651 1673 651 1557 822 c 0,9,10
 1450 982 1450 982 1159 1076 c 1,0,-1
969 689 m 1,11,-1
 1310 105 l 1,12,13
 1329 34 1329 34 1286 10 c 0,14,15
 1230 -21 1230 -21 1185 42 c 1,16,-1
 899 536 l 1,17,-1
 587 42 l 1,18,19
 542 -21 542 -21 487 10 c 0,20,21
 443 34 443 34 462 105 c 1,22,-1
 829 689 l 1,23,-1
 829 1109 l 1,24,-1
 817 1109 l 1,25,26
 819 1096 819 1096 813 1084 c 1,27,28
 768 739 768 739 555 519 c 1,29,30
 311 335 311 335 163 449 c 1,31,32
 30 578 30 578 177 846 c 1,33,34
 322 1035 322 1035 555 1134 c 1,35,-1
 555 1136 l 1,36,37
 617 1163 617 1163 682 1179 c 0,38,39
 690 1181 690 1181 699 1184 c 0,40,41
 714 1193 714 1193 732 1189 c 1,42,43
 766 1195 766 1195 800 1197 c 1,44,45
 772 1367 772 1367 690 1457 c 1,46,-1
 373 1307 l 1,47,48
 341 1306 341 1306 338 1333 c 0,49,50
 338 1351 338 1351 365 1364 c 2,51,-1
 662 1515 l 1,52,53
 605 1587 605 1587 518 1619 c 128,-1,54
 431 1651 431 1651 186 1498 c 1,55,56
 153 1498 153 1498 150 1526 c 0,57,58
 150 1543 150 1543 177 1556 c 1,59,60
 477 1805 477 1805 660 1622 c 0,61,62
 824 1458 824 1458 880 1199 c 1,63,-1
 920 1199 l 1,64,65
 976 1458 976 1458 1140 1622 c 0,66,67
 1323 1805 1323 1805 1623 1556 c 1,68,69
 1650 1543 1650 1543 1650 1526 c 0,70,71
 1647 1498 1647 1498 1614 1498 c 1,72,73
 1369 1651 1369 1651 1282 1619 c 128,-1,74
 1195 1587 1195 1587 1138 1515 c 1,75,-1
 1435 1364 l 2,76,77
 1462 1351 1462 1351 1462 1333 c 0,78,79
 1459 1306 1459 1306 1427 1307 c 1,80,-1
 1110 1457 l 1,81,82
 1028 1367 1028 1367 1000 1196 c 1,83,84
 1132 1183 1132 1183 1249 1131 c 1,85,-1
 1249 1127 l 1,86,87
 1494 1044 1494 1044 1636 856 c 1,88,89
 1761 624 1761 624 1642 511 c 1,90,91
 1512 411 1512 411 1302 570 c 1,92,93
 1118 759 1118 759 1084 1058 c 0,94,95
 1078 1076 1078 1076 1089 1095 c 1,96,97
 1031 1107 1031 1107 969 1109 c 1,98,-1
 969 689 l 1,11,-1
711 1091 m 1,99,100
 379 984 379 984 257 802 c 0,101,102
 124 606 124 606 214 510 c 1,103,104
 325 434 325 434 498 595 c 0,105,106
 695 776 695 776 713 1091 c 1,107,108
 712 1091 712 1091 711 1089 c 1,109,-1
 711 1091 l 1,99,100
EndSplineSet
EndChar

StartChar: uniE02C
Encoding: 57388 57388 87
Width: 1500
GlyphClass: 1
Flags: W
LayerCount: 2
Fore
SplineSet
819 872 m 1,0,-1
 819 691 l 1,1,-1
 1160 105 l 1,2,3
 1179 34 1179 34 1136 10 c 0,4,5
 1080 -21 1080 -21 1035 42 c 1,6,-1
 750 538 l 1,7,-1
 437 42 l 1,8,9
 392 -21 392 -21 337 10 c 0,10,11
 293 34 293 34 312 105 c 1,12,-1
 680 691 l 1,13,-1
 680 829 l 1,14,15
 641 776 641 776 595 727 c 1,16,17
 351 543 351 543 203 657 c 1,18,19
 70 787 70 787 217 1036 c 1,20,21
 387 1229 387 1229 608 1290 c 1,22,23
 569 1382 569 1382 540 1441 c 1,24,-1
 313 1341 l 1,25,26
 281 1340 281 1340 278 1367 c 0,27,28
 278 1385 278 1385 305 1398 c 2,29,-1
 502 1499 l 1,30,31
 475 1555 475 1555 451 1590 c 1,32,-1
 146 1462 l 1,33,34
 113 1462 113 1462 100 1510 c 1,35,36
 100 1527 100 1527 127 1540 c 2,37,-1
 517 1700 l 1,38,39
 640 1476 640 1476 750 1189 c 1,40,41
 860 1476 860 1476 983 1700 c 1,42,-1
 1373 1540 l 2,43,44
 1400 1527 1400 1527 1400 1510 c 1,45,46
 1387 1462 1387 1462 1354 1462 c 1,47,-1
 1049 1590 l 1,48,49
 1025 1555 1025 1555 998 1499 c 1,50,-1
 1195 1398 l 2,51,52
 1222 1385 1222 1385 1222 1367 c 0,53,54
 1219 1340 1219 1340 1187 1341 c 1,55,-1
 960 1441 l 1,56,57
 928 1377 928 1377 886 1275 c 1,58,59
 1120 1200 1120 1200 1255 1009 c 1,60,61
 1390 777 1390 777 1271 663 c 1,62,63
 1141 563 1141 563 931 722 c 1,64,65
 866 789 866 789 819 872 c 1,0,-1
680 978 m 1,66,-1
 680 1102 l 1,67,-1
 675 1122 l 1,68,69
 656 1171 656 1171 638 1215 c 1,70,71
 442 1176 442 1176 299 1015 c 1,72,73
 160 812 160 812 252 712 c 1,74,75
 363 635 363 635 543 804 c 0,76,77
 626 880 626 880 680 978 c 1,66,-1
819 1102 m 1,78,-1
 819 1042 l 1,79,80
 866 895 866 895 974 794 c 0,81,82
 1126 652 1126 652 1223 719 c 1,83,84
 1302 804 1302 804 1186 975 c 0,85,86
 1074 1143 1074 1143 860 1211 c 1,87,88
 843 1169 843 1169 825 1122 c 2,89,-1
 819 1102 l 1,78,-1
EndSplineSet
EndChar

StartChar: uniE02D
Encoding: 57389 57389 88
Width: 1800
GlyphClass: 1
Flags: W
LayerCount: 2
Fore
SplineSet
1629 590 m 1,0,1
 1626 770 1626 770 1514 890 c 1,2,3
 1403 770 1403 770 1398 590 c 1,4,5
 1403 409 1403 409 1514 289 c 1,6,7
 1626 409 1626 409 1629 590 c 1,0,1
401 590 m 1,8,9
 398 770 398 770 286 890 c 1,10,11
 175 770 175 770 170 590 c 1,12,13
 175 409 175 409 286 289 c 1,14,15
 398 409 398 409 401 590 c 1,8,9
1551 963 m 1,16,17
 1695 831 1695 831 1700 610 c 1,18,-1
 1700 578 l 1,19,20
 1694 329 1694 329 1514 193 c 1,21,22
 1335 329 1335 329 1328 578 c 1,23,-1
 1328 610 l 1,24,25
 1334 829 1334 829 1474 960 c 1,26,-1
 1474 1245 l 2,27,28
 1471 1261 1471 1261 1451 1260 c 2,29,-1
 1125 1260 l 1,30,-1
 942 762 l 1,31,-1
 1352 0 l 1,32,-1
 1257 0 l 1,33,-1
 900 674 l 1,34,-1
 542 0 l 1,35,-1
 447 0 l 1,36,-1
 857 762 l 1,37,-1
 674 1260 l 1,38,-1
 349 1260 l 2,39,40
 329 1261 329 1261 326 1245 c 2,41,-1
 326 960 l 1,42,43
 467 829 467 829 472 610 c 1,44,-1
 472 578 l 1,45,46
 466 329 466 329 286 193 c 1,47,48
 107 329 107 329 100 578 c 1,49,-1
 100 610 l 1,50,51
 106 831 106 831 249 963 c 1,52,-1
 249 1279 l 1,53,54
 245 1346 245 1346 318 1342 c 1,55,-1
 644 1342 l 1,56,-1
 597 1472 l 1,57,-1
 409 1420 l 1,58,59
 377 1425 377 1425 379 1452 c 0,60,61
 383 1470 383 1470 412 1478 c 2,62,-1
 576 1527 l 1,63,-1
 542 1621 l 1,64,-1
 536 1635 l 1,65,-1
 277 1551 l 1,66,67
 245 1557 245 1557 247 1585 c 0,68,69
 250 1602 250 1602 279 1610 c 2,70,-1
 563 1700 l 1,71,72
 596 1697 596 1697 609 1669 c 2,73,-1
 730 1342 l 1,74,-1
 1069 1342 l 1,75,-1
 1200 1699 l 1,76,-1
 1276 1672 l 1,77,-1
 1155 1342 l 1,78,-1
 1482 1342 l 1,79,80
 1554 1346 1554 1346 1551 1279 c 2,81,-1
 1551 963 l 1,16,17
1040 1260 m 1,82,-1
 759 1260 l 1,83,-1
 900 880 l 1,84,-1
 1040 1260 l 1,82,-1
1217 1665 m 1,85,-1
 1125 1593 l 1,86,87
 1105 1596 1105 1596 1110 1616 c 2,88,-1
 1116 1637 l 1,89,90
 1178 1692 1178 1692 1192 1690 c 2,91,-1
 1202 1689 l 2,92,93
 1219 1686 1219 1686 1217 1665 c 1,85,-1
1220 1487 m 1,94,-1
 1167 1442 l 1,95,96
 1147 1445 1147 1445 1152 1466 c 1,97,98
 1192 1499 1192 1499 1199 1523 c 1,99,-1
 1228 1519 l 1,100,-1
 1220 1487 l 1,94,-1
1330 1667 m 1,101,-1
 1129 1493 l 1,102,103
 1109 1496 1109 1496 1115 1517 c 1,104,105
 1185 1607 1185 1607 1319 1700 c 1,106,107
 1336 1698 1336 1698 1333 1677 c 2,108,-1
 1330 1667 l 1,101,-1
1370 1621 m 1,109,110
 1266 1540 1266 1540 1263 1530 c 1,111,-1
 1246 1543 l 1,112,113
 1280 1609 1280 1609 1361 1665 c 1,114,115
 1378 1663 1378 1663 1376 1642 c 2,116,-1
 1370 1621 l 1,109,110
1355 1527 m 1,117,-1
 1340 1508 l 1,118,-1
 1322 1521 l 1,119,120
 1328 1542 1328 1542 1348 1539 c 2,121,-1
 1357 1537 l 1,122,-1
 1355 1527 l 1,117,-1
1437 1557 m 1,123,124
 1418 1487 1418 1487 1309 1427 c 1,125,-1
 1299 1428 l 1,126,-1
 1302 1438 l 2,127,128
 1319 1501 1319 1501 1437 1557 c 1,123,124
1495 1664 m 1,129,130
 1401 1563 1401 1563 1385 1562 c 1,131,-1
 1368 1576 l 1,132,133
 1431 1684 1431 1684 1458 1680 c 2,134,-1
 1478 1677 l 1,135,-1
 1495 1664 l 1,129,130
1516 1589 m 0,136,137
 1514 1584 1514 1584 1462 1543 c 1,138,139
 1442 1546 1442 1546 1448 1567 c 2,140,-1
 1451 1577 l 1,141,142
 1486 1615 1486 1615 1502 1613 c 0,143,144
 1518 1610 1518 1610 1516 1589 c 0,136,137
1537 1436 m 1,145,-1
 1506 1398 l 1,146,147
 1486 1401 1486 1401 1491 1422 c 1,148,-1
 1520 1450 l 1,149,-1
 1537 1436 l 1,145,-1
1595 1578 m 1,150,151
 1509 1493 1509 1493 1500 1495 c 2,152,-1
 1483 1508 l 1,153,154
 1549 1606 1549 1606 1571 1603 c 2,155,-1
 1581 1601 l 2,156,157
 1598 1599 1598 1599 1595 1578 c 1,150,151
1605 1501 m 1,158,-1
 1577 1473 l 1,159,160
 1557 1476 1557 1476 1563 1497 c 2,161,-1
 1566 1507 l 2,162,163
 1571 1527 1571 1527 1591 1524 c 0,164,165
 1608 1522 1608 1522 1605 1501 c 1,158,-1
1655 1513 m 1,166,167
 1637 1445 1637 1445 1549 1357 c 1,168,169
 1535 1359 1535 1359 1541 1380 c 2,170,-1
 1549 1411 l 1,171,172
 1602 1483 1602 1483 1648 1514 c 1,173,-1
 1655 1513 l 1,166,167
1325 1487 m 1,174,-1
 1233 1415 l 1,175,176
 1213 1418 1213 1418 1219 1439 c 2,177,-1
 1225 1459 l 1,178,179
 1287 1514 1287 1514 1301 1512 c 2,180,-1
 1311 1511 l 2,181,182
 1328 1508 1328 1508 1325 1487 c 1,174,-1
1500 1476 m 1,183,-1
 1407 1404 l 1,184,185
 1388 1407 1388 1407 1393 1428 c 2,186,-1
 1399 1448 l 1,187,188
 1461 1503 1461 1503 1475 1501 c 2,189,-1
 1485 1500 l 2,190,191
 1502 1497 1502 1497 1500 1476 c 1,183,-1
1452 1391 m 1,192,-1
 1436 1371 l 1,193,-1
 1419 1384 l 1,194,195
 1425 1405 1425 1405 1445 1402 c 2,196,-1
 1454 1401 l 1,197,-1
 1452 1391 l 1,192,-1
EndSplineSet
EndChar

StartChar: uniE02E
Encoding: 57390 57390 89
Width: 1800
GlyphClass: 1
Flags: W
LayerCount: 2
Fore
SplineSet
600 1120 m 1,0,1
 629 985 629 985 603 893 c 0,2,3
 553 697 553 697 359 652 c 1,4,5
 164 697 164 697 116 899 c 1,6,7
 80 1015 80 1015 127 1121 c 1,8,9
 155 1205 155 1205 208 1201 c 1,10,-1
 827 1201 l 1,11,-1
 685 1482 l 1,12,-1
 514 1391 l 1,13,14
 482 1390 482 1390 479 1417 c 0,15,16
 479 1435 479 1435 506 1448 c 2,17,-1
 657 1530 l 1,18,-1
 604 1629 l 1,19,-1
 394 1515 l 1,20,21
 361 1515 361 1515 358 1543 c 0,22,23
 358 1560 358 1560 385 1573 c 2,24,-1
 618 1698 l 1,25,26
 649 1707 649 1707 670 1660 c 2,27,-1
 906 1201 l 1,28,-1
 908 1201 l 1,29,-1
 1144 1660 l 2,30,31
 1165 1707 1165 1707 1196 1698 c 1,32,-1
 1429 1573 l 2,33,34
 1456 1560 1456 1560 1456 1543 c 0,35,36
 1453 1515 1453 1515 1420 1515 c 1,37,-1
 1210 1629 l 1,38,-1
 1157 1530 l 1,39,-1
 1308 1448 l 2,40,41
 1335 1435 1335 1435 1335 1417 c 0,42,43
 1332 1390 1332 1390 1300 1391 c 1,44,-1
 1128 1482 l 1,45,-1
 987 1201 l 1,46,-1
 1593 1201 l 1,47,48
 1645 1205 1645 1205 1673 1121 c 1,49,50
 1721 1015 1721 1015 1685 899 c 1,51,52
 1636 697 1636 697 1442 652 c 1,53,54
 1247 697 1247 697 1198 893 c 0,55,56
 1172 985 1172 985 1201 1120 c 1,57,-1
 950 1120 l 1,58,-1
 1361 0 l 1,59,-1
 1266 0 l 1,60,-1
 907 1024 l 1,61,-1
 546 0 l 1,62,-1
 452 0 l 1,63,-1
 862 1120 l 1,64,-1
 600 1120 l 1,0,1
1305 1120 m 1,65,66
 1264 972 1264 972 1290 903 c 1,67,68
 1337 797 1337 797 1442 756 c 1,69,70
 1548 787 1548 787 1592 903 c 1,71,72
 1619 1062 1619 1062 1558 1120 c 1,73,-1
 1305 1120 l 1,65,66
353 1120 m 2,74,75
 348 1120 348 1120 344 1119 c 1,76,-1
 344 1120 l 1,77,-1
 243 1120 l 1,78,79
 182 1062 182 1062 209 903 c 1,80,81
 253 787 253 787 359 756 c 1,82,83
 464 797 464 797 511 903 c 1,84,85
 536 972 536 972 496 1120 c 1,86,-1
 353 1120 l 2,74,75
EndSplineSet
EndChar

StartChar: uniE02F
Encoding: 57391 57391 90
Width: 1800
GlyphClass: 1
Flags: W
LayerCount: 2
Fore
SplineSet
1362 1120 m 1,0,1
 1327 972 1327 972 1349 543 c 1,2,3
 1388 427 1388 427 1478 416 c 1,4,5
 1569 417 1569 417 1607 543 c 1,6,7
 1630 1063 1630 1063 1577 1120 c 1,8,-1
 1362 1120 l 1,0,1
350 1120 m 2,9,10
 345 1120 345 1120 341 1119 c 1,11,-1
 341 1120 l 1,12,-1
 222 1120 l 1,13,14
 169 1063 169 1063 192 543 c 1,15,16
 230 417 230 417 321 416 c 1,17,18
 411 427 411 427 451 543 c 1,19,20
 473 972 473 972 438 1120 c 1,21,-1
 350 1120 l 2,9,10
526 1120 m 1,22,23
 551 985 551 985 529 533 c 1,24,25
 488 337 488 337 321 321 c 1,26,27
 154 337 154 337 113 539 c 1,28,29
 82 1016 82 1016 123 1121 c 1,30,31
 147 1205 147 1205 192 1201 c 1,32,-1
 820 1201 l 1,33,-1
 679 1482 l 1,34,-1
 510 1391 l 1,35,36
 478 1390 478 1390 475 1417 c 0,37,38
 475 1435 475 1435 502 1448 c 2,39,-1
 651 1530 l 1,40,-1
 598 1629 l 1,41,-1
 391 1515 l 1,42,43
 358 1515 358 1515 355 1543 c 0,44,45
 355 1560 355 1560 382 1573 c 2,46,-1
 612 1699 l 1,47,48
 643 1708 643 1708 664 1660 c 2,49,-1
 898 1201 l 1,50,-1
 900 1201 l 1,51,-1
 1134 1660 l 2,52,53
 1155 1708 1155 1708 1186 1699 c 1,54,-1
 1416 1573 l 2,55,56
 1443 1560 1443 1560 1443 1543 c 0,57,58
 1440 1515 1440 1515 1407 1515 c 1,59,-1
 1200 1629 l 1,60,-1
 1147 1530 l 1,61,-1
 1297 1448 l 2,62,63
 1324 1435 1324 1435 1324 1417 c 0,64,65
 1321 1390 1321 1390 1289 1391 c 1,66,-1
 1119 1482 l 1,67,-1
 978 1201 l 1,68,-1
 1608 1201 l 1,69,70
 1652 1205 1652 1205 1677 1121 c 1,71,72
 1717 1016 1717 1016 1686 539 c 1,73,74
 1645 337 1645 337 1478 321 c 1,75,76
 1312 337 1312 337 1270 533 c 1,77,78
 1248 985 1248 985 1273 1120 c 1,79,-1
 1068 1120 l 1,80,-1
 1301 64 l 1,81,82
 1293 0 1293 0 1246 0 c 0,83,84
 1195 0 1195 0 1189 64 c 1,85,-1
 948 1120 l 1,86,-1
 839 1120 l 1,87,-1
 611 64 l 1,88,89
 603 0 603 0 556 0 c 0,90,91
 506 0 506 0 500 64 c 1,92,-1
 720 1120 l 1,93,-1
 526 1120 l 1,22,23
EndSplineSet
EndChar

StartChar: uniE030
Encoding: 57392 57392 91
Width: 1800
GlyphClass: 1
Flags: W
LayerCount: 2
Fore
SplineSet
1362 1118 m 1,0,1
 1327 971 1327 971 1349 542 c 1,2,3
 1388 426 1388 426 1478 415 c 1,4,5
 1569 416 1569 416 1607 542 c 1,6,7
 1630 1061 1630 1061 1577 1118 c 1,8,-1
 1362 1118 l 1,0,1
350 1118 m 2,9,10
 345 1118 345 1118 341 1117 c 1,11,-1
 341 1118 l 1,12,-1
 222 1118 l 1,13,14
 169 1061 169 1061 192 542 c 1,15,16
 230 416 230 416 321 415 c 1,17,18
 411 426 411 426 451 542 c 1,19,20
 473 971 473 971 438 1118 c 1,21,-1
 350 1118 l 2,9,10
526 1118 m 1,22,23
 551 984 551 984 529 532 c 1,24,25
 488 336 488 336 321 321 c 1,26,27
 154 336 154 336 113 538 c 1,28,29
 82 1014 82 1014 123 1119 c 1,30,31
 147 1203 147 1203 192 1199 c 1,32,-1
 589 1199 l 1,33,-1
 589 1473 l 1,34,-1
 375 1473 l 1,35,36
 346 1485 346 1485 356 1523 c 1,37,38
 366 1541 366 1541 394 1539 c 2,39,-1
 589 1539 l 1,40,-1
 589 1639 l 1,41,-1
 327 1639 l 1,42,43
 297 1656 297 1656 307 1682 c 0,44,45
 315 1701 315 1701 345 1700 c 2,46,-1
 673 1700 l 1,47,48
 705 1692 705 1692 702 1641 c 2,49,-1
 702 1199 l 1,50,-1
 1096 1199 l 1,51,-1
 1096 1641 l 2,52,53
 1093 1692 1093 1692 1125 1700 c 1,54,-1
 1453 1700 l 2,55,56
 1483 1701 1483 1701 1491 1682 c 0,57,58
 1501 1656 1501 1656 1471 1639 c 1,59,-1
 1209 1639 l 1,60,-1
 1209 1539 l 1,61,-1
 1404 1539 l 2,62,63
 1432 1541 1432 1541 1442 1523 c 1,64,65
 1452 1485 1452 1485 1423 1473 c 1,66,-1
 1209 1473 l 1,67,-1
 1209 1199 l 1,68,-1
 1608 1199 l 1,69,70
 1652 1203 1652 1203 1677 1119 c 1,71,72
 1717 1014 1717 1014 1686 538 c 1,73,74
 1645 336 1645 336 1478 321 c 1,75,76
 1312 336 1312 336 1270 532 c 1,77,78
 1248 984 1248 984 1273 1118 c 1,79,-1
 1109 1118 l 1,80,-1
 1109 63 l 1,81,82
 1105 0 1105 0 1052 0 c 256,83,84
 999 0 999 0 996 63 c 2,85,-1
 996 1118 l 1,86,-1
 802 1118 l 1,87,-1
 802 63 l 2,88,89
 799 0 799 0 746 0 c 256,90,91
 693 0 693 0 689 63 c 1,92,-1
 689 1118 l 1,93,-1
 526 1118 l 1,22,23
EndSplineSet
EndChar

StartChar: uniE031
Encoding: 57393 57393 92
Width: 1800
GlyphClass: 1
Flags: W
LayerCount: 2
Fore
SplineSet
1362 1118 m 1,0,1
 1327 971 1327 971 1349 542 c 1,2,3
 1388 426 1388 426 1478 415 c 1,4,5
 1569 416 1569 416 1607 542 c 1,6,7
 1630 1061 1630 1061 1577 1118 c 1,8,-1
 1362 1118 l 1,0,1
350 1118 m 2,9,10
 345 1118 345 1118 341 1117 c 1,11,-1
 341 1118 l 1,12,-1
 222 1118 l 1,13,14
 169 1061 169 1061 192 542 c 1,15,16
 230 416 230 416 321 415 c 1,17,18
 411 426 411 426 451 542 c 1,19,20
 473 971 473 971 438 1118 c 1,21,-1
 350 1118 l 2,9,10
526 1118 m 1,22,23
 551 984 551 984 529 532 c 1,24,25
 488 336 488 336 321 321 c 1,26,27
 154 336 154 336 113 538 c 1,28,29
 82 1014 82 1014 123 1119 c 1,30,31
 147 1203 147 1203 192 1199 c 1,32,-1
 689 1199 l 1,33,-1
 689 1473 l 1,34,-1
 475 1473 l 1,35,36
 446 1485 446 1485 456 1523 c 1,37,38
 466 1541 466 1541 494 1539 c 2,39,-1
 689 1539 l 1,40,-1
 689 1639 l 1,41,-1
 427 1639 l 1,42,43
 397 1656 397 1656 407 1682 c 0,44,45
 415 1701 415 1701 445 1700 c 2,46,-1
 773 1700 l 1,47,48
 805 1692 805 1692 802 1641 c 2,49,-1
 802 1199 l 1,50,-1
 996 1199 l 1,51,-1
 996 1641 l 2,52,53
 993 1692 993 1692 1025 1700 c 1,54,-1
 1354 1700 l 2,55,56
 1383 1701 1383 1701 1391 1682 c 0,57,58
 1401 1656 1401 1656 1372 1639 c 1,59,-1
 1109 1639 l 1,60,-1
 1109 1539 l 1,61,-1
 1305 1539 l 2,62,63
 1333 1541 1333 1541 1343 1523 c 1,64,65
 1353 1485 1353 1485 1324 1473 c 1,66,-1
 1109 1473 l 1,67,-1
 1109 1199 l 1,68,-1
 1608 1199 l 1,69,70
 1652 1203 1652 1203 1677 1119 c 1,71,72
 1717 1014 1717 1014 1686 538 c 1,73,74
 1645 336 1645 336 1478 321 c 1,75,76
 1312 336 1312 336 1270 532 c 1,77,78
 1248 984 1248 984 1273 1118 c 1,79,-1
 1109 1118 l 1,80,-1
 1109 63 l 1,81,82
 1105 0 1105 0 1052 0 c 256,83,84
 999 0 999 0 996 63 c 2,85,-1
 996 1118 l 1,86,-1
 802 1118 l 1,87,-1
 802 63 l 2,88,89
 799 0 799 0 746 0 c 256,90,91
 693 0 693 0 689 63 c 1,92,-1
 689 1118 l 1,93,-1
 526 1118 l 1,22,23
EndSplineSet
EndChar

StartChar: uniE032
Encoding: 57394 57394 93
Width: 1800
GlyphClass: 1
Flags: W
LayerCount: 2
Fore
SplineSet
526 1119 m 1,0,1
 551 985 551 985 529 633 c 1,2,3
 488 238 488 238 321 223 c 1,4,5
 154 238 154 238 113 639 c 1,6,7
 82 1015 82 1015 123 1120 c 1,8,9
 147 1204 147 1204 192 1200 c 1,10,-1
 689 1200 l 1,11,-1
 689 1474 l 1,12,-1
 475 1474 l 1,13,14
 446 1486 446 1486 456 1523 c 1,15,16
 466 1541 466 1541 494 1539 c 2,17,-1
 689 1539 l 1,18,-1
 689 1639 l 1,19,-1
 427 1639 l 1,20,21
 397 1656 397 1656 407 1682 c 0,22,23
 415 1701 415 1701 445 1700 c 2,24,-1
 773 1700 l 1,25,26
 805 1692 805 1692 802 1641 c 2,27,-1
 802 1200 l 1,28,-1
 996 1200 l 1,29,-1
 996 1641 l 2,30,31
 993 1692 993 1692 1025 1700 c 1,32,-1
 1354 1700 l 2,33,34
 1383 1701 1383 1701 1391 1682 c 0,35,36
 1401 1656 1401 1656 1372 1639 c 1,37,-1
 1109 1639 l 1,38,-1
 1109 1539 l 1,39,-1
 1305 1539 l 2,40,41
 1333 1541 1333 1541 1343 1523 c 1,42,43
 1353 1486 1353 1486 1324 1474 c 1,44,-1
 1109 1474 l 1,45,-1
 1109 1200 l 1,46,-1
 1608 1200 l 1,47,48
 1652 1204 1652 1204 1677 1120 c 1,49,50
 1717 1015 1717 1015 1686 639 c 1,51,52
 1645 238 1645 238 1478 223 c 1,53,54
 1312 238 1312 238 1270 633 c 1,55,56
 1248 985 1248 985 1273 1119 c 1,57,-1
 1109 1119 l 1,58,-1
 1109 648 l 1,59,-1
 1111 648 l 1,60,61
 1099 151 1099 151 1344 108 c 1,62,63
 1363 37 1363 37 1319 13 c 0,64,65
 1264 -18 1264 -18 1219 27 c 1,66,67
 994 136 994 136 997 648 c 1,68,-1
 996 648 l 1,69,-1
 996 1119 l 1,70,-1
 802 1119 l 1,71,-1
 802 648 l 1,72,-1
 801 648 l 1,73,74
 804 136 804 136 579 27 c 1,75,76
 534 -18 534 -18 480 13 c 0,77,78
 436 37 436 37 455 108 c 1,79,80
 699 151 699 151 687 648 c 1,81,-1
 689 648 l 1,82,-1
 689 1119 l 1,83,-1
 526 1119 l 1,0,1
1362 1119 m 1,84,85
 1327 972 1327 972 1349 643 c 1,86,87
 1388 328 1388 328 1478 317 c 1,88,89
 1569 318 1569 318 1607 643 c 1,90,91
 1630 1062 1630 1062 1577 1119 c 1,92,-1
 1362 1119 l 1,84,85
350 1119 m 2,93,94
 345 1119 345 1119 341 1118 c 1,95,-1
 341 1119 l 1,96,-1
 222 1119 l 1,97,98
 169 1062 169 1062 192 643 c 1,99,100
 230 318 230 318 321 317 c 1,101,102
 411 328 411 328 451 643 c 1,103,104
 473 972 473 972 438 1119 c 1,105,-1
 350 1119 l 2,93,94
EndSplineSet
EndChar

StartChar: uniE033
Encoding: 57395 57395 94
Width: 1800
GlyphClass: 1
Flags: W
LayerCount: 2
Fore
SplineSet
1613 563 m 1,0,1
 1610 774 1610 774 1500 915 c 1,2,3
 1390 774 1390 774 1385 563 c 1,4,5
 1390 353 1390 353 1500 212 c 1,6,7
 1610 353 1610 353 1613 563 c 1,0,1
403 563 m 1,8,9
 400 774 400 774 290 915 c 1,10,11
 180 774 180 774 175 563 c 1,12,13
 180 353 180 353 290 212 c 1,14,15
 400 353 400 353 403 563 c 1,8,9
1368 1259 m 1,16,-1
 1368 1081 l 1,17,-1
 1460 1081 l 1,18,-1
 1460 1244 l 2,19,20
 1459 1251 1459 1251 1460 1255 c 2,21,-1
 1460 1259 l 1,22,-1
 1368 1259 l 1,16,-1
1368 1340 m 1,23,-1
 1460 1340 l 1,24,-1
 1460 1639 l 1,25,-1
 1368 1639 l 1,26,-1
 1368 1340 l 1,23,-1
411 1259 m 1,27,-1
 352 1259 l 2,28,29
 332 1260 332 1260 329 1244 c 2,30,-1
 329 1081 l 1,31,-1
 411 1081 l 1,32,-1
 411 1259 l 1,27,-1
1292 1259 m 1,33,-1
 487 1259 l 1,34,-1
 487 1081 l 1,35,-1
 1292 1081 l 1,36,-1
 1292 1259 l 1,33,-1
487 1340 m 1,37,-1
 1292 1340 l 1,38,-1
 1292 1641 l 2,39,40
 1289 1692 1289 1692 1321 1700 c 1,41,-1
 1660 1700 l 2,42,43
 1689 1701 1689 1701 1697 1682 c 0,44,45
 1707 1656 1707 1656 1677 1639 c 1,46,-1
 1536 1639 l 1,47,-1
 1536 1539 l 1,48,-1
 1611 1539 l 2,49,50
 1639 1541 1639 1541 1649 1523 c 1,51,52
 1659 1485 1659 1485 1630 1473 c 1,53,-1
 1536 1473 l 1,54,-1
 1536 996 l 1,55,-1
 1539 996 l 1,56,57
 1678 842 1678 842 1683 587 c 1,58,-1
 1683 549 l 1,59,60
 1677 259 1677 259 1500 100 c 1,61,62
 1323 259 1323 259 1316 549 c 1,63,-1
 1316 587 l 1,64,65
 1322 843 1322 843 1460 996 c 1,66,-1
 1460 1000 l 1,67,-1
 1102 1000 l 1,68,-1
 1102 63 l 1,69,70
 1098 0 1098 0 1046 0 c 0,71,72
 993 0 993 0 990 63 c 2,73,-1
 990 1000 l 1,74,-1
 799 1000 l 1,75,-1
 799 63 l 2,76,77
 796 0 796 0 744 0 c 0,78,79
 691 0 691 0 687 63 c 1,80,-1
 687 1000 l 1,81,-1
 329 1000 l 1,82,-1
 329 996 l 1,83,84
 468 843 468 843 473 587 c 1,85,-1
 473 549 l 1,86,87
 467 259 467 259 290 100 c 1,88,89
 113 259 113 259 106 549 c 1,90,-1
 106 587 l 1,91,92
 112 846 112 846 253 1000 c 1,93,-1
 253 1473 l 1,94,-1
 169 1473 l 1,95,96
 140 1485 140 1485 150 1523 c 1,97,98
 160 1541 160 1541 188 1539 c 2,99,-1
 253 1539 l 1,100,-1
 253 1639 l 1,101,-1
 122 1639 l 1,102,103
 92 1656 92 1656 102 1682 c 0,104,105
 110 1701 110 1701 139 1700 c 2,106,-1
 300 1700 l 1,107,108
 332 1692 332 1692 329 1641 c 2,109,-1
 329 1538 l 1,110,111
 336 1540 336 1540 346 1539 c 2,112,-1
 411 1539 l 1,113,-1
 411 1700 l 1,114,-1
 458 1700 l 1,115,116
 490 1692 490 1692 487 1641 c 2,117,-1
 487 1340 l 1,37,-1
411 1340 m 1,118,-1
 411 1473 l 1,119,-1
 329 1473 l 1,120,-1
 329 1340 l 1,121,-1
 411 1340 l 1,118,-1
EndSplineSet
EndChar

StartChar: uniE034
Encoding: 57396 57396 95
Width: 1800
GlyphClass: 1
Flags: W
LayerCount: 2
Fore
SplineSet
171 658 m 1,0,1
 174 448 174 448 286 307 c 1,2,3
 397 448 397 448 402 658 c 1,4,5
 397 864 397 864 291 1003 c 1,6,7
 174 864 174 864 171 658 c 1,0,1
1509 1003 m 1,8,9
 1403 864 1403 864 1398 658 c 1,10,11
 1403 448 1403 448 1514 307 c 1,12,13
 1626 448 1626 448 1629 658 c 1,14,15
 1626 864 1626 864 1509 1003 c 1,8,9
803 1257 m 1,16,-1
 803 68 l 2,17,18
 800 0 800 0 747 0 c 256,19,20
 694 0 694 0 690 68 c 1,21,-1
 690 1239 l 1,22,23
 515 1199 515 1199 350 1073 c 1,24,25
 467 915 467 915 472 682 c 1,26,-1
 472 644 l 1,27,28
 465 354 465 354 286 195 c 1,29,30
 106 354 106 354 100 644 c 1,31,-1
 100 682 l 1,32,33
 107 938 107 938 264 1103 c 1,34,35
 421 1278 421 1278 690 1326 c 1,36,-1
 690 1473 l 1,37,-1
 475 1473 l 1,38,39
 446 1485 446 1485 456 1523 c 1,40,41
 466 1541 466 1541 494 1539 c 2,42,-1
 690 1539 l 1,43,-1
 690 1639 l 1,44,-1
 427 1639 l 1,45,46
 397 1656 397 1656 407 1682 c 0,47,48
 415 1701 415 1701 445 1700 c 2,49,-1
 774 1700 l 1,50,51
 806 1692 806 1692 803 1641 c 2,52,-1
 803 1340 l 1,53,54
 850 1344 850 1344 900 1344 c 256,55,56
 950 1344 950 1344 997 1340 c 1,57,-1
 997 1641 l 2,58,59
 994 1692 994 1692 1026 1700 c 1,60,-1
 1355 1700 l 2,61,62
 1385 1701 1385 1701 1393 1682 c 0,63,64
 1403 1656 1403 1656 1373 1639 c 1,65,-1
 1110 1639 l 1,66,-1
 1110 1539 l 1,67,-1
 1306 1539 l 2,68,69
 1334 1541 1334 1541 1344 1523 c 1,70,71
 1354 1485 1354 1485 1325 1473 c 1,72,-1
 1110 1473 l 1,73,-1
 1110 1326 l 1,74,75
 1379 1278 1379 1278 1536 1103 c 1,76,77
 1693 938 1693 938 1700 682 c 1,78,-1
 1700 644 l 1,79,80
 1694 354 1694 354 1514 195 c 1,81,82
 1335 354 1335 354 1328 644 c 1,83,-1
 1328 682 l 1,84,85
 1333 915 1333 915 1450 1073 c 1,86,87
 1285 1199 1285 1199 1110 1239 c 1,88,-1
 1110 68 l 1,89,90
 1106 0 1106 0 1053 0 c 256,91,92
 1000 0 1000 0 997 68 c 2,93,-1
 997 1257 l 1,94,95
 949 1261 949 1261 900 1258 c 1,96,97
 851 1261 851 1261 803 1257 c 1,16,-1
EndSplineSet
EndChar

StartChar: uniE035
Encoding: 57397 57397 96
Width: 1800
GlyphClass: 1
Flags: W
LayerCount: 2
Fore
SplineSet
1050 691 m 1,0,-1
 1268 105 l 1,1,2
 1287 34 1287 34 1243 10 c 0,3,4
 1188 -21 1188 -21 1143 42 c 1,5,-1
 930 635 l 1,6,7
 949 731 949 731 1050 691 c 1,0,-1
709 1065 m 1,8,9
 693 1103 693 1103 684 1123 c 1,10,11
 364 1060 364 1060 241 875 c 0,12,13
 135 713 135 713 214 629 c 1,14,15
 301 582 301 582 453 703 c 0,16,17
 626 843 626 843 709 1065 c 1,8,9
1153 1207 m 1,18,19
 1463 1155 1463 1155 1628 919 c 1,20,21
 1763 686 1763 686 1644 563 c 1,22,23
 1514 463 1514 463 1304 622 c 1,24,25
 1152 732 1152 732 1047 967 c 1,26,27
 1019 901 1019 901 976 801 c 1,28,-1
 824 801 l 1,29,30
 781 901 781 901 752 968 c 1,31,32
 648 732 648 732 496 622 c 1,33,34
 286 463 286 463 156 563 c 1,35,36
 37 686 37 686 172 919 c 1,37,38
 337 1155 337 1155 647 1207 c 1,39,40
 569 1384 569 1384 540 1441 c 1,41,-1
 313 1341 l 1,42,43
 281 1340 281 1340 278 1367 c 0,44,45
 278 1385 278 1385 305 1398 c 2,46,-1
 502 1499 l 1,47,48
 475 1555 475 1555 451 1590 c 1,49,-1
 146 1462 l 1,50,51
 113 1462 113 1462 100 1510 c 1,52,53
 100 1527 100 1527 127 1540 c 2,54,-1
 510 1700 l 1,55,56
 631 1463 631 1463 900 858 c 1,57,58
 1169 1463 1169 1463 1290 1700 c 1,59,-1
 1673 1540 l 2,60,61
 1700 1527 1700 1527 1700 1510 c 1,62,63
 1687 1462 1687 1462 1654 1462 c 1,64,-1
 1349 1590 l 1,65,66
 1325 1555 1325 1555 1298 1499 c 1,67,-1
 1495 1398 l 2,68,69
 1522 1385 1522 1385 1522 1367 c 0,70,71
 1519 1340 1519 1340 1487 1341 c 1,72,-1
 1260 1441 l 1,73,74
 1231 1384 1231 1384 1153 1207 c 1,18,19
1091 1065 m 1,75,76
 1174 843 1174 843 1347 703 c 0,77,78
 1499 582 1499 582 1586 629 c 1,79,80
 1665 713 1665 713 1559 875 c 0,81,82
 1436 1060 1436 1060 1113 1123 c 1,83,84
 1107 1103 1107 1103 1091 1065 c 1,75,76
871 635 m 1,85,-1
 658 42 l 1,86,87
 613 -21 613 -21 558 10 c 0,88,89
 514 34 514 34 533 105 c 1,90,-1
 751 691 l 1,91,92
 852 731 852 731 871 635 c 1,85,-1
EndSplineSet
EndChar

StartChar: uniE036
Encoding: 57398 57398 97
Width: 1800
GlyphClass: 1
Flags: W
LayerCount: 2
Fore
SplineSet
981 801 m 1,0,1
 1035 650 1035 650 1278 496 c 1,2,3
 1554 415 1554 415 1604 544 c 1,4,5
 1623 638 1623 638 1484 727 c 0,6,7
 1233 883 1233 883 896 871 c 1,8,9
 567 883 567 883 316 727 c 0,10,11
 177 638 177 638 196 544 c 1,12,13
 246 415 246 415 522 496 c 1,14,15
 765 640 765 640 818 801 c 1,16,-1
 981 801 l 1,0,1
899 959 m 1,17,18
 1163 1465 1163 1465 1283 1700 c 1,19,-1
 1663 1541 l 2,20,21
 1690 1527 1690 1527 1690 1510 c 1,22,23
 1677 1462 1677 1462 1644 1462 c 1,24,-1
 1341 1591 l 1,25,26
 1317 1556 1317 1556 1291 1499 c 1,27,-1
 1486 1398 l 2,28,29
 1513 1385 1513 1385 1513 1367 c 0,30,31
 1510 1340 1510 1340 1478 1341 c 1,32,-1
 1253 1441 l 1,33,34
 1203 1341 1203 1341 1000 958 c 1,35,36
 1352 946 1352 946 1556 785 c 1,37,38
 1740 630 1740 630 1689 491 c 1,39,40
 1609 313 1609 313 1296 386 c 1,41,42
 1109 472 1109 472 997 627 c 1,43,44
 1078 268 1078 268 1311 104 c 1,45,46
 1329 33 1329 33 1286 9 c 0,47,48
 1240 -14 1240 -14 1193 27 c 0,49,50
 940 262 940 262 902 498 c 1,51,52
 862 264 862 264 588 7 c 1,53,54
 559 -8 559 -8 525 9 c 0,55,56
 482 33 482 33 499 104 c 1,57,58
 723 283 723 283 818 648 c 1,59,60
 704 478 704 478 503 386 c 1,61,62
 191 313 191 313 111 491 c 1,63,64
 60 630 60 630 244 785 c 1,65,66
 445 943 445 943 790 958 c 1,67,68
 587 1341 587 1341 537 1441 c 1,69,-1
 312 1341 l 1,70,71
 280 1340 280 1340 277 1367 c 0,72,73
 277 1385 277 1385 304 1398 c 2,74,-1
 499 1499 l 1,75,76
 473 1556 473 1556 449 1591 c 1,77,-1
 146 1462 l 1,78,79
 113 1462 113 1462 100 1510 c 1,80,81
 100 1527 100 1527 127 1541 c 2,82,-1
 507 1700 l 1,83,84
 627 1465 627 1465 891 959 c 1,85,-1
 899 959 l 1,17,18
EndSplineSet
EndChar

StartChar: uniE037
Encoding: 57399 57399 98
Width: 1800
GlyphClass: 1
Flags: W
LayerCount: 2
Fore
SplineSet
899 952 m 1,0,1
 1167 1464 1167 1464 1288 1701 c 1,2,-1
 1670 1541 l 2,3,4
 1697 1528 1697 1528 1697 1511 c 1,5,6
 1684 1463 1684 1463 1651 1463 c 1,7,-1
 1347 1591 l 1,8,9
 1323 1556 1323 1556 1296 1500 c 1,10,-1
 1493 1399 l 2,11,12
 1520 1386 1520 1386 1520 1368 c 0,13,14
 1517 1341 1517 1341 1485 1342 c 1,15,-1
 1258 1442 l 1,16,17
 1231 1387 1231 1387 1157 1248 c 1,18,19
 1321 1188 1321 1188 1523 1003 c 1,20,21
 1730 788 1730 788 1694 578 c 1,22,23
 1577 491 1577 491 1222 633 c 1,24,25
 1093 712 1093 712 1029 761 c 1,26,-1
 1309 106 l 1,27,28
 1328 35 1328 35 1285 11 c 0,29,30
 1229 -20 1229 -20 1184 43 c 1,31,-1
 899 753 l 1,32,-1
 586 43 l 1,33,34
 541 -20 541 -20 486 11 c 0,35,36
 442 35 442 35 461 106 c 1,37,-1
 760 753 l 1,38,39
 695 706 695 706 577 633 c 1,40,41
 223 491 223 491 105 578 c 1,42,43
 69 788 69 788 277 1003 c 1,44,45
 477 1187 477 1187 640 1247 c 1,46,47
 567 1387 567 1387 539 1442 c 1,48,-1
 313 1342 l 1,49,50
 281 1341 281 1341 278 1368 c 0,51,52
 278 1386 278 1386 305 1399 c 2,53,-1
 501 1500 l 1,54,55
 474 1556 474 1556 450 1591 c 1,56,-1
 146 1463 l 1,57,58
 113 1463 113 1463 100 1511 c 1,59,60
 100 1528 100 1528 127 1541 c 2,61,-1
 509 1701 l 1,62,63
 630 1464 630 1464 899 952 c 1,0,1
813 920 m 1,64,65
 738 1063 738 1063 682 1168 c 1,66,67
 527 1106 527 1106 362 965 c 1,68,69
 172 773 172 773 185 657 c 1,70,71
 271 614 271 614 543 729 c 1,72,73
 719 820 719 820 808 914 c 0,74,75
 810 917 810 917 813 920 c 1,64,65
1116 1170 m 1,76,77
 1061 1064 1061 1064 985 922 c 1,78,-1
 992 914 l 1,79,80
 1080 820 1080 820 1256 729 c 1,81,82
 1529 614 1529 614 1615 657 c 1,83,84
 1627 773 1627 773 1437 965 c 1,85,86
 1272 1107 1272 1107 1116 1169 c 1,87,-1
 1116 1170 l 1,76,77
EndSplineSet
EndChar

StartChar: uniE038
Encoding: 57400 57400 99
Width: 1800
GlyphClass: 1
Flags: W
LayerCount: 2
Fore
SplineSet
992 745 m 1,0,1
 1061 657 1061 657 1112 620 c 1,2,3
 1203 541 1203 541 1289 510 c 128,-1,4
 1375 479 1375 479 1437.5 512.5 c 128,-1,5
 1500 546 1500 546 1500.5 619.5 c 128,-1,6
 1501 693 1501 693 1429 805.5 c 128,-1,7
 1357 918 1357 918 1203 1088 c 0,8,9
 1173 1121 1173 1121 1144 1155 c 1,10,11
 1082 992 1082 992 992 745 c 1,0,1
808 744 m 1,12,13
 717 994 717 994 655 1157 c 1,14,15
 624 1122 624 1122 594 1088 c 0,16,17
 439 918 439 918 367.5 805.5 c 128,-1,18
 296 693 296 693 297 619.5 c 128,-1,19
 298 546 298 546 360 512.5 c 128,-1,20
 422 479 422 479 507.5 510 c 128,-1,21
 593 541 593 541 685 611 c 1,22,23
 747 667 747 667 808 744 c 1,12,13
1118 1313 m 1,24,25
 1225 1573 1225 1573 1290 1700 c 1,26,-1
 1673 1541 l 2,27,28
 1700 1527 1700 1527 1700 1510 c 1,29,30
 1687 1462 1687 1462 1654 1462 c 1,31,-1
 1349 1591 l 1,32,33
 1325 1556 1325 1556 1298 1499 c 1,34,-1
 1495 1398 l 2,35,36
 1522 1385 1522 1385 1522 1367 c 0,37,38
 1519 1340 1519 1340 1487 1341 c 1,39,-1
 1260 1441 l 1,40,41
 1236 1393 1236 1393 1177 1241 c 1,42,43
 1211 1202 1211 1202 1245 1164 c 0,44,45
 1421 969 1421 969 1504.5 840 c 128,-1,46
 1588 711 1588 711 1573 593.5 c 128,-1,47
 1558 476 1558 476 1470.5 427.5 c 128,-1,48
 1383 379 1383 379 1261.5 419 c 128,-1,49
 1140 459 1140 459 1038 590 c 0,50,51
 1014 616 1014 616 993 638 c 1,52,53
 1073 271 1073 271 1312 104 c 1,54,55
 1330 33 1330 33 1286 9 c 0,56,57
 1240 -14 1240 -14 1193 27 c 0,58,59
 938 262 938 262 900 498 c 1,60,61
 861 264 861 264 585 7 c 1,62,63
 556 -8 556 -8 522 9 c 0,64,65
 478 33 478 33 496 104 c 1,66,67
 721 283 721 283 816 647 c 1,68,69
 789 620 789 620 759 590 c 1,70,71
 657 459 657 459 536 419 c 128,-1,72
 415 379 415 379 327 427.5 c 128,-1,73
 239 476 239 476 223.5 593.5 c 128,-1,74
 208 711 208 711 292 840 c 128,-1,75
 376 969 376 969 552 1164 c 0,76,77
 587 1203 587 1203 622 1244 c 1,78,79
 564 1394 564 1394 540 1441 c 1,80,-1
 313 1341 l 1,81,82
 281 1340 281 1340 278 1367 c 0,83,84
 278 1385 278 1385 305 1398 c 2,85,-1
 502 1499 l 1,86,87
 475 1556 475 1556 451 1591 c 1,88,-1
 146 1462 l 1,89,90
 113 1462 113 1462 100 1510 c 1,91,92
 100 1527 100 1527 127 1541 c 2,93,-1
 510 1700 l 1,94,95
 575 1574 575 1574 681 1316 c 1,96,97
 791 1451 791 1451 899 1607 c 1,98,99
 1007 1449 1007 1449 1118 1313 c 1,24,25
927 834 m 1,100,101
 1013 1056 1013 1056 1083 1228 c 1,102,103
 990 1341 990 1341 899 1468 c 1,104,105
 808 1342 808 1342 716 1230 c 1,106,107
 787 1057 787 1057 874 833 c 1,108,109
 887 852 887 852 900 873 c 1,110,111
 914 852 914 852 927 834 c 1,100,101
EndSplineSet
EndChar

StartChar: uniE039
Encoding: 57401 57401 100
Width: 2100
GlyphClass: 1
Flags: W
LayerCount: 2
Fore
SplineSet
956 1200 m 1,0,-1
 699 1200 l 1,1,-1
 822 1062 l 1,2,-1
 956 1200 l 1,0,-1
1633 1200 m 1,3,-1
 1757 1062 l 1,4,-1
 1871 1200 l 1,5,-1
 1633 1200 l 1,3,-1
1161 1200 m 1,6,-1
 1294 1062 l 1,7,-1
 1418 1200 l 1,8,-1
 1161 1200 l 1,6,-1
467 1200 m 1,9,-1
 229 1200 l 1,10,-1
 343 1062 l 1,11,-1
 467 1200 l 1,9,-1
819 164 m 1,12,-1
 980 1111 l 1,13,-1
 822 952 l 1,14,-1
 647 1134 l 1,15,-1
 647 618 l 1,16,-1
 819 164 l 1,12,-1
1343 9 m 1,17,-1
 1345 0 l 1,18,-1
 791 0 l 1,19,-1
 791 1 l 1,20,21
 755 -2 755 -2 724 39 c 1,22,-1
 579 481 l 1,23,-1
 421 39 l 1,24,25
 377 -18 377 -18 323 10 c 0,26,27
 281 31 281 31 300 95 c 1,28,-1
 511 618 l 1,29,-1
 511 1132 l 1,30,-1
 347 952 l 1,31,-1
 107 1227 l 1,32,33
 87 1279 87 1279 121 1296 c 1,34,-1
 511 1296 l 1,35,-1
 511 1637 l 1,36,37
 528 1700 528 1700 579 1700 c 0,38,39
 638 1700 638 1700 647 1631 c 1,40,-1
 647 1296 l 1,41,-1
 1452 1296 l 1,42,-1
 1452 1631 l 1,43,44
 1461 1700 1461 1700 1520 1700 c 0,45,46
 1571 1700 1571 1700 1588 1637 c 1,47,-1
 1588 1296 l 1,48,-1
 1978 1296 l 1,49,50
 2012 1279 2012 1279 1992 1227 c 1,51,-1
 1753 952 l 1,52,-1
 1588 1133 l 1,53,-1
 1588 618 l 1,54,-1
 1799 95 l 1,55,56
 1818 31 1818 31 1777 10 c 0,57,58
 1723 -18 1723 -18 1679 39 c 1,59,-1
 1520 481 l 1,60,-1
 1375 39 l 1,61,62
 1360 19 1360 19 1343 9 c 1,17,-1
1247 70 m 1,63,-1
 1219 200 l 1,64,-1
 911 200 l 1,65,-1
 889 70 l 1,66,-1
 1247 70 l 1,63,-1
1204 270 m 1,67,-1
 1173 415 l 1,68,-1
 946 415 l 1,69,-1
 922 270 l 1,70,-1
 1204 270 l 1,67,-1
1158 485 m 1,71,-1
 1133 605 l 1,72,-1
 978 605 l 1,73,-1
 958 485 l 1,74,-1
 1158 485 l 1,71,-1
1118 675 m 1,75,-1
 1090 802 l 1,76,-1
 1010 802 l 1,77,-1
 989 675 l 1,78,-1
 1118 675 l 1,75,-1
1076 871 m 1,79,-1
 1045 1013 l 1,80,-1
 1022 871 l 1,81,-1
 1076 871 l 1,79,-1
1101 1130 m 1,82,-1
 1299 214 l 1,83,-1
 1452 618 l 1,84,-1
 1452 1133 l 1,85,-1
 1277 952 l 1,86,-1
 1101 1130 l 1,82,-1
EndSplineSet
EndChar

StartChar: uniE03A
Encoding: 57402 57402 101
Width: 1500
GlyphClass: 1
Flags: W
LayerCount: 2
Fore
SplineSet
680 1377 m 1,0,-1
 300 1142 l 1,1,-1
 300 1161 l 1,2,3
 296 1241 296 1241 369 1276 c 1,4,-1
 680 1461 l 1,5,-1
 680 1623 l 1,6,7
 688 1700 688 1700 752 1700 c 0,8,9
 802 1700 802 1700 820 1629 c 1,10,-1
 820 1461 l 1,11,-1
 1131 1276 l 1,12,13
 1204 1241 1204 1241 1200 1161 c 1,14,-1
 1200 1142 l 1,15,-1
 820 1377 l 1,16,-1
 820 1042 l 1,17,-1
 1331 1042 l 2,18,19
 1404 1043 1404 1043 1400 979 c 1,20,-1
 1400 751 l 1,21,22
 1404 721 1404 721 1360 713 c 1,23,24
 1315 721 1315 721 1319 751 c 1,25,-1
 1319 961 l 1,26,-1
 1213 961 l 1,27,-1
 1213 751 l 1,28,29
 1217 721 1217 721 1173 713 c 1,30,31
 1128 721 1128 721 1132 751 c 1,32,-1
 1132 961 l 1,33,-1
 1019 961 l 1,34,-1
 1019 751 l 1,35,36
 1023 721 1023 721 979 713 c 1,37,38
 934 721 934 721 938 751 c 1,39,-1
 938 961 l 1,40,-1
 820 961 l 1,41,-1
 820 901 l 1,42,-1
 1162 106 l 1,43,44
 1349 79 1349 79 1356 180 c 1,45,46
 1389 193 1389 193 1392 137 c 0,47,48
 1392 77 1392 77 1345 52 c 1,49,50
 1128 -13 1128 -13 1083 3 c 0,51,52
 1057 12 1057 12 1039 41 c 1,53,-1
 1036 43 l 1,54,-1
 1034 49 l 2,55,56
 1024 67 1024 67 1016 92 c 2,57,-1
 750 751 l 1,58,-1
 472 121 l 1,59,-1
 470 116 l 1,60,61
 612 17 612 17 672 104 c 1,62,63
 707 98 707 98 681 49 c 0,64,65
 650 -3 650 -3 597 0 c 1,66,67
 367 38 367 38 318 129 c 1,68,-1
 349 195 l 1,69,-1
 680 901 l 1,70,-1
 680 961 l 1,71,-1
 561 961 l 1,72,-1
 561 751 l 1,73,74
 565 721 565 721 520 713 c 1,75,76
 476 721 476 721 480 751 c 1,77,-1
 480 961 l 1,78,-1
 368 961 l 1,79,-1
 368 751 l 1,80,81
 372 721 372 721 327 713 c 1,82,83
 283 721 283 721 287 751 c 1,84,-1
 287 961 l 1,85,-1
 181 961 l 1,86,-1
 181 751 l 1,87,88
 185 721 185 721 140 713 c 1,89,90
 96 721 96 721 100 751 c 1,91,-1
 100 979 l 1,92,93
 96 1043 96 1043 169 1042 c 2,94,-1
 680 1042 l 1,95,-1
 680 1377 l 1,0,-1
EndSplineSet
EndChar

StartChar: uniE03B
Encoding: 57403 57403 102
Width: 1500
GlyphClass: 1
Flags: W
LayerCount: 2
Fore
SplineSet
679 1373 m 1,0,-1
 300 1138 l 1,1,-1
 300 1157 l 1,2,3
 296 1237 296 1237 369 1272 c 1,4,-1
 679 1457 l 1,5,-1
 679 1618 l 1,6,7
 687 1695 687 1695 751 1695 c 0,8,9
 801 1695 801 1695 819 1624 c 1,10,-1
 819 1456 l 1,11,-1
 1129 1272 l 1,12,13
 1202 1237 1202 1237 1198 1157 c 1,14,-1
 1198 1138 l 1,15,-1
 819 1373 l 1,16,-1
 819 1039 l 1,17,-1
 1329 1039 l 2,18,19
 1402 1040 1402 1040 1398 976 c 1,20,-1
 1398 749 l 1,21,22
 1402 719 1402 719 1358 711 c 1,23,24
 1313 719 1313 719 1317 749 c 1,25,-1
 1317 958 l 1,26,-1
 1118 958 l 1,27,-1
 1118 749 l 1,28,29
 1122 719 1122 719 1078 711 c 1,30,31
 1033 719 1033 719 1037 749 c 1,32,-1
 1037 958 l 1,33,-1
 819 958 l 1,34,-1
 819 899 l 1,35,-1
 1130 176 l 1,36,-1
 1130 175 l 1,37,38
 1331 94 1331 94 1360 336 c 1,39,40
 1397 350 1397 350 1400 287 c 0,41,42
 1400 185 1400 185 1316 109 c 128,-1,43
 1232 33 1232 33 1102 45 c 0,44,45
 1098 42 1098 42 1095 43 c 0,46,47
 989 -39 989 -39 914 18 c 0,48,49
 859 62 859 62 900 129 c 1,50,51
 960 13 960 13 1004 114 c 1,52,-1
 749 749 l 1,53,-1
 477 128 l 1,54,-1
 492 121 l 1,55,-1
 490 116 l 1,56,57
 681 37 681 37 741 154 c 1,58,59
 776 148 776 148 750 99 c 1,60,61
 719 -3 719 -3 666 0 c 0,62,63
 387 18 387 18 218 149 c 1,64,-1
 249 305 l 1,65,66
 322 333 322 333 306 206 c 1,67,-1
 350 192 l 1,68,-1
 679 899 l 1,69,-1
 679 958 l 1,70,-1
 461 958 l 1,71,-1
 461 749 l 1,72,73
 465 719 465 719 420 711 c 1,74,75
 376 719 376 719 380 749 c 1,76,-1
 380 958 l 1,77,-1
 181 958 l 1,78,-1
 181 749 l 1,79,80
 185 719 185 719 140 711 c 1,81,82
 96 719 96 719 100 749 c 1,83,-1
 100 976 l 1,84,85
 96 1040 96 1040 169 1039 c 2,86,-1
 679 1039 l 1,87,-1
 679 1373 l 1,0,-1
EndSplineSet
EndChar

StartChar: uniE03C
Encoding: 57404 57404 103
Width: 1500
GlyphClass: 1
Flags: W
LayerCount: 2
Fore
SplineSet
680 1378 m 1,0,-1
 300 1142 l 1,1,-1
 300 1161 l 1,2,3
 296 1241 296 1241 369 1276 c 1,4,-1
 680 1461 l 1,5,-1
 680 1623 l 1,6,7
 688 1700 688 1700 752 1700 c 0,8,9
 802 1700 802 1700 820 1629 c 1,10,-1
 820 1461 l 1,11,-1
 1131 1276 l 1,12,13
 1204 1241 1204 1241 1200 1161 c 1,14,-1
 1200 1142 l 1,15,-1
 820 1377 l 1,16,-1
 820 1042 l 1,17,-1
 1331 1042 l 2,18,19
 1404 1043 1404 1043 1400 979 c 1,20,-1
 1400 751 l 1,21,22
 1404 721 1404 721 1360 713 c 1,23,24
 1315 721 1315 721 1319 751 c 1,25,-1
 1319 961 l 1,26,-1
 1120 961 l 1,27,-1
 1120 751 l 1,28,29
 1124 721 1124 721 1080 713 c 1,30,31
 1034 721 1034 721 1038 751 c 1,32,-1
 1038 961 l 1,33,-1
 820 961 l 1,34,-1
 820 902 l 1,35,-1
 1116 213 l 1,36,-1
 1162 239 l 2,37,38
 1320 331 1320 331 1242 423 c 1,39,40
 1269 453 1269 453 1302 415 c 0,41,42
 1372 336 1372 336 1344 298 c 0,43,44
 1227 123 1227 123 1039 31 c 1,45,-1
 996 143 l 1,46,-1
 750 751 l 1,47,-1
 484 149 l 1,48,-1
 559 116 l 1,49,50
 724 37 724 37 756 154 c 1,51,52
 796 148 796 148 784 99 c 0,53,54
 757 -3 757 -3 711 0 c 0,55,56
 500 -2 500 -2 308 109 c 1,57,-1
 354 206 l 1,58,-1
 680 902 l 1,59,-1
 680 961 l 1,60,-1
 461 961 l 1,61,-1
 461 751 l 1,62,63
 465 721 465 721 420 713 c 1,64,65
 376 721 376 721 380 751 c 1,66,-1
 380 961 l 1,67,-1
 181 961 l 1,68,-1
 181 751 l 1,69,70
 185 721 185 721 140 713 c 1,71,72
 96 721 96 721 100 751 c 1,73,-1
 100 979 l 1,74,75
 96 1043 96 1043 169 1042 c 2,76,-1
 680 1042 l 1,77,-1
 680 1378 l 1,0,-1
EndSplineSet
EndChar

StartChar: uniE03D
Encoding: 57405 57405 104
Width: 1650
GlyphClass: 1
Flags: W
LayerCount: 2
Fore
SplineSet
830 1378 m 1,0,-1
 450 1142 l 1,1,-1
 450 1161 l 1,2,3
 446 1241 446 1241 519 1276 c 1,4,-1
 830 1462 l 1,5,-1
 830 1623 l 1,6,7
 838 1700 838 1700 902 1700 c 0,8,9
 952 1700 952 1700 970 1629 c 1,10,-1
 970 1461 l 1,11,-1
 1280 1276 l 1,12,13
 1353 1241 1353 1241 1349 1161 c 1,14,-1
 1349 1142 l 1,15,-1
 970 1377 l 1,16,-1
 970 1042 l 1,17,-1
 1481 1042 l 2,18,19
 1554 1043 1554 1043 1550 979 c 1,20,-1
 1550 751 l 1,21,22
 1554 721 1554 721 1510 713 c 1,23,24
 1465 721 1465 721 1469 751 c 1,25,-1
 1469 961 l 1,26,-1
 1362 961 l 1,27,-1
 1362 751 l 1,28,29
 1366 721 1366 721 1322 713 c 1,30,31
 1277 721 1277 721 1281 751 c 1,32,-1
 1281 961 l 1,33,-1
 1169 961 l 1,34,-1
 1169 751 l 1,35,36
 1173 721 1173 721 1129 713 c 1,37,38
 1084 721 1084 721 1088 751 c 1,39,-1
 1088 961 l 1,40,-1
 970 961 l 1,41,-1
 970 902 l 1,42,-1
 1311 106 l 1,43,44
 1330 35 1330 35 1287 11 c 0,45,46
 1278 2 1278 2 1264 0 c 2,47,-1
 911 0 l 2,48,49
 889 2 889 2 882 27 c 0,50,51
 850 123 850 123 850 231 c 1,52,-1
 903 231 l 1,53,-1
 950 100 l 1,54,-1
 1152 100 l 1,55,-1
 1159 111 l 1,56,-1
 900 751 l 1,57,-1
 602 67 l 2,58,59
 575 8 575 8 536 0 c 1,60,-1
 129 0 l 2,61,62
 98 2 98 2 100 27 c 1,63,64
 138 153 138 153 218 302 c 1,65,-1
 291 302 l 1,66,-1
 208 100 l 1,67,-1
 459 100 l 1,68,-1
 830 902 l 1,69,-1
 830 961 l 1,70,-1
 711 961 l 1,71,-1
 711 751 l 1,72,73
 715 721 715 721 670 713 c 1,74,75
 626 721 626 721 630 751 c 1,76,-1
 630 961 l 1,77,-1
 518 961 l 1,78,-1
 518 751 l 1,79,80
 522 721 522 721 477 713 c 1,81,82
 433 721 433 721 437 751 c 1,83,-1
 437 961 l 1,84,-1
 331 961 l 1,85,-1
 331 751 l 1,86,87
 335 721 335 721 290 713 c 1,88,89
 246 721 246 721 250 751 c 1,90,-1
 250 979 l 1,91,92
 246 1043 246 1043 319 1042 c 2,93,-1
 830 1042 l 1,94,-1
 830 1378 l 1,0,-1
EndSplineSet
EndChar

StartChar: uniE03E
Encoding: 57406 57406 105
Width: 1500
GlyphClass: 1
Flags: W
LayerCount: 2
Fore
SplineSet
680 1377 m 1,0,-1
 300 1142 l 1,1,-1
 300 1161 l 1,2,3
 296 1241 296 1241 369 1276 c 1,4,-1
 680 1461 l 1,5,-1
 680 1623 l 1,6,7
 688 1700 688 1700 752 1700 c 0,8,9
 802 1700 802 1700 820 1629 c 1,10,-1
 820 1461 l 1,11,-1
 1130 1276 l 1,12,13
 1203 1241 1203 1241 1199 1161 c 1,14,-1
 1199 1142 l 1,15,-1
 820 1377 l 1,16,-1
 820 1042 l 1,17,-1
 1330 1042 l 2,18,19
 1403 1043 1403 1043 1399 979 c 1,20,-1
 1399 751 l 1,21,22
 1403 721 1403 721 1359 713 c 1,23,24
 1314 721 1314 721 1318 751 c 1,25,-1
 1318 961 l 1,26,-1
 1212 961 l 1,27,-1
 1212 827 l 1,28,29
 1216 807 1216 807 1172 802 c 1,30,31
 1127 807 1127 807 1131 827 c 1,32,-1
 1131 961 l 1,33,-1
 1019 961 l 1,34,-1
 1019 827 l 1,35,36
 1023 807 1023 807 979 802 c 1,37,38
 934 807 934 807 938 827 c 1,39,-1
 938 961 l 1,40,-1
 820 961 l 1,41,-1
 820 901 l 1,42,-1
 1077 303 l 1,43,-1
 1317 374 l 1,44,-1
 1298 466 l 1,45,-1
 1348 498 l 1,46,47
 1406 420 1406 420 1398 317 c 0,48,49
 1399 289 1399 289 1378 282 c 2,50,-1
 1008 180 l 1,51,52
 974 176 974 176 927 315 c 1,53,-1
 750 751 l 1,54,-1
 485 142 l 1,55,-1
 668 193 l 1,56,-1
 672 336 l 1,57,-1
 724 348 l 1,58,59
 764 239 764 239 740 136 c 0,60,61
 736 109 736 109 714 102 c 2,62,-1
 328 0 l 1,63,64
 277 -4 277 -4 287 49 c 1,65,-1
 285 49 l 1,66,-1
 289 57 l 1,67,-1
 291 65 l 1,68,-1
 293 67 l 1,69,-1
 680 901 l 1,70,-1
 680 961 l 1,71,-1
 561 961 l 1,72,-1
 561 827 l 1,73,74
 565 807 565 807 520 802 c 1,75,76
 476 807 476 807 480 827 c 1,77,-1
 480 961 l 1,78,-1
 368 961 l 1,79,-1
 368 827 l 1,80,81
 372 807 372 807 327 802 c 1,82,83
 283 807 283 807 287 827 c 1,84,-1
 287 961 l 1,85,-1
 181 961 l 1,86,-1
 181 751 l 1,87,88
 185 721 185 721 140 713 c 1,89,90
 96 721 96 721 100 751 c 1,91,-1
 100 979 l 1,92,93
 96 1043 96 1043 169 1042 c 2,94,-1
 680 1042 l 1,95,-1
 680 1377 l 1,0,-1
EndSplineSet
EndChar

StartChar: uniE03F
Encoding: 57407 57407 106
Width: 1500
GlyphClass: 1
Flags: W
LayerCount: 2
Fore
SplineSet
680 1377 m 1,0,-1
 300 1142 l 1,1,-1
 300 1161 l 1,2,3
 296 1241 296 1241 369 1276 c 1,4,-1
 680 1461 l 1,5,-1
 680 1623 l 1,6,7
 688 1700 688 1700 752 1700 c 0,8,9
 802 1700 802 1700 820 1629 c 1,10,-1
 820 1461 l 1,11,-1
 1130 1276 l 1,12,13
 1203 1241 1203 1241 1199 1161 c 1,14,-1
 1199 1142 l 1,15,-1
 820 1377 l 1,16,-1
 820 1042 l 1,17,-1
 1330 1042 l 2,18,19
 1403 1043 1403 1043 1399 979 c 1,20,-1
 1399 751 l 1,21,22
 1403 721 1403 721 1359 713 c 1,23,24
 1314 721 1314 721 1318 751 c 1,25,-1
 1318 961 l 1,26,-1
 1119 961 l 1,27,-1
 1119 751 l 1,28,29
 1123 721 1123 721 1079 713 c 1,30,31
 1034 721 1034 721 1038 751 c 1,32,-1
 1038 961 l 1,33,-1
 820 961 l 1,34,-1
 820 901 l 1,35,-1
 877 122 l 1,36,37
 1187 123 1187 123 1298 326 c 1,38,-1
 1348 358 l 1,39,40
 1386 279 1386 279 1257.5 154 c 128,-1,41
 1129 29 1129 29 818 0 c 0,42,43
 783 -4 783 -4 735 139 c 1,44,-1
 741 140 l 1,45,-1
 704 685 l 1,46,-1
 361 131 l 1,47,-1
 538 143 l 1,48,-1
 542 285 l 1,49,-1
 594 297 l 1,50,51
 634 189 634 189 610 86 c 0,52,53
 606 59 606 59 584 52 c 1,54,-1
 198 0 l 2,55,56
 147 -4 147 -4 157 49 c 1,57,-1
 155 49 l 1,58,-1
 158 54 l 2,59,60
 159 59 159 59 161 65 c 2,61,-1
 169 72 l 1,62,-1
 680 901 l 1,63,-1
 680 961 l 1,64,-1
 461 961 l 1,65,-1
 461 751 l 1,66,67
 465 721 465 721 420 713 c 1,68,69
 376 721 376 721 380 751 c 1,70,-1
 380 961 l 1,71,-1
 181 961 l 1,72,-1
 181 751 l 1,73,74
 185 721 185 721 140 713 c 1,75,76
 96 721 96 721 100 751 c 1,77,-1
 100 979 l 1,78,79
 96 1043 96 1043 169 1042 c 2,80,-1
 680 1042 l 1,81,-1
 680 1377 l 1,0,-1
EndSplineSet
EndChar

StartChar: uniE040
Encoding: 57408 57408 107
Width: 1800
GlyphClass: 1
Flags: W
LayerCount: 2
Fore
SplineSet
1702 748 m 1,0,-1
 1068 146 l 1,1,-1
 1076 211 l 1,2,-1
 1702 805 l 1,3,-1
 1702 748 l 1,0,-1
1266 489 m 1,4,-1
 998 226 l 1,5,-1
 1006 291 l 1,6,-1
 1207 489 l 1,7,-1
 1266 489 l 1,4,-1
1496 476 m 1,8,-1
 1493 414 l 1,9,-1
 1148 76 l 1,10,-1
 1156 141 l 1,11,-1
 1496 476 l 1,8,-1
1306 0 m 1,12,-1
 1306 1 l 1,13,-1
 1646 336 l 1,14,-1
 1643 274 l 1,15,-1
 1362 0 l 1,16,-1
 1306 0 l 1,12,-1
1576 416 m 1,17,-1
 1573 354 l 1,18,-1
 1228 16 l 1,19,-1
 1236 81 l 1,20,-1
 1576 416 l 1,17,-1
1706 197 m 1,21,-1
 1504 0 l 1,22,-1
 1445 0 l 1,23,-1
 1706 256 l 1,24,-1
 1706 197 l 1,21,-1
845 433 m 1,25,-1
 845 428 l 1,26,-1
 500 90 l 1,27,-1
 508 155 l 1,28,-1
 790 433 l 1,29,-1
 845 433 l 1,25,-1
698 433 m 1,30,-1
 430 170 l 1,31,-1
 438 235 l 1,32,-1
 639 433 l 1,33,-1
 698 433 l 1,30,-1
928 430 m 1,34,-1
 925 368 l 1,35,-1
 580 30 l 1,36,-1
 588 95 l 1,37,-1
 928 430 l 1,34,-1
815 0 m 1,38,-1
 1038 220 l 1,39,-1
 1035 158 l 1,40,-1
 873 0 l 1,41,-1
 815 0 l 1,38,-1
653 0 m 1,42,-1
 968 310 l 1,43,-1
 965 248 l 1,44,-1
 712 0 l 1,45,-1
 653 0 l 1,42,-1
965 0 m 1,46,-1
 1118 150 l 1,47,-1
 1115 88 l 1,48,-1
 1025 0 l 1,49,-1
 965 0 l 1,46,-1
100 198 m 1,50,-1
 308 403 l 1,51,-1
 363 403 l 1,52,-1
 363 398 l 1,53,-1
 100 140 l 1,54,-1
 100 198 l 1,50,-1
99 0 m 1,55,-1
 106 58 l 1,56,-1
 446 393 l 1,57,-1
 443 331 l 1,58,-1
 105 0 l 1,59,-1
 99 0 l 1,55,-1
349 0 m 1,60,-1
 596 243 l 1,61,-1
 593 181 l 1,62,-1
 407 0 l 1,63,-1
 349 0 l 1,60,-1
198 0 m 1,64,-1
 526 323 l 1,65,-1
 523 261 l 1,66,-1
 257 0 l 1,67,-1
 198 0 l 1,64,-1
490 0 m 1,68,-1
 676 183 l 1,69,-1
 673 121 l 1,70,-1
 549 0 l 1,71,-1
 490 0 l 1,68,-1
104 491 m 1,72,-1
 258 643 l 1,73,-1
 313 643 l 1,74,-1
 313 638 l 1,75,-1
 104 433 l 1,76,-1
 104 491 l 1,72,-1
104 352 m 1,77,-1
 396 640 l 1,78,-1
 393 578 l 1,79,-1
 104 295 l 1,80,-1
 104 352 l 1,77,-1
205 150 m 1,81,-1
 206 155 l 1,82,-1
 546 490 l 1,83,-1
 543 428 l 1,84,-1
 258 150 l 1,85,-1
 205 150 l 1,81,-1
476 570 m 1,86,-1
 473 508 l 1,87,-1
 128 170 l 1,88,-1
 136 235 l 1,89,-1
 476 570 l 1,86,-1
341 150 m 1,90,-1
 626 430 l 1,91,-1
 623 368 l 1,92,-1
 400 150 l 1,93,-1
 341 150 l 1,90,-1
1623 543 m 1,94,-1
 1623 538 l 1,95,-1
 1278 200 l 1,96,-1
 1286 265 l 1,97,-1
 1568 543 l 1,98,-1
 1623 543 l 1,94,-1
1706 540 m 1,99,-1
 1704 478 l 1,100,-1
 1358 140 l 1,101,-1
 1366 205 l 1,102,-1
 1706 540 l 1,99,-1
1706 333 m 1,103,-1
 1438 70 l 1,104,-1
 1446 135 l 1,105,-1
 1706 391 l 1,106,-1
 1706 333 l 1,103,-1
1686 10 m 1,107,-1
 1631 10 l 1,108,-1
 1686 64 l 1,109,-1
 1686 10 l 1,107,-1
1702 617 m 1,110,-1
 1483 402 l 1,111,-1
 1491 467 l 1,112,-1
 1702 675 l 1,113,-1
 1702 617 l 1,110,-1
104 640 m 1,114,-1
 216 750 l 1,115,-1
 213 688 l 1,116,-1
 104 581 l 1,117,-1
 104 640 l 1,114,-1
1096 0 m 1,118,-1
 1208 110 l 1,119,-1
 1205 48 l 1,120,-1
 1156 0 l 1,121,-1
 1096 0 l 1,118,-1
828 1375 m 1,122,-1
 448 1140 l 1,123,-1
 448 1159 l 1,124,125
 444 1239 444 1239 517 1274 c 1,126,-1
 828 1459 l 1,127,-1
 828 1620 l 1,128,129
 836 1697 836 1697 901 1697 c 0,130,131
 951 1697 951 1697 969 1626 c 1,132,-1
 969 1458 l 1,133,-1
 1279 1274 l 1,134,135
 1352 1239 1352 1239 1348 1159 c 1,136,-1
 1348 1140 l 1,137,-1
 969 1375 l 1,138,-1
 969 1040 l 1,139,-1
 1057 1040 l 1,140,-1
 1057 1127 l 1,141,-1
 1138 1127 l 1,142,-1
 1138 1040 l 1,143,-1
 1225 1040 l 1,144,-1
 1225 1127 l 1,145,-1
 1306 1127 l 1,146,-1
 1306 1040 l 1,147,-1
 1398 1040 l 1,148,-1
 1398 1127 l 1,149,-1
 1479 1127 l 1,150,-1
 1479 1040 l 1,151,-1
 1567 1040 l 1,152,-1
 1567 1127 l 1,153,-1
 1648 1127 l 1,154,-1
 1648 898 l 1,155,-1
 1567 806 l 1,156,-1
 1567 959 l 1,157,-1
 1479 959 l 1,158,-1
 1479 706 l 1,159,-1
 1398 614 l 1,160,-1
 1398 959 l 1,161,-1
 1306 959 l 1,162,-1
 1306 510 l 2,163,164
 1308 496 1308 496 1299 486 c 1,165,-1
 1455 362 l 1,166,167
 1538 312 1538 312 1505 209 c 1,168,-1
 1498 184 l 1,169,-1
 1131 487 l 1,170,171
 1121 476 1121 476 1098 472 c 1,172,173
 1053 480 1053 480 1057 510 c 1,174,-1
 1057 548 l 1,175,-1
 969 620 l 1,176,-1
 969 280 l 2,177,178
 969 215 969 215 899 200 c 1,179,180
 828 210 828 210 828 280 c 2,181,-1
 828 959 l 1,182,-1
 739 959 l 1,183,-1
 739 510 l 1,184,185
 743 480 743 480 698 472 c 1,186,187
 654 480 654 480 658 510 c 1,188,-1
 658 959 l 1,189,-1
 571 959 l 1,190,-1
 571 526 l 1,191,-1
 490 596 l 1,192,-1
 490 959 l 1,193,-1
 398 959 l 1,194,-1
 398 676 l 1,195,-1
 317 747 l 1,196,-1
 317 959 l 1,197,-1
 229 959 l 1,198,-1
 229 823 l 1,199,-1
 148 894 l 1,200,-1
 148 1127 l 1,201,-1
 229 1127 l 1,202,-1
 229 1040 l 1,203,-1
 317 1040 l 1,204,-1
 317 1127 l 1,205,-1
 398 1127 l 1,206,-1
 398 1040 l 1,207,-1
 490 1040 l 1,208,-1
 490 1127 l 1,209,-1
 571 1127 l 1,210,-1
 571 1040 l 1,211,-1
 658 1040 l 1,212,-1
 658 1127 l 1,213,-1
 739 1127 l 1,214,-1
 739 1040 l 1,215,-1
 828 1040 l 1,216,-1
 828 1375 l 1,122,-1
104 778 m 1,217,-1
 136 810 l 1,218,-1
 133 748 l 1,219,-1
 104 720 l 1,220,-1
 104 778 l 1,217,-1
1056 959 m 1,221,-1
 968 959 l 1,222,-1
 968 750 l 1,223,-1
 1056 680 l 1,224,-1
 1056 959 l 1,221,-1
1224 959 m 1,225,-1
 1137 959 l 1,226,-1
 1137 615 l 1,227,-1
 1224 546 l 1,228,-1
 1224 959 l 1,225,-1
EndSplineSet
EndChar

StartChar: uniE041
Encoding: 57409 57409 108
Width: 1500
GlyphClass: 1
Flags: W
LayerCount: 2
Fore
SplineSet
680 1378 m 1,0,-1
 300 1142 l 1,1,-1
 300 1161 l 1,2,3
 296 1242 296 1242 369 1277 c 1,4,-1
 680 1462 l 1,5,-1
 680 1623 l 1,6,7
 688 1701 688 1701 750 1701 c 0,8,9
 802 1701 802 1701 820 1629 c 1,10,-1
 820 1461 l 1,11,-1
 1131 1277 l 1,12,13
 1204 1242 1204 1242 1200 1161 c 1,14,-1
 1200 1142 l 1,15,-1
 820 1378 l 1,16,-1
 820 1042 l 1,17,-1
 1331 1042 l 2,18,19
 1404 1043 1404 1043 1400 979 c 1,20,-1
 1400 439 l 1,21,22
 1404 409 1404 409 1360 401 c 1,23,24
 1315 409 1315 409 1319 439 c 1,25,-1
 1319 961 l 1,26,-1
 820 961 l 1,27,-1
 820 691 l 1,28,-1
 1162 106 l 1,29,30
 1181 35 1181 35 1138 11 c 0,31,32
 1082 -20 1082 -20 1036 43 c 1,33,-1
 750 538 l 1,34,-1
 437 43 l 1,35,36
 392 -20 392 -20 337 11 c 0,37,38
 293 35 293 35 312 106 c 1,39,-1
 680 691 l 1,40,-1
 680 961 l 1,41,-1
 181 961 l 1,42,-1
 181 439 l 1,43,44
 185 409 185 409 140 401 c 1,45,46
 96 409 96 409 100 439 c 1,47,-1
 100 979 l 1,48,49
 96 1043 96 1043 169 1042 c 2,50,-1
 680 1042 l 1,51,-1
 680 1378 l 1,0,-1
EndSplineSet
EndChar

StartChar: uniE042
Encoding: 57410 57410 109
Width: 1150
GlyphClass: 1
Flags: W
LayerCount: 2
Fore
SplineSet
711 15 m 0,0,1
 676 19 676 19 630 33 c 1,2,3
 588 68 588 68 630 137 c 1,4,-1
 630 404 l 1,5,6
 600 529 600 529 556 594 c 1,7,8
 521 420 521 420 321 98 c 1,9,10
 289 56 289 56 452 85 c 0,11,12
 471 85 471 85 489 46 c 0,13,14
 509 0 509 0 366.5 0.5 c 128,-1,15
 224 1 224 1 225 46 c 2,16,-1
 225 58 l 2,17,18
 225 137 225 137 368 385 c 0,19,20
 506 632 506 632 486 901 c 1,21,22
 465 1089 465 1089 375 1088 c 0,23,24
 276 1088 276 1088 235 958 c 1,25,26
 222 685 222 685 209 502 c 1,27,28
 209 433 209 433 172 424 c 1,29,-1
 158 424 l 2,30,31
 133 424 133 424 133 450 c 2,32,-1
 133 658 l 1,33,34
 127 1180 127 1180 324 1192 c 1,35,36
 441 1206 441 1206 489 1232 c 1,37,-1
 489 1245 l 1,38,39
 316 1280 316 1280 172 1402 c 1,40,41
 62 1506 62 1506 120 1597 c 1,42,43
 194 1701 194 1701 261 1701 c 1,44,45
 273 1675 273 1675 273 1648 c 1,46,47
 197 1564 197 1564 197 1557 c 2,48,-1
 197 1519 l 1,49,50
 286 1414 286 1414 477 1323 c 1,51,-1
 502 1316 l 1,52,53
 489 1382 489 1382 489 1440 c 0,54,55
 489 1460 489 1460 528 1480 c 0,56,57
 599 1516 599 1516 710 1473 c 128,-1,58
 821 1430 821 1430 821 1414 c 2,59,-1
 821 1402 l 1,60,-1
 795 1360 l 1,61,-1
 793 1355 l 1,62,63
 945 1424 945 1424 974 1519 c 1,64,-1
 974 1544 l 1,65,66
 935 1594 935 1594 935 1635 c 1,67,68
 961 1648 961 1648 986 1648 c 1,69,70
 1032 1632 1032 1632 1050 1571 c 1,71,72
 1050 1359 1050 1359 859 1284 c 1,73,74
 741 1232 741 1232 642 1232 c 1,75,76
 642 1215 642 1215 833 1180 c 1,77,78
 945 1124 945 1124 945 841 c 2,79,-1
 945 515 l 2,80,81
 945 496 945 496 897 476 c 1,82,83
 872 476 872 476 872 502 c 2,84,-1
 872 828 l 2,85,86
 872 1014 872 1014 787 1059.5 c 128,-1,87
 702 1105 702 1105 668 1056 c 0,88,89
 605 974 605 974 605 841 c 2,90,-1
 605 736 l 1,91,92
 710 547 710 547 729 424 c 1,93,94
 738 314 738 314 716 219 c 128,-1,95
 694 124 694 124 694 111 c 1,96,97
 709 91 709 91 846 72 c 1,98,-1
 846 46 l 2,99,100
 846 0 846 0 711 15 c 0,0,1
588 1284 m 1,102,103
 652 1294 652 1294 762 1338 c 1,104,-1
 755 1339 l 1,105,106
 640 1349 640 1349 591 1388 c 1,107,101
 582 1376 582 1376 588 1284 c 1,102,103
EndSplineSet
EndChar

StartChar: uniE043
Encoding: 57411 57411 110
Width: 1000
GlyphClass: 1
Flags: W
LayerCount: 2
Fore
SplineSet
413 1210 m 1,0,-1
 411 1211 l 1,1,-1
 212 1219 l 2,2,3
 143 1219 143 1219 119 1294 c 0,4,5
 103 1346 103 1346 114 1429 c 0,6,7
 131 1539 131 1539 233 1625 c 1,8,-1
 248 1625 l 2,9,10
 270 1624 270 1624 300 1550 c 1,11,12
 197 1489 197 1489 197 1394 c 0,13,14
 194 1309 194 1309 285 1309 c 2,15,-1
 430 1309 l 2,16,17
 460 1309 460 1309 460 1339 c 2,18,-1
 460 1414 l 1,19,20
 410 1487 410 1487 389 1565 c 1,21,22
 411 1690 411 1690 497 1700 c 1,23,24
 590 1669 590 1669 590 1640 c 1,25,26
 610 1523 610 1523 590 1399 c 1,27,28
 558 1354 558 1354 558 1309 c 1,29,-1
 729 1309 l 2,30,31
 797 1309 797 1309 797 1375.5 c 128,-1,32
 797 1442 797 1442 698 1520 c 1,33,-1
 698 1565 l 1,34,35
 703 1595 703 1595 729 1595 c 2,36,-1
 745 1595 l 1,37,38
 849 1519 849 1519 885 1444 c 0,39,40
 911 1382 911 1382 870 1294 c 1,41,42
 820 1204 820 1204 698 1204 c 2,43,-1
 606 1204 l 1,44,-1
 606 1200 l 1,45,-1
 600 1200 l 1,46,-1
 838 1004 l 1,47,48
 900 964 900 964 900 906 c 128,-1,49
 900 848 900 848 854 848 c 1,50,-1
 569 1085 l 1,51,-1
 569 689 l 1,52,-1
 845 105 l 1,53,54
 864 34 864 34 821 10 c 0,55,56
 767 -21 767 -21 722 42 c 1,57,-1
 500 536 l 1,58,-1
 331 42 l 1,59,60
 287 -21 287 -21 233 10 c 0,61,62
 189 34 189 34 208 105 c 1,63,-1
 432 689 l 1,64,-1
 432 1085 l 1,65,-1
 146 848 l 1,66,67
 100 848 100 848 100 906 c 128,-1,68
 100 964 100 964 162 1004 c 1,69,-1
 413 1210 l 1,0,-1
EndSplineSet
EndChar

StartChar: uniE044
Encoding: 57412 57412 111
Width: 1050
GlyphClass: 1
Flags: W
LayerCount: 2
Fore
SplineSet
596 642 m 1,0,-1
 944 105 l 1,1,2
 964 34 964 34 920 10 c 0,3,4
 863 -21 863 -21 817 42 c 1,5,-1
 526 488 l 1,6,-1
 234 42 l 2,7,8
 188 -21 188 -21 131 10 c 0,9,10
 87 34 87 34 106 105 c 1,11,-1
 454 642 l 1,12,-1
 454 689 l 1,13,-1
 453 689 l 1,14,-1
 453 888 l 1,15,-1
 165 658 l 1,16,17
 117 658 117 658 117 717 c 128,-1,18
 117 776 117 776 182 816 c 1,19,-1
 453 1030 l 1,20,-1
 453 1237 l 1,21,22
 185 1277 185 1277 120 1552 c 1,23,24
 92 1702 92 1702 169 1699 c 1,25,26
 196 1384 196 1384 453 1338 c 1,27,-1
 453 1623 l 1,28,29
 461 1700 461 1700 525 1700 c 0,30,31
 578 1700 578 1700 596 1629 c 1,32,-1
 596 1338 l 1,33,34
 855 1383 855 1383 882 1699 c 1,35,36
 958 1705 958 1705 930 1552 c 1,37,38
 866 1276 866 1276 596 1237 c 1,39,-1
 596 1032 l 1,40,-1
 870 816 l 1,41,42
 934 776 934 776 934 717 c 128,-1,43
 934 658 934 658 886 658 c 1,44,-1
 596 890 l 1,45,-1
 596 642 l 1,0,-1
EndSplineSet
EndChar

